<mxfile host="app.diagrams.net" modified="2020-10-29T09:35:24.531Z" agent="5.0 (Windows NT 10.0; Win64; x64) AppleWebKit/537.36 (KHTML, like Gecko) Chrome/86.0.4240.111 Safari/537.36" etag="XoFfcDvoqXFAXpFOeIhM" version="13.8.6" type="github">
  <diagram id="piDafpqhtRUU5qUU-vj8" name="Page-1">
    <mxGraphModel dx="2844" dy="1392" grid="1" gridSize="10" guides="1" tooltips="1" connect="1" arrows="1" fold="1" page="1" pageScale="1" pageWidth="827" pageHeight="1169" math="0" shadow="0">
      <root>
        <mxCell id="0" />
        <mxCell id="1" parent="0" />
        <mxCell id="8962rQQDY3VNNf6We3Pp-1" value="" style="strokeWidth=1;shadow=0;dashed=0;align=center;html=1;shape=mxgraph.mockup.containers.browserWindow;rSize=0;strokeColor2=#008cff;strokeColor3=#c4c4c4;mainText=,;recursiveResize=0;strokeColor=#FFFFFF;fontColor=#FFFFFF;fontFamily=Verdana;" parent="1" vertex="1">
          <mxGeometry x="10" y="10" width="1403" height="1330" as="geometry" />
        </mxCell>
        <mxCell id="8962rQQDY3VNNf6We3Pp-2" value="CIPFP Ã€usias March" style="strokeWidth=1;shadow=0;dashed=0;align=center;html=1;shape=mxgraph.mockup.containers.anchor;fontSize=17;fontColor=#666666;align=left;" parent="8962rQQDY3VNNf6We3Pp-1" vertex="1">
          <mxGeometry x="60" y="12" width="110" height="26" as="geometry" />
        </mxCell>
        <mxCell id="8962rQQDY3VNNf6We3Pp-3" value="https://www.theintrokey.com/~try-it" style="strokeWidth=1;shadow=0;dashed=0;align=center;html=1;shape=mxgraph.mockup.containers.anchor;rSize=0;fontSize=17;fontColor=#666666;align=left;" parent="8962rQQDY3VNNf6We3Pp-1" vertex="1">
          <mxGeometry x="130" y="60" width="250" height="26" as="geometry" />
        </mxCell>
        <mxCell id="8962rQQDY3VNNf6We3Pp-35" value="" style="verticalLabelPosition=bottom;shadow=0;dashed=0;align=center;html=1;verticalAlign=top;strokeWidth=1;shape=mxgraph.mockup.markup.line;strokeColor=#999999;fillColor=#008CFF;fontSize=13;fontColor=#0066CC;" parent="8962rQQDY3VNNf6We3Pp-1" vertex="1">
          <mxGeometry y="1180" width="1150" height="20" as="geometry" />
        </mxCell>
        <mxCell id="8962rQQDY3VNNf6We3Pp-36" value="" style="shape=image;html=1;verticalAlign=top;verticalLabelPosition=bottom;labelBackgroundColor=#ffffff;imageAspect=0;aspect=fixed;image=https://cdn3.iconfinder.com/data/icons/peelicons-vol-1/50/LinkedIn-128.png;fillColor=#008CFF;fontSize=13;fontColor=#0066CC;" parent="8962rQQDY3VNNf6We3Pp-1" vertex="1">
          <mxGeometry x="870" y="1235" width="30" height="30" as="geometry" />
        </mxCell>
        <mxCell id="8962rQQDY3VNNf6We3Pp-37" value="" style="shape=image;html=1;verticalAlign=top;verticalLabelPosition=bottom;labelBackgroundColor=#ffffff;imageAspect=0;aspect=fixed;image=https://cdn3.iconfinder.com/data/icons/peelicons-vol-1/50/Facebook-128.png;fillColor=#008CFF;fontSize=13;fontColor=#0066CC;" parent="8962rQQDY3VNNf6We3Pp-1" vertex="1">
          <mxGeometry x="920" y="1235" width="30" height="30" as="geometry" />
        </mxCell>
        <mxCell id="8962rQQDY3VNNf6We3Pp-38" value="" style="shape=image;html=1;verticalAlign=top;verticalLabelPosition=bottom;labelBackgroundColor=#ffffff;imageAspect=0;aspect=fixed;image=https://cdn3.iconfinder.com/data/icons/peelicons-vol-1/50/Twitter-128.png;fillColor=#008CFF;fontSize=13;fontColor=#0066CC;" parent="8962rQQDY3VNNf6We3Pp-1" vertex="1">
          <mxGeometry x="970" y="1235" width="30" height="30" as="geometry" />
        </mxCell>
        <mxCell id="uZN8Kx0HlbbgqsTFxMau-1" value="" style="shape=image;verticalLabelPosition=bottom;labelBackgroundColor=#ffffff;verticalAlign=top;aspect=fixed;imageAspect=0;image=data:image/jpeg,/9j/4QAYRXhpZgAASUkqAAgAAAAAAAAAAAAAAP/sABFEdWNreQABAAQAAAA8AAD/4gxYSUNDX1BST0ZJTEUAAQEAAAxITGlubwIQAABtbnRyUkdCIFhZWiAHzgACAAkABgAxAABhY3NwTVNGVAAAAABJRUMgc1JHQgAAAAAAAAAAAAAAAAAA9tYAAQAAAADTLUhQICAAAAAAAAAAAAAAAAAAAAAAAAAAAAAAAAAAAAAAAAAAAAAAAAAAAAAAAAAAAAAAABFjcHJ0AAABUAAAADNkZXNjAAABhAAAAGx3dHB0AAAB8AAAABRia3B0AAACBAAAABRyWFlaAAACGAAAABRnWFlaAAACLAAAABRiWFlaAAACQAAAABRkbW5kAAACVAAAAHBkbWRkAAACxAAAAIh2dWVkAAADTAAAAIZ2aWV3AAAD1AAAACRsdW1pAAAD+AAAABRtZWFzAAAEDAAAACR0ZWNoAAAEMAAAAAxyVFJDAAAEPAAACAxnVFJDAAAEPAAACAxiVFJDAAAEPAAACAx0ZXh0AAAAAENvcHlyaWdodCAoYykgMTk5OCBIZXdsZXR0LVBhY2thcmQgQ29tcGFueQAAZGVzYwAAAAAAAAASc1JHQiBJRUM2MTk2Ni0yLjEAAAAAAAAAAAAAABJzUkdCIElFQzYxOTY2LTIuMQAAAAAAAAAAAAAAAAAAAAAAAAAAAAAAAAAAAAAAAAAAAAAAAAAAAAAAAAAAAAAAAAAAWFlaIAAAAAAAAPNRAAEAAAABFsxYWVogAAAAAAAAAAAAAAAAAAAAAFhZWiAAAAAAAABvogAAOPUAAAOQWFlaIAAAAAAAAGKZAAC3hQAAGNpYWVogAAAAAAAAJKAAAA+EAAC2z2Rlc2MAAAAAAAAAFklFQyBodHRwOi8vd3d3LmllYy5jaAAAAAAAAAAAAAAAFklFQyBodHRwOi8vd3d3LmllYy5jaAAAAAAAAAAAAAAAAAAAAAAAAAAAAAAAAAAAAAAAAAAAAAAAAAAAAAAAAAAAAABkZXNjAAAAAAAAAC5JRUMgNjE5NjYtMi4xIERlZmF1bHQgUkdCIGNvbG91ciBzcGFjZSAtIHNSR0IAAAAAAAAAAAAAAC5JRUMgNjE5NjYtMi4xIERlZmF1bHQgUkdCIGNvbG91ciBzcGFjZSAtIHNSR0IAAAAAAAAAAAAAAAAAAAAAAAAAAAAAZGVzYwAAAAAAAAAsUmVmZXJlbmNlIFZpZXdpbmcgQ29uZGl0aW9uIGluIElFQzYxOTY2LTIuMQAAAAAAAAAAAAAALFJlZmVyZW5jZSBWaWV3aW5nIENvbmRpdGlvbiBpbiBJRUM2MTk2Ni0yLjEAAAAAAAAAAAAAAAAAAAAAAAAAAAAAAAAAAHZpZXcAAAAAABOk/gAUXy4AEM8UAAPtzAAEEwsAA1yeAAAAAVhZWiAAAAAAAEwJVgBQAAAAVx/nbWVhcwAAAAAAAAABAAAAAAAAAAAAAAAAAAAAAAAAAo8AAAACc2lnIAAAAABDUlQgY3VydgAAAAAAAAQAAAAABQAKAA8AFAAZAB4AIwAoAC0AMgA3ADsAQABFAEoATwBUAFkAXgBjAGgAbQByAHcAfACBAIYAiwCQAJUAmgCfAKQAqQCuALIAtwC8AMEAxgDLANAA1QDbAOAA5QDrAPAA9gD7AQEBBwENARMBGQEfASUBKwEyATgBPgFFAUwBUgFZAWABZwFuAXUBfAGDAYsBkgGaAaEBqQGxAbkBwQHJAdEB2QHhAekB8gH6AgMCDAIUAh0CJgIvAjgCQQJLAlQCXQJnAnECegKEAo4CmAKiAqwCtgLBAssC1QLgAusC9QMAAwsDFgMhAy0DOANDA08DWgNmA3IDfgOKA5YDogOuA7oDxwPTA+AD7AP5BAYEEwQgBC0EOwRIBFUEYwRxBH4EjASaBKgEtgTEBNME4QTwBP4FDQUcBSsFOgVJBVgFZwV3BYYFlgWmBbUFxQXVBeUF9gYGBhYGJwY3BkgGWQZqBnsGjAadBq8GwAbRBuMG9QcHBxkHKwc9B08HYQd0B4YHmQesB78H0gflB/gICwgfCDIIRghaCG4IggiWCKoIvgjSCOcI+wkQCSUJOglPCWQJeQmPCaQJugnPCeUJ+woRCicKPQpUCmoKgQqYCq4KxQrcCvMLCwsiCzkLUQtpC4ALmAuwC8gL4Qv5DBIMKgxDDFwMdQyODKcMwAzZDPMNDQ0mDUANWg10DY4NqQ3DDd4N+A4TDi4OSQ5kDn8Omw62DtIO7g8JDyUPQQ9eD3oPlg+zD88P7BAJECYQQxBhEH4QmxC5ENcQ9RETETERTxFtEYwRqhHJEegSBxImEkUSZBKEEqMSwxLjEwMTIxNDE2MTgxOkE8UT5RQGFCcUSRRqFIsUrRTOFPAVEhU0FVYVeBWbFb0V4BYDFiYWSRZsFo8WshbWFvoXHRdBF2UXiReuF9IX9xgbGEAYZRiKGK8Y1Rj6GSAZRRlrGZEZtxndGgQaKhpRGncanhrFGuwbFBs7G2MbihuyG9ocAhwqHFIcexyjHMwc9R0eHUcdcB2ZHcMd7B4WHkAeah6UHr4e6R8THz4faR+UH78f6iAVIEEgbCCYIMQg8CEcIUghdSGhIc4h+yInIlUigiKvIt0jCiM4I2YjlCPCI/AkHyRNJHwkqyTaJQklOCVoJZclxyX3JicmVyaHJrcm6CcYJ0kneierJ9woDSg/KHEooijUKQYpOClrKZ0p0CoCKjUqaCqbKs8rAis2K2krnSvRLAUsOSxuLKIs1y0MLUEtdi2rLeEuFi5MLoIuty7uLyQvWi+RL8cv/jA1MGwwpDDbMRIxSjGCMbox8jIqMmMymzLUMw0zRjN/M7gz8TQrNGU0njTYNRM1TTWHNcI1/TY3NnI2rjbpNyQ3YDecN9c4FDhQOIw4yDkFOUI5fzm8Ofk6Njp0OrI67zstO2s7qjvoPCc8ZTykPOM9Ij1hPaE94D4gPmA+oD7gPyE/YT+iP+JAI0BkQKZA50EpQWpBrEHuQjBCckK1QvdDOkN9Q8BEA0RHRIpEzkUSRVVFmkXeRiJGZ0arRvBHNUd7R8BIBUhLSJFI10kdSWNJqUnwSjdKfUrESwxLU0uaS+JMKkxyTLpNAk1KTZNN3E4lTm5Ot08AT0lPk0/dUCdQcVC7UQZRUFGbUeZSMVJ8UsdTE1NfU6pT9lRCVI9U21UoVXVVwlYPVlxWqVb3V0RXklfgWC9YfVjLWRpZaVm4WgdaVlqmWvVbRVuVW+VcNVyGXNZdJ114XcleGl5sXr1fD19hX7NgBWBXYKpg/GFPYaJh9WJJYpxi8GNDY5dj62RAZJRk6WU9ZZJl52Y9ZpJm6Gc9Z5Nn6Wg/aJZo7GlDaZpp8WpIap9q92tPa6dr/2xXbK9tCG1gbbluEm5rbsRvHm94b9FwK3CGcOBxOnGVcfByS3KmcwFzXXO4dBR0cHTMdSh1hXXhdj52m3b4d1Z3s3gReG54zHkqeYl553pGeqV7BHtje8J8IXyBfOF9QX2hfgF+Yn7CfyN/hH/lgEeAqIEKgWuBzYIwgpKC9INXg7qEHYSAhOOFR4Wrhg6GcobXhzuHn4gEiGmIzokziZmJ/opkisqLMIuWi/yMY4zKjTGNmI3/jmaOzo82j56QBpBukNaRP5GokhGSepLjk02TtpQglIqU9JVflcmWNJaflwqXdZfgmEyYuJkkmZCZ/JpomtWbQpuvnByciZz3nWSd0p5Anq6fHZ+Ln/qgaaDYoUehtqImopajBqN2o+akVqTHpTilqaYapoum/adup+CoUqjEqTepqaocqo+rAqt1q+msXKzQrUStuK4trqGvFq+LsACwdbDqsWCx1rJLssKzOLOutCW0nLUTtYq2AbZ5tvC3aLfguFm40blKucK6O7q1uy67p7whvJu9Fb2Pvgq+hL7/v3q/9cBwwOzBZ8Hjwl/C28NYw9TEUcTOxUvFyMZGxsPHQce/yD3IvMk6ybnKOMq3yzbLtsw1zLXNNc21zjbOts83z7jQOdC60TzRvtI/0sHTRNPG1EnUy9VO1dHWVdbY11zX4Nhk2OjZbNnx2nba+9uA3AXcit0Q3ZbeHN6i3ynfr+A24L3hROHM4lPi2+Nj4+vkc+T85YTmDeaW5x/nqegy6LzpRunQ6lvq5etw6/vshu0R7ZzuKO6070DvzPBY8OXxcvH/8ozzGfOn9DT0wvVQ9d72bfb794r4Gfio+Tj5x/pX+uf7d/wH/Jj9Kf26/kv+3P9t////7gAOQWRvYmUAZMAAAAAB/9sAhAAGBAQEBQQGBQUGCQYFBgkLCAYGCAsMCgoLCgoMEAwMDAwMDBAMDg8QDw4MExMUFBMTHBsbGxwfHx8fHx8fHx8fAQcHBw0MDRgQEBgaFREVGh8fHx8fHx8fHx8fHx8fHx8fHx8fHx8fHx8fHx8fHx8fHx8fHx8fHx8fHx8fHx8fHx//wAARCAGhA+wDAREAAhEBAxEB/8QA0AABAAIDAQEBAAAAAAAAAAAAAAYHBAUIAwIBAQEAAgMBAQAAAAAAAAAAAAAAAQUDBAYHAhAAAQQBAgIEBggRCAkCBQQDAQACAwQFEQYSByExQRNRYXEiFAiBkTJys3Q2N6GxQlKCkrLSIzNzk7QVVXUXwWKi0yQ1FhjRwkNTo8NUhJRjNPDhg+M44tQlVkRFJxEBAAIAAwQECwYFAwUBAAAAAAECEQMEMRIFBiFBUZFhcYGhscHRIjITFOFCUmJyI/DxMyQ0gpKistLiQxUW/9oADAMBAAIRAxEAPwDqlAQEBAQEBAQEBAQEBAQEBAQEBAQEBAQEBAQEBAQEBAQEBAQEBAQEBAQEBAQEBAQEBAQEBAQEBAQEBAQEBAQEBAQEBAQEBAQEBAQEBAQEBAQEBAQEBAQEBAQEBAQEBAQEBAQEBAQEBAQEBAQEBAQEBAQEBAQEBAQEBAQEBAQEBAQEBAQEBAQEBAQEBAQEBAQEBAQEBAQEBAQEBAQEBAQEBAQEBAQEBAQEBAQEBAQEBAQEBAQEBAQEBAQEBAQEBAQEBAQEBAQEBAQEBAQEBAQEBAQEBAQEBAQEBAQEBAQEBAQEBAQEBAQEBAQEBAQEBAQEBAQEBAQEBAQEBAQEBAQEBAQEBAQEBAQEBAQEBAQEBAQEBAQEBAQEBAQEBAQEBAQEBAQEBAQEBAQEBAQEBAQEBAQEBAQEBAQEBAQEBAQEBAQEBAQEBAQEBAQEBAQEBAQEBAQEBAQEBAQEBAQEBAQEBAQEBAQEBAQEBAQEBAQEBAQEBAQEBAQEBAQEBAQEBAQfj3sYxz3uDWNBLnOOgAHWSSiYjFC8zzl5cYl7opsxHYmb1x1Gusexxxh0ftuWK2fSOtaZHBdVmdMUwjw9Hp6Udm9ZTYEbiG1slKPrmQwgf0pmlY/qq+FuxyxqZ66R5Z9j8Z6yuwXHzqmSZ43Qw/6sxT6qvhTPLGp7ad8/9rLi9Ynly/3UluL30Gv3LnKfqaMc8t6qPw97Li598sH+6yckXvq1g/cscp+pp2sU8v6uPu+ePazIedXLCX3OdjHv4rDPuowp+fTtYp4Hq4+5549rNi5p8upfc7hpDX6+UM+60X186naxTwnVR/67dzNi33sib8VuDGvJ7Bbg19rjU/Mr2wxTw/URty7/AO2WbDn8FP8AiclVl16uCaN30nKd6O1itp8yNtbd0s1kkcg4o3B7fC0gj6C+mKYmNr6RAgICAgICAgICAgICAgICAgICAgICAgICAgICAgICAgICAgICAgICAgICAgICAgICAgICAgICAgICAgICAgICAgICAgICAgICAgICAgICAgICAgICAgICAgICAgICAgICAgICAgICAgICAgICAgICAgIMTL5ahiMZZyeQlENOpGZZpD2NHgHaT1AdpUWmIjGWTJybZl4pWMbS5P5jc1s9vG5JH3j6mEa7+z45jtAQD0Pm092/6A7PCa3Nzpt4novDeEZemrj8WZ1z7OxCFhWwgICAgICAgIP1j3sdxMcWu8IOhQmMWZDnM3B+JyFmLTq4JpG/SKnelitkZc7ax3M+HfW9ofxW4MkwDsbbnA9rjX18y3bLDbQaeduXT/bDOh5qcxYfcbguHT6+Tj+74lPzr9rFbhOln/11Z0PO3mhD7nOPd7+Gu/7qMr6+ov2sNuBaSfueefaz4PWB5lx+7uwTe/rxD7gMU/U3Ybcu6SeqY8ss+D1k9/x+7rY6b38MoP8ARlavr6q3gYbcsaaeu8eWPY2EHrO7mH4/EUn+HgdKz6bnqfq57GG3K2V1Xt5mfB60dgfj9uMf4Sy2W/Thcvr6vwMNuVI6sz/j9rPg9aDEn8fgZ2eHgnY/6bWL6+rjsYbcq36rx3NhB6zOy3fjsdkYz/NZA8fCtU/V17JYbcr5/Vann9iSbW507F3HkY8bVsS1rsxAgitx933jj9S1wL28XiJ6exZKZ9bTg0dXwTUZFd+Yiax2J0syoEBAQEBAQEBAQEBAQEBAQEBAQEBAQEBAQEBAQEBAQEBAQEBAQEBAQEBAQEBAQEBAQEBAQEBAQEBAQEBAQEBAQEBAQEBAQEBAQEBAQEBAQEBAQEBAQEBAQEBAQEBAQEBAQEBAQEBAQUN6yu73g0dq1n6NIFzIAHr6S2Fh9pziPerS1V/uuw5Y0fxZ0+KPX/HjUMtN14gmmx+Um7t3NbYqQtqYwnQ5Czq2N2nX3bQC6T2Bp41ly8m1lXr+MZOm6LTjfsj19i2cX6sm2Yo2/rPK3LUvb3AjgZr5HNmd/SW1GkjrlzmbzTmzPuVrEeHGfY2Z9XDl6R0Pvjxidn8san6WrB/+l1P5e77Xk/1atgu6rWSZ5Jof5YSn0tfCmOZ9T2U7p9rHk9WXZp/F5LIt986B30omqPpK9sskc0Z/XWnn9rGk9WHbx/F5m233zInfSDVH0kdr7jmnN66V87Gk9V2gfxe4JW++rNd9KRqj6SO1kjmq3Xlx3/YxpPVbf/s9yg+J1PT6InKj6TwvuOa+3L/5f+LFk9V/Kj8XnoHe+ge36T3KPpJ7WSOaqddJ72NJ6sW6B+Ly9F3vhK36TXKPpJ7WSOacnrpbzMWT1Z98j3F/GPHjlnB+BUfSW8D7jmjT/hv3R/3MeT1cOYTfcyUH+9nf/rRhR9LZkjmbTfm7vtY8nq9cyW+5r1n+9sN/1tE+mu+45j0vbbuY7+QfM9vVjY3+SzB/K8KPpr9j7jmHSfinun2PF/Irmm3/AP0vEPCLNT+tUfT37H1HH9H+P/jb2PF3JTmg3rwUnsTVz9KRPkX7H3/9zSfj80+x8/wY5nfsKX85B/WKPkX7E/8A29J+OO6fY+4uSXNCQgDBvGva6es36cgU/T37HzPHdJH3/Nb2JNhvVp3da4XZS9Vx0Z62s4rEo+xbwM/prJXS262hn8z5Nfgra3mj+PIs7ZnIraG27kGRkdLk8lXcJIZpyGxxvb0h7Im9Go7OIu0Wxl6etelQ63j+fn1msYVrPZ7VjLOoxAQEBAQEBAQEBAQEBAQEBAQEBAQEBAQEBAQEBAQEBAQEBAQEBAQEBAQEBAQEBAQEBAQEBAQEBAQEBAQEBAQEBAQEBAQEBAQEBAQEBAQEBAQEBAQEBAQEBAQEBAQEBAQEBAQEBAQEHF/MPPHPb1zGTDuOKWw9lc/+jF+Di/oMCqc229aZepcO0/ydPSnZHT456ZR1fDdWjyT5WM3TedmMtGTgqT+ERHo9ImHTwe8b1u9rw6bGRk704zsc/wAc4t9PXcp/Ut5o9vY6fiiihiZFCxscUbQ2ONgDWtaBoAAOgAKxcDMzM4ztfSIEBAQEBAQEBAQEBAQEBAQEBAQEBAQEBAQEBAQEBAQEBAQEBAQEBAQEBAQEBAQEBAQEBAQEBAQEBAQEBAQEBAQEBAQEBAQEBAQEBAQEBAQEBAQEBAQEBAQEBAQEBAQEBAQEBAQEBAQEBAQEBAQEBAQEBAQEBAQEBAQabemTfi9o5nIRnhlrUp5Ij/6gjPB/S0XxmThWZbWhyvmZ9Kzsm0elxMql6q98fRs5C/Wo1W8dm3KyCBnhfI4NaPbKmIxnB8ZmZFKzadkRi7X2vt+nt3b9HDVB+BpxBhdpoXv63vPje8lxVtSu7GDyvV6i2dmWzLbbS2i+muICAgICAgICAgICAgICAgICAgICAgICAgICAgICAgICAgICAgICAgICAgICAgICAgICAgICAgICAgICAgICAgICAgICAgICAgICAgICAgICAgICAgICAgICAgICAgICAgICAgICAgICAgICAgICAgICAgICAgICAgIIVzos+j8sc7J9dFHH+dnjj/1lhz59yVrwSu9q6R4Z80S5CVY9KWNyBwrclzFqzPbxRY2GW44Hq4gBGz2nyA+ws+mrjdScw5+5pZj8UxHr9TqxWTzsQEBAQEBAQEBAQEBAQEBAQEBAQEBAQEBAQEBAQEBAQEBAQEBAQEBAQEBAQEBAQEBAQEBAQEBAQEBAQEBAQEBAQEBAQEBAQEBAQEBAQEBAQEBAQEBAQEBAQEBAQEBAQEBAQEBAQEBAQEBAQEBAQEBAQEBAQEBAQEBAQEFdc/5u75ZZBv8AvZqzPama7/VWDU/Au+Xox1dfBE+hykq16IvP1XabXXNwXSPOjjrQtPikdI53wYW5pI2uS5qv7uXXxz6Pav8AW640QEBAJDQSToB0knqAQamlu3a9/IHHUcvTtXmgk1oZ43yeb1+a0nq7V8xeszhEtnM0edSu9alor2zEtsvprCAgICAgICAgICAgICAgICAgICAgICAgICAgICAgICAgICAgICAgICAgICAgICAgICAgICAgICAgICAgICAgICAgICAgICAgICAgICAgICAgICAgICAgICAgICAgICAgICAgICAgICAgICAgICAgICAgICAgq/1jH8PLvT6+7A36Dz/ItfVfA6DlqP7r/TLl1Vzv3Q3qvxaYbOTfX2YWa+8jJ/11vaTZLi+ap/cpHgldi23KCAgIKC9Y/e1+O7W2rSndFWMIsZEMOneF5Ijjdp9S0N4iO3UeBaWqzJ+F2PLOhrNZzrRjOOFfapGhft4+7BepyuhtVntlglb0Fr2nUFakThOLq8zLres1tGMS7gxFqe3iaVudgjnsQRSyxjqa97A5zenwEq3rOMPJ86kVvNY2RMstSxiAgICAgICCsecfNp20YY8XieCTPWW94XPHEyvEToHub2udp5oPlPZrr5+du9EbV/wXg/1M79/6ceeVQ4zn9zJp2mzWb0eQh11fXngia0jt0dE2Nw9tasam8OlzeXtLaMIrNZ7YmfXi6c27l25nAY7LtiMAv14rAhcdS3vWB3Dr0a6a9asK2xiJcFqcn5WZamOO7Mx3NgvpgEBAQEBAQEBAQEBAQEBAQEBAQEBAQEBAQEBAQEBAQEBAQEBAQEBAQEBAQEBAQEBAQEBAQEBAQEBAQEBAQEBAQEBAQEBAQEBAQEBAQEBAQEBAQEBAQEBAQEBAQEBAQEBAQEBAQEBAQEBBVHrKP4dgVh9fkoR/wZj/ACLW1Xw+V0XLEf3M/on0w5kVe710j6skem0MpJ9dkC37WCM/6y39J8MuG5pn9+sfk9crhW05kQEBByvz/wATlYOYd+/PXkFC0yualgtPduDIGMc0O6tQ9ruhV2pid/F6Fy9nUnTVrE+9GOMeWWq5YcvMnuvcVQPqyDCwyNkv23NIj7th1MYceguf7kAeVfGVlTafA2OK8Spp8qen9ydkevyOvQABoOgDqCtHmogICAgICAgIOOubIyI5jZ/9YEmb0p3d6/7ggdx/wuFVedjvzi9O4Ru/S5e7s3fP1+drdl7Vvbp3HTw1QH8O8GxKBqIoWnWSQ+9HV4ToO1fOXSbTgz63V10+VOZbq2eGeqHaVOpBTqQVK7eCvXjbFCwdTWMaGtHsAK1iMHll7za02nbL1UvkQEBAQEBAQEBAQEBAQEBAQEBAQEBAQEBAQEBAQEBAQEBAQEBAQEBAQEBAQEBAQEBAQEBAQEBAQEBAQEBAQEBAQEBAQEBAQEBAQEBAQEBAQEBAQEBAQEBAQEBAQEBAQEBAQEBAQEBAQEFSesx8g6H70i/R7C1tX8PldJyv/kW/RPpq5oVe7t0z6tDdNh3T9dk5j/wIArDS/D5XB8zz/cx+iPTZbK2XOCAgIBAI0PSEBAQEBAQEBAQEBBF908s9l7otsu5nH99bjaIxPHJJE4sHU13dubxaeNY75VbbVhpOKZ+nru5dsK+SWftvZ22dtQOhwmPjptk0717dXSP06uOR5c92njKmtIrsYdTrc3PnHMtNv47G5X21RAQEBAQEBAQEBAQEBAQEBAQEBAQEBAQEBAQEBAQEBAQEBAQEBAQEBAQEBAQEBAQEBAQEBAQEBAQQ7e/NPb+zLMMOaq3Wx2BrBahha+F5HW0P4x5w7QUGPsznJsrd2WOKxck8d3u3Sxx2YxH3gb7oMIc7UgdOngQTlAQEBAQEBAQEBAQEBAQEBAQEBAQEBAQEBAQEBAQEBAQEBAQEBAQEBAQEBAQEBAQVJ6zHyEofvSL9HsLW1fw+V0nK/wDkW/RPpq5oVe7t076tvzfz/vGb4KJWGl+HyuC5m/yY/RHplaq2XOiAgICAgICAgICAgICAgICAgICAgICAgICAgIDnNaCXEADrJ6kHxHYglJEcjHkdYa4H6SD7QEBAQEBB+FzQdCQCgcbPrh7aAHNJ0BBKD9QEBAQEBB+FzR1kBA42fXD20DjZ9cPbQfqAgICAgICDFyGVxeNjbJkbkFON54WPsSMiaXaa6AvI1KD7o5ChfgFijZit1yS0TQPbIzUdY4mkhB7oCAgICAgICAgwZc/goZO6lyNWOUHTu3zRtdr5C7VBmRyRyMEkbg9julrmkEEeIhB9ICAgICAg1u4tuYfcWInxOXrts05xo5p6HNcOp7HdbXN7CEHNuS5K7l2numO1i9wYyr6NKLGMnu2m1py0HoL43DQ/Wu06D9BB0xhrdi3iadqwIhPNCx8vo8new8TmgkxyD3TD9SfAgzEBAQY9vJY6mAblqGsD1GaRsev2xCBUyOPuAmnaisgdZhkbIB9qSgyEBAQEBB+cbNdOIa+DVB+oCAgIPwvYDoXDXwaoP1AQedixXrQPnsSshgiBdJLI4MY1o6y5x0ACDFx+dwmSe+PHZCtdkjHE9leaOUtHVqQwnRBnICD8LmjrIHlQfneR/XD2wgd5H9cPbCD6QEBAQfj3sjaXPcGtHW5x0HtlB8Q2a0+vcysl06+Bwdp7SD0QEBAQEBAQEBAQEBAQEBBU/rLN12FUPgycJ/4E4Wtqvh8ro+WP8mf0T6auZVXu8dO+rb838/7wm+CiVhpfh8rguZv8mP0R6ZWqtlzogICAgICAgICAgICAgICAgICAgICAgICAg/HOa1pc4hrWjVzj0AAdpQVFvfnU+OaShtnhPAS2TJPAcCf/AEWnoPvne12oKvt5HP5yz/aZ7OQnd0hhL5T9i3p09gIl8TYbO0mieejarNb0iV8UkYHj4iAgkG2+aO7MJIwelOvUx7qraJkGn81589vi0OniRC9No7xxO6Md6XRcWSx6CzVfp3kTj4fCD2O7UFdc96N2zkcSa9eSYNhlDjGxztNXN69AUFVT4+/XZ3k9aWFmunHIxzRr4NSES869WzYcWV4XzPA1LY2lxA8Og1QSnl7i8nFvXESS1JmRtnBc90bwAND1khEPvm584WW/7f8ARokEXjx2QlYJI6sz2O9y9sbiD5CAiX67GZNjS91SZrW9JcY3gD2dEG625zA3RgZ2Oq3HzVgfPpzuMkTh4ACfN8rdEQ6D2lunH7lw8eRp+YSeCxATq6KQDpafD16g9oQc9cwvltmvjT/poNOzGZJ7Q9lSZzHAFrhG4gg9RB0RL9/VOU/6Of8ANv8A9CB+qcp/0c/5t/8AoQTHnACM9jARoRiqwIPvpEQhcNC9Mzjhryys6uJjHOGo8YCJfZxWUA1NOcAdZ7t/+hBsMFvHcuCna+heljY0+dWeS+J2nY6N3R/Kgv8A2HvenuvFmdrRDfr6NuVtdeEnqc3+a7To9pEJMgICAgIOWvWV3Z+tN4w4SB/FVwsfDIB1GzOA+T7VnA3xHVBu/Vc3Z3VzJbWnfoywPTqIP+8YAyZo8bm8J+xKDopAQcD1/wC+IvjDfu1A74UggjvMf5vtzfuu58A9ByZyi+cvbvxxn8qgdXcwt/YrZOAflLwM0zz3dKm06PmlI1016dGjrc7sHj0Ckco7w5p723bZeL16SOpIdI8bVLo4AD1N4GnV58b9SgwIOX2+54PSIdu5KSEjUPbUnII8I83p9hQPjDbk3ftHIk463axduJ34WueJgJ8EsL/Nd5HNQdRcn+bNffGPkrXGMrZ+k0OtQs9xLGTp30YOpA16HDsOnhUjQ+s5Ru3NpYplSvJYe2+HObExzyB3Mg1IaCg5rmwmagidLPQsxRMGr5HwyNaB4yRooGNXr2LMzYa8T5pn68McbS5x0Gp0A1PUEG4w+3883LUnOxtoNFiIkmCTQDjH81B3QpBBxbzc3Z/iffuSvxv46cL/AESiR0juYCWhw8T3cT/ZQXr6tm7P1rsyTCzv4reEk4GA9ZrzEvjP2LuNviACC3UHxNNDBDJNM9scMTS+SRxAa1rRqXEnqACDmLmZ6wmdy1ubHbWmfjcQwlnprPNsz6dHEHdcTT9SG6O8J7AFZ0dv7u3DI+zSx17KvcfwliKKWfU/zngO+iVA+buG3VtyxHNcpXsROD+Bmljlru1/mOIb9BBb3KPn9lIchXwe7rBtUrDhFXykn42F7uhomd9Wwn6o9I7SR1SOkEBAQEHEvNBzm8yNxuaSHDI2CCOggiQqB0lyQ5lN3ftwVb0gOexjWx3NT500fUyce+6n/wA7yhSLIQEEU5mb8p7L2vPk5OGS7J+Bx1Y/7Sdw6NR9az3TvF4yEHHEV+5kdxR37srp7dq02WeZ3W575AXE+yg7yQEFO+sxuz9W7Sr4GB+lnMy6zAHpFaAhzvJxP4B4xqgpXkzuz/DO/wDHWpH8FK470K72Du5yAHHxMkDXHyIOzEBBzn61v96be/IWfu40FIVsbkbTC+tVmnYDwl0cbngHr01aCoHr+os5+zrP5mT/AEIM7Bbx3dtq0H4rJWaL4z50Ace7JHY+F2rHeRzVI6f5Pc3q+96klK8xlbcFNgfPEzojmj1072MHUjQkBzez2egLFs2a9WvJZsyNhrwtMksshDWMY0auc5x6AAEHO3Mb1kr808uO2YBXqtJa7LSNDpZOzWFjhoxvjcCfeoKdsXN0bluF08t3MWz06OMth/T4B5xCgfNjB7mxPDZs4+7j+HpbPJDLDp5HENQTXZXPjfO3Jo47dl2ZxgIElW44vkDf/TnOr2nwa6jxKR0/szeuC3fhmZXES8UZ82eB+glhk01LJG9Oh+gexBBfWY+bdvx+D7mRBXHqtfLjJ/ux/wCkQoOnkBByr6zXzjRfu+D7uVBbfq4/NjW+NWfu0FnoCAgICAgIKt9Y9nFy9YfrL8Dv6Eg/lWtqvhdDy1P9z/pn1OX1Xu+dNerU7XYNsfW5KYf8GE/yqw0vw+VwfM8f3Mfoj02WwtlzggICAgICAgICAgICAgICAgICAgICAgICAgqnnZvKWrAzblKThlss7y+9p6RETo2PUfX6au8XlQQzlvy6l3RZdatl0OHru4ZXt6HSv6+7Yezo90UF+YnCYnEVRVxtWOrCPqYxoTp2ud1uPjJQZqCB775V4jOVZbWNhZSzDQXMdGAyOY/WyNHRqfruvw6oKZ2vuDI7U3HHaDXMdA8w3qp6C5gdpJG4eEadHgKDp6tYhs14rMDg+GZjZInjqc141afZBQQHnj8i2fHIvuHoIdyF+U1/4kfhY0F5oOcObnzhZb/t/wBGiQXRyz+QmH/In7tyCToKs5zbJx7sS/cVGFsFus5vpndgNEsb3BvEQPqmuI6fB1oI1yNy8tbdE2NLvwF+Bx4OzvIfPafteJBGeYXy2zXxp/00HRG0PknhPiFX4FqDbICCheevyxr/ABGL4WVBPuSvyGi+MTfTCCeIIFzW2Tj8rgbWVghbHlaMZn75gAMkbBq9j9PdebqW+NBV3KbLy47e1JgcRDe4qszfCHjVntPDUHRyAgICDXbjzlXBYG/mLX4ihA+dzddC4tGrWDxudo0IOK8Pj8nvTesFV8hdezdwusTaa8JlcXyyaeBreJ2niUD7weRyOyd817T2ltvC3DHaiH1QjcY5mfZN4moO3alqvbqw2q7xJXsMbLDIOpzHgOa4eUFSPVBwPX/viL4w37tQO+FIII7zH+b7c37rufAPQcmcovnL278cZ/KoEv8AWby9i1vyDHOcfRsdTj7tnZxzEve72Rwj2FIn/q47EwtfasO654GT5W/JKK8zwHGCKKR0WkevuXOcxxLuvToQXOghnNHlzjd6besQGGMZmGMuxl0gNeyQdIY5/X3bz0OHs9YQVfyx5JcxNq7zx+bnlpNqwucy5GyZ7nOhkaWuAAj0JGuo6esIOg0EM5yfNhuH4t/rtQc38gvnawX/AHf6HMg7DQEEK5xbs/wzsDI3I38F2030KiR0HvZwRxDxsZxP9hByfs7Z2S3TbvVqI86jSsXn9Guohb5rB43vLWhBIeRu7P8ADvMGiZX8NLJ/2C1qegd8R3bj72UN6fBqg7EQVv6weXsY7llebA4sfflipueOsMe7iePsmsLT5UFDci9l4zde+G1sozvaFCu+7NXPVKWPYxjHafU8UgJ8OmiDr6CvBXhZBXjbDBEA2OKNoaxrR1BrRoAEHnfx9HIU5aV6vHaqTtLZoJWh7HA9haUHNu5PVn3S7cF39QPqjCuk4qXpEzg9rHAHgcAx58wkt17dEHQm1amWp7bxlPMPZLk61aOG1LG4va98bQ0uDnBpPFpqehBtUBAQcSc0vnG3J+8LHwhUDD2Xu3J7S3JVzVEnvK7uGeAnRssLvxkTvE4e0dD2IO19vZ7G5/C1MxjZO9p3IxJG7tHY5rh2Oa7Vrh4VIzLVqvUrS2rMjYa8DHSTSvOjWsYNXOJPYAEHGnNfmFY3tuiS40ubiqusOLgPRpFr0yOH18h6T7A7EEVxYIylQHoInj+7Cgd8qQQcbc6t2f4k5gZCeJ/HSon0GnodRwQEhzh4nyFzh4kGj3ls7JbVvU6l8aSXKVe6zo0075mrmHxskDm+woHW3Kbdn+KNh4zIyP47kTPRbxJ1PfwaNc4+N40f7KkS9Bzn61v96be/IWfu40En9Vr5D5P95v8A0eFBcqCEc0+W2H3ht+1rXY3NwROfj7rWgSd4watjc4dLmP6iD1dY6UHLHLXOz4LfeEyMTi0NtRxT6dsMzu7lH2jigtb1lOYkz7bdmY6UtgiDJsu5p929wDooTp2NGj3eMjwII5yX5MHdzv13m+OLb8Ly2KJpLX2ntPnNDutsbepzh29A7SA6exGFxGGpspYqnDSqs9zDAwMb5Tp1nxnpQZjmtc0tcA5rhoWnpBBQU/zY5EYfNUJ8ttmqyjnImmQ1YQGQ2dOkt4B5rJD9S4dZ6/CApDlVvu3srd0FqRzm42w4V8tXOuhiJ04+H66I+cPZHagvj1lXNfy1Y5pDmuvVy1w6QQWSdIQVz6rXy4yf7sf+kQoOnkBByr6zXzjRfu+D7uVBbfq4/NjW+NWfu0FnoCAgICAgIK19YSLj5bWXf7uzXd7b+H/WWvqfgXvLk4aqPFLldVz0J0n6ssmuy8lH9bknu+2ghH+qt/SfDPjcLzRH79Z/J65W+tpzQgICASACSdAOsoOaeYXPrct3L2Ke2rXoGJge6OKxE1pln4Tp3he4Hhaetobp0dar83UTM9Gx3fDuX8qlItmxvXnq6o8CxuQm889uTAZBuZsG3PRsNZFYcAHFkjNeFxaBroQenr6VsabMm0dKk5g0WXkZlflxhFo2LQWw58QEBAQEBAQazcO5cHt3HuyGZtsqVQeEOdqXOd18LGNBc53iAXza8VjGWxptLmZ9t3LjGWHtHfW2d21pp8Ja770dwbPE9pjkZxe5Ja7sdp0FRTMi2xk1mgzdNMRmRhi36+2mICAgICAgICDlveeSkym7cpbJLu8svZF2+Yw93GPtWhB0jtnCw4TA0sZEABWia2Qj6qQ9MjvsnElBs0BAQQnP8o9r5vLT5SzJahsWSDKyB8bWFwAbxaOjedTp09KCU4TEwYjFVsZXkklgqs7uJ8xDn8IJIBLQ0dHUOhBCuePyLZ8ci+4egh3IX5TX/iR+FjQXmg5w5ufOFlv+3/RokF0cs/kJh/yJ+7cgk6CF83srXo7IuQyOHfXiyCBnaTxhzj7DWlBV3JepJPvqvK0ebVhmlkPiLO6+nIEGm5hfLbNfGn/TQXBtvmbsept3F1LGUbHYr04Ipmd1MeF7ImtcNQwjoIQbH+K/L/8AazfzM/8AVoM3Eb+2jmLzKGNyAsW5A4siEcrdQ0cR6XMaOoeFBUvPX5Y1/iMXwsqCfclfkNF8Ym+mEE8QaHfmVr4zaOUsTuA4q8kMTT9VJK0sYB7LvaQUFy4qSWt8YeOMallhsx97CDIfoNQdNoCAgIKQ9Z/dnomDobZgfpNkX+k22g/7CE+YD4ny9P2CCNeq9tf0rPZHcczNYsdEK1Un/fT9LyPG2Nuh98g03rIbY/VW/P1nEzhrZqET6joHfxaRyge01x98gtn1dN2frnYrcZM/iuYN/ozgTqTA/V0B8gHEwe9QWog4Hr/3xF8Yb92oHfCkEEd5j/N9ub913PgHoOTOUXzl7d+OM/lUCwvWh2tahztDcsUZdStwipYeB0MniLnN4j/PY7o96VI1PKLnn/g7HHCZepJcxAkdJXlgLe+hLzq9oa4ta9pPne6Gh160FxUPWD5W2g3jyclR7vqZ68w08rmNkb9FBLcJvXaOcIbicxUuSHp7mKVhl9mMnjHtIN0gIIZzk+bDcPxb/Xag5v5BfO1gv+7/AEOZB2GgIOY/Wb3Z6fuept2B+tfER95YAPQbE4DtD72Ph08pQTX1Ytr+hbVuZ+Zmk2Wm7uAn/p6+rdR76Qv18gQUZzO207bG/MtjI2mOBk5npadGkM34SMNP80O4fKEHWfLPdQ3TsnF5dzg6y+IRXfCLEXmSa+DiI4h4igwOcu17W5OXuSo02GS9CGWqsYGpc+B3EWgdpcziA8aDlXYO9slsvckWZpxtmLWuhtVnktEsLyC5hI6WnVoIPYR29SgdE4n1leXVyJpvel42X6tssJlaD4nQl5I+xCkSrF82uW2Uc1lTcFQPd7ls7jWJJ7AJxH0oJXHJHIxskbg+Nw1a9pBBB7QQg+kBAQEHEnNL5xtyfvCx8IVAnfNnlpwbOwG9MXF5j8dSjzMTB1O7hjWWNPH0Nf7B8KkeXq+czP1Bmf8ADmTl0w+UkHcPcfNgtO6GnxNk6Gu8eh8KCSesfzM0B2Xipek8MmZlYfsmV9fac/2B4UEa9X3lp/iDN/4hyUXFh8VIDCxw82e0NHNb42x9DnePQeFBWNf+/wCL4234RQO9FIiXNXdn+F9i5PJsfwW3R+j0fD383mMI950v9hByryq2x/iXfuKxsjeOqJfSLmvSO5g/CPB9/pweyguz1n9sembaobghZrLi5u5sOH+4saAE+9ka0D3yCJ+rDuz0PcF7bU79IcnH6RUBPVYgHnAe/i1J96g6XQc5+tb/AHpt78hZ+7jQSf1WvkPk/wB5v/R4UFyoI7v7eOO2nti5lrcrWStjc2lCT50tgg92xo6z09J8A6UHHWxMVLld5YahGNe9txGQ/WxscHyO+xY0uUDzyNq5und89jUm1mbxMevY6xLoxvkHEAg7eweHpYXD08TSZwVaULIYh4mDTU+N3WfGpGagICCr896u2w81mbmWmnv1570rp5oq8kLYg951cWtdC8jU9PWg1nrAY2PF8oqONilkmipWaleOWYh0jmxRva0vLQ0F2g6TogqnkNvPbu0903r+dsmrVmougjeI5JdZDNG8DSNrz1MKC9P8wXKj9sP/APFtf1aB/mC5Ufth/wD4tr+rQUFzx3bgd070Zk8JYNmkKcUJkLHx+ex7yRwyNa76odiC8/Vx+bGt8as/doLPQEBAQEBAQQHntD3nK7MEdcZrPHsWYwfoFYdR8ErngFsNXTy/9MuS1WPRnRPqwy64DNQ/WW43/bx6f6i3tJslxPNMfuUn8vrXSttywgICCLc0r12jy9ztmkHGw2q5gLPdNbIRG940+sY4u18Sx504VlYcKy631NIts3nGyqnp7qX1e9vWMVsQWrLDHNlZ3WmNcND3PC1kfR/O4S4eIqx01cK+N5/zFqYzNRhGykYeXrWathQCAgICAgICDkjnPuy1uDfN+MyE0MXI+nTi181vdHhkePG97SdfBp4FWZ9963iekcE0cZOnrOHvXjGfLs7oZ/q+Wr8XMirDXcRXsQTsutHUY2xl7df/AKjWKdNM77DzFSs6WZnbExh3+zF1QrJ56ICAgICAgICDlC8HU8/YEo86vbfxjxskOv0kS6tjkZJG2RhDmPAc1w6iCNQUQ+kBAQEBBXvPH5Fs+ORfcPQQ7kL8pr/xI/CxoLzQc4c3PnCy3/b/AKNEgzcDzhz2Fw9XF16dWSGq3gY+QScRBJPTo8DtQZr+fO6S0hlGk13YS2U6f8RBDM7uLPbmyLJshK61YPmV4GN81vEfcxxt8PtlBd3KnY8u3MVJavt4cpf4TKzrMUbelsfl6dXe12IKb5hfLbNfGn/TQZ1LlRva7TguV6bHV7MbJoXGaIEskaHNOhdqOgoPf+Dm/v8Aoo/z8X3yCTcuOXG7MJuyrkcjVZFUiZK172yxvIL4y0dDST1lBqOevyxr/EYvhZUGu2rzUzW28Q3GVKtaaFr3SB8okLtXnU+5e0INuefW59OihSB7CWyn/mIIhufee4NzTMdk5+KOM6w1ohwRMJ7Q3p1PjJJRK1eTuw7OKifncnEYrtlnd1IHjR0cR0Jc4Hqc/QdHYPKiFnICAgIOKea27P8AFG+snk2P46bZPRqPaO4h81pHvzq/2UFrcpubXLXaGyqmKs2JxkHufYvlld7mmaQ9QI6+FjWt9hBredvMzl9vTbEEGMnmdlqNhstbvIHMBY8cErOI9Wo0d9igi3IHdn6h5gVq8z+GlmB6DNqegSPOsDvL3gDfI4oOu0HA9f8AviL4w37tQO+FIII7zH+b7c37rufAPQcmcovnL278cZ/KoHZWWxONy+Onx2Trst0bDeGaCQatcOv2CD0gjpBUij9zeq1WlmfNtvLejscdW07rS9rdewTM87TysJ8aCEXvVv5m1ie5hqXdOruLDW6/nhEgiG4OX+99stE+XxNinE0jS0AHxB2vR+FiL2A+DzkFm8lOdmYgy9Tbe5LLrmPuPbBSuzHilglcdGNc89LmOPm+d7nw6IOlEEM5yfNhuH4t/rtQc38gvnawX/d/ocyDsNBh5rLVMPiLuVtu4a1GF88p7eGNpdoPGdNAg4VzWWtZjMXMrcdrZvTPnlPYHSOLtB4hroFA6V23zz5UYLAY/D1rNnuaEEcAd6M8cRY0Bzj43O1JUirueu89l7vv4zKYGWV9yGJ9a4JYnR6xh3HEQT16Fz9UEk9V3dncZPI7XnfpHcb6ZSB6u9jAbK0eN0eh+xQdHIKu39yA2rui1LkaUrsNlZiXTSwtD4JHnpLnwkt849pa4eE6lBVeS9WLftdxNK1Rux/U6SPiefK17OEfbIIzleSXNDGxulmwUs0TeniqvisEgeBkTnP/AKKDC2XzF3dsnIg0LEgrsfpaxU5d3L9D5zXMPuHfzhoUHYW1Ny4/c23qWcoE+jXY+MMd7pjwS18btO1jgWlBtkBAQcSc0vnG3J+8LHwhUDrvalOrd2BhqduJs1Wxiq0U8Lxq17H12tc0jxgqRyXzR2Ba2VumbHnifjp9ZsZYP1cJPuSfr4z5rvb7UGt2ptvMby3RXxdZzpbd2Qvs2pCX8DNeKWaRx6Tp19J6T0dZUDtTbm38bt7CVMNjY+7p04xGwdrj1ue7wuc4lx8akcO1/wC/4vjbfhFA70Ujmv1oN2elZuhtmB+sOOZ6VcA/38w8xp8bIun7NBpeRO9tlbPs5PJZ6aVl+wxleoIonScMWvHISR9c4N9pBZW6ueHKrP7byWFms2Qy/XfCHGs/zXuHmP8AsX6OQc37ezVrB5yhmKh/tFCdk7B1B3A7UtPicOgqB3VislVymMqZKo7jq3IWTwO8LJGhzfoFSOffWt/vTb35Cz93Gg8uVh3Q3kduWXbD5GZiHJd7CYdO84GR13ShgIOp7sO6O3sQV+ecfM49B3Da/ofeoNO+beO8coxj33c5kXebG0mSw9oJ7B08DfaCgdE8nuS0216NnK5nhO4bkD4YYWkObVjkGhHEOgyO+qI6AOgdqkc6bRsx4/eOFs2fMjqZGrJNxdGgjna52vtKB3WpBAQEBBVHrMfNu34/B9zIg502TsXO7yyU2Ow3dekQQmxJ3z+7bwB7WdB0d06vCgTT/LVzK8FH/wAg/eKQ/wAtXMrwUf8AyD94gg+8tmZnaGXGKy/deluibOO5fxt4HkgdOg6fNKgdL+rj82Nb41Z+7Uiz0BAQEBAQEEQ5vQd9y1z7OvStx/m3tf8A6qxZ3wSs+DWw1WX43Hiq3pi+/Vcn8zccB7DUe0eXvgfpBbuk63H811/pz+r1L3W45AQEBB8yRxyxujkaHxvBa9jgC0tI0IIPWCiYmYnGFcV/V/5ew5w5MwzyQ8feMxj5AarXa66acPGW/wA0v09ha8aauOK8tzDqZy9zGMfxdfs8yyGtaxoa0BrWjRrR0AAdgWwopl+oCAgICAgICDlDdPJ/mE3ct9tfEy24Z7Msle1EWOjex7y5ri4u83oPSHaKtvkWx2PRdJxnTfKrjeImIjGFu8leVFzaMdnK5ng/XFxghZAwh4gh1DnNLh0FznAa6dHR1rZyMnd6Z2ua45xeupmKZfwV88rSWy58QEBAQEBAQEHPHODb0mK3dNba3SplP7TE7s7zqlb5eLzvZQWPyh3pBl8JHiLMgGTxzBGGk9MkDehjx4eEea72+1BYCAg8rdutTrS2rUjYa8LS+WV50a1o6SSg5s3hvHJbg3JYuVJpoq73CKnAxzmnu2+a3zWn3Tus+MoOgNn4ifEbaoULD3SWo4w6w9xLj3ryXvGp69HO0CCK88fkWz45F9w9BDuQvymv/Ej8LGgvNBzhzc+cLLf9v+jRIJtszlRtTL7Xx+SuCx6TZjL5eCQNbrxEdA4T4EG7HJLZAOulo+Izf/pQSHA7H2tgXd5jaDI59NPSH6yS9PXo95cW6+JBvUHMPML5bZr40/6aDojaHyTwnxCr8C1BtkBBQvPX5Y1/iMXwsqDZ8uOWm2twbZZkcgJ/SXSyMPdycLdGHQdGhQSn+COyfBa/PD71BusHy72hhJWz0se02WdLbExdK8Hwt4yQ0+9AQSRAQEBBBudO7P8ADXL/ACFiJ/BdvD0GlodDxzghzh42Rhzh4wg5U2NsvKbx3BFhcc5kcr2Plknl17uOOMalzuEE9LiGjxlQLM/ysbs/bFD2pvvFIf5WN2ftih7U33iCq9y4DJ7V3JbxFt3Ddx0oAlj1APQHxyMJ0OjmkOCgdmbA3RHujZ+LzTSO9swgWWj6mePzJRp79p08SkcTu1q5c98C0wWPwg7RwP6fpKB3tFLHLEyWJwfHI0OY9p1Ba4agg+NSPpBGOaFmCty63JJM8MY7HWYgT9fLGY2D2XOAQcp8n43v5m7dawakW2uIHga0uP0Ag6I3pz521tLcVnBXsfemtVRGXSwti7twljbIOEuka76rQ9HWgmWzt1Y/dW3amdoNfHXt8ekUnDxsMbyxzXcJI11ag3KDyuV6tmpNXtsZLVlY5k8cgBY5jho4OB6NNEHBVnu4cpKaDiYo53eiPHuuFr/wZHj6lA75jLjG0vGjyBxDx9qkQ3nJ82G4fi3+u1BzfyC+drBf93+hzIOw0FM+s3uz0Da9Xb0D9LGXk7ywAekV4CHaH30nD7RQUpy45XZzfc11uPmhqw0WsMs8/Hwl0hPCwcId06NJQTn/ACsbs/bFD2pvvEH471WN3BpLcvQc4Dob+GGp8HuEFW7czF/au66eSDHMt4qyDNCehx4HcMsR983iaVA6/wB5cysHtbbNLcViGe7jr74mV3VQwkiaJ0rHnjcwcJaxSNZy95zbd3xlbGMx9WzVsQQ+kf2nuxxtDgw8PA9/UXBBP0BBy16zlXGQ77qyVWsZbsUWPvBmg1cJHtY52n1RY3TyAILJ9WKSd3Luy2TXgZkpmwa/Wd1C46fZlyC3EBAQcSc0vnG3J+8LHwhUDsHZHyLwH7tqfAMUjA5h8vcPvjCtx19zoJYZBLVuRgGSJ3U7TXrDm9BHkPYgweWnKfCbEjtuqTPu3bhAkuSta1wib1RtA10HF0nw9HgCCboOC6/9/wAXxtvwigd2ZLIVcbjrWQtv7urTifPO/wADI2lzj7QUjhrM5LJbp3RZvOYZL+WtExwjpPFK/SONvk1DQoFqD1WN2kDXL0Ae0fhvvFI/f8rG7P2xQ9qb7xBBOY/LDN7Es0osjNFZivMe6GxBxcHFGQHsPGGnUBzT7KC8vVo3Z+s9oT4Kd+trCyfgges1pyXs8vC/jHiGiCKetb/em3vyFn7uNBJ/Va+Q+T/eb/0eFBE+f/KP9XTS7uwUP9gmdxZWqwdEMjj+OaB9Q8+68B6eo9AabkVzYbtbIfqPLvAwN+QFs7v/APGmd0cZP+7d9V4Ovw6h1U1zXNDmkFpGoI6QQUHGnOfaUu2t/ZGEMLaV95u0XfUmOZxc5o94/ib7CDojkrzGrbu2vDXsSj9e42NsN+Jx857WjhZOPCHj3Xgd7CCw0BBhZrM43C4qzlMnO2vSqMMk0rvAOoAdriegDtKDjXcW8dzbv3jYt1JrLJspZbHSpRSPHC1xEcMYDSBrw6A+E9KC7OeOHOF5LYzFOlM0lOepFLM4lxfI2N/G/U9PnO1KCGeq18uMn+7H/pEKDp5AQcq+s1840X7vg+7lQW36uPzY1vjVn7tBZ6AgICAgICDRb9r+kbH3BDpqX461w++ELiPor4zI92fE3OH23dRlz+evpcVKpepro9WGzw7hzVbXplqMk0/JycP/ADFt6SemXLc01/apP5vV9jopbziRAQEBAQEBAQEBAQEBAQEBAQEBAQEBAQEBBot57SpbnwslCc93M095UsaamOUDoPvT1OCDnPIY3P7VzQjnElLIVnccMzCQCOoPjcPdNP8A8iiVg4HnxdhhbDmqAtOaNDaruEbj43RkcJPkI8iIba1z9wrYyauLsyy9jZXRxt18rTIfoIK63fzF3Buf8Fae2vQadW0odQzUdReT0vPl6PAEE05TctbAsQ7izMJjZHo/H1XjRxd2TPB6gPqR4enwahNN88xau0rFSGak+0bTHPBY8M4eAgdoPhQVnv7mnU3Rg242GhJWeJ2Td4+Rrho0OGmgA+uQaTl5vKDamVsXZqzrTZ4DCGMcGEEva7XUg/WoLQ2/zno5nNVMWzGSwvtyCNsrpGkN1GuugCCtubnzhZb/ALf9GiQXRyz+QmH/ACJ+7cgk6AgIOYeYXy2zXxp/00HRG0PknhPiFX4FqDbICCheevyxr/EYvhZUE+5K/IaL4xN9MIJ4gICAgICDl71mN2frHdlfAQP1rYaPWYDqNmcBzvLwx8A8R1QTf1Y9pClty3uSdmljKv7mqSOkV4CQSPfy66+9CC6kBBz160e0uGXG7qrs6H/2G8R9cNXwuPlHG0nxBA9VzdnDLk9qzv6Hj0+iD9cNGTNHlHA4DxFBE+fPLi7t3c9jN1YS7B5aV0zZWjVsNiQ8UkT/AK3V2rmeLo7EHpy79YHPbXoQ4nJVhl8XAAytq/u54mDqY1+jg5rexrh4tdEFhS+tPtIQcUWHvun06I3GFrNffh7j/RQVNzK5y7i3u1tOSNuPw8bg9tCJxeXuHU6WQhvHp2DQDxaoJ76t3Li628d55KExQMjdFiGPGjnukHC+Ya/UhhLW+HU+BBn+sjy4u3xDu/FwmZ9WLucrCwau7phJZMAOsN1If4BoeoFBVnLfm3uLY0kkNVrLuKndxz4+YkN4tNC+N41LHEDQ9BB7Qgt+D1qNqOgDp8PfjsadMbDC9mvvy9h/ooIFzC9YbPbloTYrFVRiMbYBZYfx95YlYegtLwGhjXdoA18eiDX8kOW13dO5q+SswluBxkrZrMzh5sskZDmQN+u1OnH4G+UIOieZnMarsTE1cjYpPvNtT+jiON4YQeBz9dSD9agp7e/rFYzce1Mlg4sLPXkvxd02Z0zHBp4gdSA0a9SCsOXe64dp7xx+4Jq7rUdLvuKBjgxzu9gfENHEHq7zVQLwqetJiLNuGuMDYaZpGxhxnYdOMga+58akVDzk3Z/ibf8Akbcb+OlUd6FSI6R3UBILh4nv4n+yg6R5I7S/w3y/oslZwXsiPTrmo6Q6YDgafexho08OqCeoCDk31iNpfqTfb8jCzhpZxvpTCB0CcebO3yl2jz75BNeW0cfMbkzkNnTyhuTxDg2nK/p4RqZazj/N1D4j/NQUpWs7n2TucSM7zG5vGyFrmuHSD1EEHVrmPafIQoF24H1qKRrtZn8LK2w0aPmova5jj4RHKWFv25Ujz3D61EBrvj29hnidw0ZYvPaGsPh7qIu4vtwgpYN3RvbdH+0yebycnSe0nq1OmjWMY0eRo8Sgdj7A2jBtLadDBxOEj67C6zMOqSaQ8Ujhr2cR0Hi0UiQoCAg4k5pfONuT94WPhCoHYOyPkXgP3bU+AYpG6QEBBwXX/v8Ai+Nt+EUDpb1lN2fqvZsWEgfw2s3JwvA6xWhIfJ9s7gb4xqpFYerltL9c73/Ws7OKng2d/wBPUbEmrYR7Gjn+VqDq1AQV7z12l/iLl/cdCzivYr+31dOsiIHvW+zGXdHhAQc88k92f4b5g0JZX8FLIH0G5r0DhmIDHH3sgaSfBqgnnrW/3pt78hZ+7jQSf1WvkPk/3m/9HhQXFPBDPDJBOxssMrSyWN4Dmua4aOa4HoIIQckc6OVM2zMv6bQY5+3b7z6K/pPcSHpMDz9FhPWPGCgnXq/83eIQbNz0/nDRmGtyHrHZWeT/AMP7X61BZfNXlvT3zt/0XibBlanFJjbbh0NeR50b9OngfoNfB0Hs0QcmvZuzY+5dD32JzdF3QR0HQ9o62vY4eVrgoFwbc9aeeOBkO4sP38rRo63SeGcXjMMnRr5H+wpG0yPrVYJkJ/VuDtTTaeaLMkcLQfGWd8UFO775nbs3vZYMnMGU43a1sbXBbC1x6AdNS57/ABuJ8WiC4uQ3JyzipI917igMV8tP6soSDR0IcNDNID1PIOjW/U9vT1BvPWY+bdvx+D7mRBXHqtfLjJ/ux/6RCg6eQEHKvrNfONF+74Pu5UFt+rj82Nb41Z+7QWegICAgICAgxsnW9Kx1qrpr38MkWnv2lv8AKomMYZMq27aJ7JcLKnetrS9XG13PMJ8WunpNGeIDwkPjk/5a2NLPvOf5lpjpsey0euHUCsXACAgICAgICAgICAgICAgICAgICAgICAgICAg1+awGHzdT0XKVWWoetvENHNJ7WOGjmnyFBXeT5CYuWQvxuTlqtPSIpmCYDxBwMZ9vVBgwer/Lx/h800M7QyuST7cg0QTLbXKraeDkZYELr1xnS2e0Q/hPhYwAMHiOhPjQTBBDN/cuBu6zTmOQ9C9EY9nD3Pe8XGQdfds06kEU/wAvrP26f/F/+8gf5fWft0/+L/8AeQbLbnJZuFzlPKDMGf0SQSdz6PwcWgI04u9dp7SD13byebuHcNvMHLGt6V3f4D0fvOHu4mx+67xuuvBr1IJptnCjB4KnihN6R6Iws77h4OLVxOvDq7Tr8KDZoCAgrHcHJRuYzd3KfrgwemSul7n0fj4eLs4u9br7SCw8RQ/V2JpY/j730OCKv3unDxd0wM4tNTprp4UGWgIIHvrlY3dWYjyRyZp8EDYO67jvdeFzncXF3jPr/Ag3+y9rDbODbixZ9L4ZHyd9wd37s66cPE/q8qDeoCAgICAgorL+rFPlcpbydvdRfauzPnmd6D9XI4uOn9o6unoQXPg8PUw2GpYmoNK1GFkEXhIY0DiPjPWUGcgINLvPa1TdW2b+CtP7qO4zRk4bxGORpDo5A3VuvC5oOmo16kFZbP8AV1n2xuXH52ruYyS0pQ90XofCJIyC2SMu786cbHEa6ILgvUaV+pLTuwR2ak7SyaCVoexzT2OadQUFQbl9WLal+Z8+EvTYd7zr3Dm+kwD3oc5kg+3KCMM9VPLGXR+4YGxa+6bXeXae9LwPooJxtH1c9k4SZlrJOkzduMgtFgBlcEdvct14vI9zh4kFqNa1jQxgDWtADWgaAAdQAQfvX0FBWO8fV82NuCeS3Ua/DXpCXPfU4e5c49roXeb9oWoIHJ6qWQEuke44nRfXOqua7T3okcPooJJtv1Ydp0JmTZq9Pl3MOvcNaK0J98GufIfYeEFv0MfRx9OKlQrx1akDeGGCJoYxo8AaOhBEuaXLcb8w9THHIHHei2PSO9EPf8XmOZw8PHHp7rr1QVn/AJT4/wD+0H/wR/8AuED/ACnx/wD9oP8A4I//AHCD6j9VPupGyR7pLZGEOY70HqIOoP8A7hB7431V6VfIVrFvcBt1oZWST1fQwzvWNcC5nF37uHiHRroUF7gADQdAHUEBAQQ7mfy3p78wkGPmteg2K0wnr3BH3pb5pa9nDxR9DgfD1gII/wAsuSdjYuekycOfN2CeB0FioavdBwJDmu4u+foWub9b4UEr3ny52lvCAMzVMPnYOGG7Ee7sRjwNeOsfzXAjxIKlyfqpsMpdi9wlsRPmxWa/E4DxyMe0H7QIPrFeqnXbK12W3A+SL6qKrAI3EeKSR79PtEFubP5f7U2jWdDhKTYZJABPaeeOeTT6+Q9On80aDxIJEgICAgpPdHq1Mz248lmTuI1zkLEljuPQ+Pg7x3Fw8Xft108OiC38Jjf1XhaGM7zvvQa0NbvdOHj7mMM4uHU6a8OumqDNQEBBQ8fqtMZkG2/8Sk8Mol4PQvA7i0179BJOZfJCxvncIy0+4DThihZBWqCr3oY1urnHj75mpc9xPufF2IJLyy5dU9iYKXGQ2fTZ7Ezp7Fwx90XEgNa3h4n6BrR9d4UEvQEH45rXNLXAFpGhB6QQUFEXvVWpzXrE9TcTqteSV74K/ofGY2OcS1nH37eLhHRroEEq5h8mJ97QYUXM6YLOKrGCawKvH373BvFJw983g1LNdNT1oN5yu5dDYeDs4sZD9Y+k2XWu+MXc8PFGxnDw8cmv4vXXVBMkGBnsFi89iLOJykInpW2FksZ6/CHNPY5p6QewoKRPqpRtl44d0PjAdxR/2MFzdDqPOE7ekeHRBdu36OToYetTyd/9aXIGcEl/uu5dKB0Nc5nHJ52nWdenrQYm6tlbY3VTFXOUI7bW691KdWyxk9scjdHN9vQ9qCo8v6quKklc/EZ2atGTqIbULZ/Y42Oh+5QYdP1UX94Dd3GO7HW2Gr5xHvnS9HtFBZWy+TGxtpystVKrrmSZ0tv3CJZGnwxtAaxnlDdfGgnKCKcy9iDe+3BhTd9AAnjsd+Iu+/Fhw4eHjj6+LwoI5yu5KN2HnLOUGYOR9JrOq9ya/c8PFIx/Fxd7Jr+L000QWcgIKr5mci2733G3MnNHHltdlfuBW773DnO4uLvY+vj6tEEt5c7JGzNsRYMXPTxHLJL6QY+517x2unBxSdXlQSdAQEBAQEBAQcOZ+p6FnslT009GtTQ6fk5HN/kVPaMJl6zp772XW3bWJ8yU8k7novM7CPJ0bI+WF3j72B7B/SIWXInC8K/jlN7SX8k90w66Vm82EBAQEBAQEBAQEBAQEBAQEBAQEBAQEBAQEBAQEBAQEBAQEBAQEBAQEBAQEBAQEBAQEBAQEBAQEBAQEBAQEBAQEBAQEBAQEBAQEBAQEBAQEBAQEBAQEBAQEBAQEBAQEBAQEBAQEBAQEBAQEBAQEBAQEBAQEBAQEBAQEBAQcb81afofMXcEWmnFckm0/L/hf9dVWdGF5en8JvvaXLn8uHd0Nfsq96DvDB3CdGwX6z3n+aJW8X0FGXOFoZtdl7+RevbWfQ7YVs8qEBAQEBB4uvUm2m1HWIm23jiZXL2iQgdoZrxFRi+4y7Yb2E4dr2UvgQEBAQEBAQEBAQEBAQEBAQEBAQEBAQEBAQEBAQEBAQEBAQEBAQEBAQEBAQEBAQEBAQEBAQEBAQEBAQEBAQEBAQEBAQEBAQEBAQEBAQEBAQEBAQEBAQEBAQEBAQEBAQEBAQEBAQEBAQEBAQEBAQEBAQEBAQEHK3rCUfRuZNmbTT0ytXn8ujO5/wCUq3Ux770LlzM3tLEfhmY9frVu1zmODmnRzSC0jsIWBezGLufFXW38ZTvN9zagjnbp1aSMDv5VcROMYvJM2m5ea9kzDKUsYgICCDc4N92Nn7UNmkAcldk9GpucARGS0udKQevhDegeHTsWHPzN2q24NoI1Odhb4a9M+xyg/K5OTJfrN9qV2R7wTemF7jL3gOofx6666qtxnHF6LGTSKbmEbuzDqdk7BzlvO7NxGWuNDbVqu10+g0Be0lpcB2cRbxK1y7Y1iXmHEMiuTn3pXZEt+vtpiAgICAg8rluCnUnt2HcFetG6WZ5+pYxpc4+wAomcH1Sk2tFY2y5R3zzm3buS9KKtuXF4kOIr06zzG4t7DK9hDnuPaNeHwBVuZn2tPZD0XQcEycisYxF79cz6ljerzzAzeWnubcys77gqwelU7Mri6RrGvbG+Nzj0uGsgLderp7NNNjTZkz0So+Y+HZeXEZtI3cZwmPWu1bblBAQEBAQEBAQEBAQEBAQEBAQEBAQEBAQEBAQEBAQEBAQEBAQEBAQEBAQEBAQEBAQEBAQEBAQEBAQEBAQEBAQEBAQEBAQEBAQEBAQEBAQEBAQEBAQEBAQEBAQEBAQEBAQEBAQEBAQEBAQEBBzz6z+P4M1g8jp/7itLXJ/ISB//AD1o6uOmJdryrmY5d69kxPf/ACUmtR1TsLlDkf1hy3wM2upjr+jHxejOdD9KNWmTONIeZ8YytzVXjw49/SmCyqwQEBBVnrEbcyGW2bXtUYXTyYyyJpo2Aud3L2FrnADpPCeHXxala2prM16HQ8t6muXnzW04b0YeVzptrbeW3HmK+KxkLpbE7gHOAJbGzXzpHkdTWjpK0aUm04Q7bVaqmRSb3nCI/jB2lhsXWxOIpYut/wC3pQR14iestjaGgnxnTUq2rGEYPLc/NnMvN522nFmKWIQEBAQEEd5i17ljYefgpsdJYkoztZGwaucCw8TQB1kt16FjzY92W7w21a6jLm2zehxeRp0FVT1J0L6tuz79KtkNx3YXQC61legHgtc6IHjkkAP1LncIafEVvaWkx0uL5m1tbzXKrOO70z4+pdq23KCAgICAgICAgICAgICAgICAgICAgICAgICAgICAgICAgICAgICAgICAgICAgICAgICAgICAgICAgICAgICAgICAgICAgICAgICAgICAgICAgICAgICAgICAgICAgICAgICAgICAgICAgICCn/WZxxm2ljb7Rq6pd7t3iZNG7U/bRtWrq492JdNyvm4Z1q9tfRLm1aDuXS/q15P0jZdyg46vo3XcI8EczGuH9MPVhpZ93BwnM+Vu58W/FX0fxC21subEBAQEHxHBDEXGONrC86vLQBqfCdETNpna+0QICAgICAgIMJ+Cwj7PpT8fWdZ1178wxmTXw8WmqjdhljUZkRhvTh45ZqliEBAQEBAQEBAQEBAQEBAQEBAQEBAQEBAQEBAQEBAQEBAQEBAQEBAQEBAQEBAQEBAQEBAQEBAQEBAQEBAQEBAQEBAQEBAQEBAQEBAQEBAQEBBjZPJUsZj7GQvSiGpVYZJpHdQa36Z8AQQ7l/zIye8rU74MEaeIrktORkscXE76ljYxENXadLvP0b4erUJ0gICAgICAgICAgICAgICAgICAgICAgICAghPOjG/rDlpmmAavgjZZYfB3EjXuP2gcsOfGNJWvBM3c1dJ7ejvhyGqx6Uuf1Y8t3O4sti3HRtyqydoPa6u/h0H2MxW1pLdMw5fmnJxyqX/DbDv/AJOi1vuIEBAQEBAQEBAQEBAQEBAQEBAQEBAQEBAQEHnYsV60L57ErIYIxxSSyODWNA7XOOgAQQjJc7eXdGUxDIOtvadHejRPkb7DyGsPsFB+Y7nfy6uyiJ199RzuhpsRPY32XNDmj2Sgm9W3Vt12WaszLFeUcUc0Tg9jh4WubqCg9UGp3Duzb23Y4ZM1dbTZYLmwlzXu4i0An3DXeFBpP4wct/23F+bm+8QP4wct/wBtxfm5vvEEtq2YLVaKzXf3kE7GyRPGoDmPHE09PhBQeVnJ4+tbq07E7YrN0vFSJx0MhjHE4N8YB10QZKAg1e4Nz4Lb1aOzmbbacEr+7je5r3Av0LtPMDuwINlHIySNsjDqx4DmnwgjUINDnt/bQwF0UsvkmVLTmCUROZI48DiQDq1rh1tKDXfxg5b/ALbi/NzfeIMrF8zNi5S/Dj6GWjnuWHcMMIZKC46a6auYB1BBJ0EVu809gUbk9K3mI4rVaR0M8RZKS17CWubqGEdBCD4j5scupCA3OQAn64PaPbc0IJLQyWPyNZtqhZit1n+5mge2Rh+yaSEGQg1O4d17e27HDLmbjacdhxbC5zXu4i0akeY13hQaT+MHLf8AbcX5ub7xA/jBy3/bcX5ub7xBLKtqC3VhtV395XsMbLDINQHMeA5p6enpBQeqAg8btytSpz3bTxFWrRvmnkOpDY42lznaDU9ACDFwefw+do+nYmy21U4zH3rQ5o4m6ajRwae1BsEGNjcnQydKO7QnbZqy693Kw6g6HQjxEEaEIMlAQanDbr2/mrVuri7jbNig7gtxta8FjiS3Q8QAPSw9SDOyGQp46jPeuyCGpWYZJ5SCQ1reknQAlBFv4wct/wBtxfm5vvED+MHLf9txfm5vvEEjw2bxeax7Mhi7As05C4MmaHAEsPC7ocGnoIQeO4Nz4Lb1aOzmbbacEr+7je5r3Av0LtPMDuwINF/GDlv+24vzc33iB/GDlv8AtuL83N94glVC9Uv0oLtOQS1bLGywSgEBzHjVp0Oh6Qg90GJk8tjMVVdbyVqKnWb0GWZ4Y3XwDXrPiQQm5z25dV5Cxlyazp0F8MD+H23hiDMxHOTl5k5WxMyjasrugNtMdCPt3Du/6SCaMeyRjXscHscAWuadQQeoghB+oMDN57EYOgb+VsirUa5rDK4OcOJ3UNGhxQR4c3+W5OgzcXssmH02INhjOYOycpO2vRzNWWd50ZEXhj3HwNa/hJPkQSBAQEGLlMrjsVSkvZGwytUiLRJNIdGgvcGt9tzgEGUgIPOxYhr15bEzuCGFjpJHnsa0ak9HgAQRL+MHLf8AbcX5ub7xA/jBy3/bcX5ub7xBIMDuLC5+k67iLTbdVkhidK0OaA9oDiNHhp6nBBsUBAQRKfmzy8gnkgmzMbJYnFkjTHN0OadCOhnhQfsXNfl3K4Nbna4J+v42D23NAQSandp3a7LNOeOzWk6Y5oXtkY4eJzSQUHsg1OU3Xt7FZKnjMhcbBevua2nAWvJkL3cDQC1pA1cdOkoMDfOym7tpQY+xkJqdCOQS2IIA3WYj3Ic53Y3p06Ovp7Ag29KjisFiGVqsTamOoxHRjQdGsYNXE9ZJ7SesoPLAblwe4Kj7mHtNt1o5DC+Roc0B4aHFvnhp6nBBs0EWyHNHYWPuz0bmXjhtVnmOeIslJa9p0I1DCEHrjuZOxMjO2Cpm6zpnnRjHu7ouJ7B3gZqUEkQEGpv7r29QzNXC3LjYcpdDTVrFryXh7ixuhDS3pc0jpKDbICDwvXatClPdtyCKrWjdLPKQSGsYOJx0Gp6AEGPhM7ic5QbfxVgWqbnOY2Voc0FzToRo4NKDPQCQBqegDrKCG5rm9y/xMroJso2xOw6OjqtdPoR2cbAWa/ZINfV58cup5Ax9qesD0ccsD+H+hxoJtiszisvUFvGW4rlZ3R3sLw8A+A6dR8RQZiAgICAgICAgIMTL4+PI4q7j5PxdyCWu/XwSsLD9NRaMYwZMnMml4tH3Zie5w1LFJDK+KQcMkbix7T2OadCFTvWomJjGEv5P5j9VcxsLOXaRzzeiSeAiy0xDXyOcCsuRbC8K3jOT8zS3jsjHu6XYKtHmYgICAgICAgICAgICAgICAgICAgICAgICDxu3K1KnPctSCKtXY6WaV3U1jBxOJ8gCChuLdHOHcMzI5n47aVF/V1j+bq0HR8zh0+Bg/pBZ+E5SbAxMDY2YmG5IB5891osPcfCQ8Fg+xaEHrluVewMnC6OXC165I6JajBWe0+EGLhB9kFBBcLsrfuw941a+3nPyu2sg/wDtEcp4WRsHujL9Sx7W+5e0ed1adiC5UFM+smAaOBB6jPP9yxBM/wCDnLX9iM/Oz/1iB/Bzlr+xGfnZ/wCsQS+rWgq1oatdnBBAxsUTBqeFjBwtGp6egBBT/rHWJ69Xb1iCR0U8ViZ8UrCWua5rWEOBHUQUEm5VcyY900DRyBEO4aLdLURHD3rW9Hetb5eh47D4ignyCpPWQ+S2M+PD4F6C08b/AHdV/Ix/chBps/y/2fuC6L2YxzbdprBEJXPlaeBpJA0Y9o63FBTu5NlbXqc48Nga9FseItRROnqh8hDi7vNfOLi76kdRQW3i+WGxMVkIchj8UyC5XdxQyiSZxadCNdHPI6j4EEoQUJs3a2B3FzW3hWzNQW4IbFqSNjnPZo/0vh18xzT1FBYsvJflpIwt/UwZr1OZPYBH/EQV2Mfa5X8zsbVx9mSXAZt0bHwyHXzZH92Q7TQF0TiHNdp1dHhQX0gpn1lf7qwf5eb7hqCZ/wAHOWv7EZ+dn/rED+DnLX9iM/Oz/wBYgl1SrXqVYaldnd167GxQxgk8LGANaNTqegBB6oCDR77+RG4f3Zc/R3oIj6v3zfj45P8ASagspBzFy05kWtpZqeG3xybftzltpoBPdSEnSVnj0HnDtHjAQdM1rNezXjs15GywTND4pWEOa5rhqHAjrBCD0QU3yN+Vu9PjDfhp0FuZHH08jRnoXYxNUssMc8RJAcx3QRq0goK235yt2FjdnZe/SxLIbdas+SCUSTEtcB0HRzyEGr5R8udl5zZFXI5XGNs3JJZmvmMkrSQyQhvQx7R0DxILXwuDxWEx8eOxdcVqURc5kILnAF5LndLy49JPhQVl6yHyWxnx4fAvQSDHcoeXMuPqyyYZjpJIo3Pd3s/SS0En8YgyP4Octf2Iz87P/WIJZQoVMfSgo04xFVrMbFBECSGsYNGjUknoCDW7w3RR2xgLOYuec2EcMMIOjpJXdDGDynr8A6UFN7Z2TuXmfeO5d1XJIMOXOFSCPoLmg6FkDXatZGNNC7Qkn20FrY3lhsDHwiKHBVJQBoX2YxYcfGXTcZQa7P8AJnYWXhcGY9uOsEeZYpfguE/kx+DP2qCNbG2rzL2fuyPDRStyG1JQZHzyOIiYwHpLGnidHLqfcDzXfRAW6grnn783s3xmD7ooPLZvKrYF/aWGvW8QyW1ZpQSzymWYFz3xhzjoHgdJPYg+N08h9oW8XOcHXdjsmxhdXc2WSSN7wNQx7ZXP6HdWrdNEH3yI3ZkM5tmxSyEjprOKkbE2Z51c6F7dYw4nrLS1w18GiCy0BBR/PzcFzJZKls7FNdPLGDbuRR9LnPDC6Nmg+tj4nkeMIJtya3b/AIh2bAyZ/FfxmlS1qekho/BPPvmdvhBQTpB52K8NmvLXmbxwzMdHKzpGrXDRw6PEUEBz/KXl5WwWSswYdjJ4Ks0kT+9nOj2Ruc09MmnQQghvJLYO0dw7Ut3czjm27Ud6SFkjnytIjbDE4N0Y5o63lBcWA23hNv0nUcPVFSq+Qyuia57gXuAaTq8uPU0INkgICCgeVe0Nubj3PutuapNuNrWAYA58jOEvll4vcOb18IQWPPyV5azRlv6o7skaB8c9gEeMfhCPbCCAbfr3+XHNivtyGy+fB5ngMcch6dJi5kbiB0cbJGcJI6x9AL2QUzzc+dPZP5ev+ltQXMgwNw/3Bk/ik/wbkFcerj8i7/7yk+AhQWsgofa+2MFuLnBu2pmagt14nWJY43Oe3R4sMbrqxzT1OKCX7k5E7Ku42cYmq7G5AMJryslkewvA1aHskc8cJPXpoUHjyC3Pfy+17FG7I6aTFStihlcdXdzI3VjST18Ja4DxaBBZ6CmeYnz5bR/JVv0mZBcyAg0HMH5C7g/d9n4JyCNchPm7r/GJ/u0FiIKM3hujcXMPdMmztrSmHDwFzb1sEhsgYdHySOb/ALIHoa0e6PsaBNttcldj4eBnpNQZW4B+EsWxxtJ7eGL8WB5QT40G5vct9hXYTFNgaTWkaawwsgd7D4gx30UFbZrljunZWYgzewJZrMMkjY58a88TtHHQNf7kSRdPST0t69e0BdFR9h9WF9mMQ2HMaZomu4wx5HnNDtBxaHt0QeqAgICAgICAgION+aeI/VPMLO1AOFhtOnjHZwWAJmgeQSaKqzq4Wl6fwnO+ZpqW/Lh3dCM17EtexFYhdwywvbJG4djmnUH2wscS37Vi0TE7JdxYXJxZTD0cnD+Ku14rDAOwSsD9Poq4rOMYvJs/KnLvak/dmY7mYpYhAQEBAQEBAQEBAQEBAQEBAQEBAQEBAQVxz8yktLYD4Y3Fv6wtQ1XkdfDo6Yj2e60Qb3lbhIMRsPEQRNAfYgZbnd2uksNEh18gcG+QIJUgICAgpn1kzpQwJ8E05/osQZ3+Y/Z/7PyH2kH9agf5j9n/ALPyH2kH9agtGjbjuUq9yMFsdmJkzGu04g2RocAdNenpQU/6yv8Ad2C/LT/csQZfNDYWQp2499bT1gy1PSa9BEPxgA86Vre06fjG/VDx66hM+Xm/cfvDCi1FpFkINGX6mvTG8/VN16Sx2nmn2OsIIb6yHyWxnx4fAvQWnjf7uq/kY/uQgyEFMbv/APyB29+Rh/5yC50BBQG0934DbHNXd9rNWDXgnsWoo3CN8mrvSi7TRgceoILAm56ct44y5l+WZw6mMrzAn7drR9FBBaVnJc0eZNDKwVJK23cK9ju8kHZE/vNHEeb3krtBwg9DUF8oKZ9ZX+6sH+Xm+4agzv8AMfs/9n5D7SD+tQP8x+z/ANn5D7SD+tQWjj7kd6hWuxAtjtRMmY12nEGyNDgDpr09KD3QEGj338iNw/uy5+jvQRH1fvm/Hxyf6TUFlIKC5NbZxe5MVu7FZKPjgllrFjx7uOQd/wAMjD2Ob/8ALqQZ+yty5Xl1uN2y90v1w8zuLG5A6iNgefNcCeqN590PqHeygu4EEajpBQU3yN+Vu9PjDfhp0FyIIzzN+b/PfE5PpINJyI+bil+WsfClBYKCpPWQ+S2M+PD4F6D4pesRtGClXgfj8gXRRsY4hkOmrWgHT8Kg9v8AMfs/9n5D7SD+tQWbh8nDlcTSycDXMhvQR2ImP0Dg2VgeA7Qka6HwoKh59Sz5PcO2NsRvLI7coe/TtfPK2Bh+x8720Fx0aVajTgpVYxFWrRtihjHU1jBwtHtBB7ICAgIK55+/N7N8Zg+6KDC2fzh5f47auIx9zIuitVKcEM7O4ndo+OMNcNWsIPSEHlunn7tuPGzQbdE17JzNMdZ5jdHGxzugOPHo5xHWAG9KDZcj9nX9vbZmsZKN0F7KSCZ0Dxo9kTG6Rh47HHVztPH4UFjIMLN5eph8Rbylt3DXpxOlk8J4R0NHjcegeNBU/JDEW8zmctvzKt4rFqV8VPXqDnnWVzdexrdI2+LUIMOh/wD875xyUz+CwG4dO67GM71x7vxfgptWeJp1QXigINZuj5M5f4lY+Ccgr71cvkRe/ecv6PAgtRAQEBBz5yy3ttza2590vzVl1dtuxpAWxySamOWXi9w12nuggsKzz25cRRF8d2aw4DURx15Q4+Id41jfooIbtYZfmLzOh3a+o+rgsTwiu5/b3XEY4w7qc8yO43adAHR4NQvNBTPNz509k/l6/wCltQXMgwNw/wBwZP4pP8G5BXHq4/Iu/wDvKT4CFBayDnvFb3xG0ObW6r+UjnkhnksQMFdrXu4jO1/SHOZ0aNQbTdvrCVbmMmo7cpTw2bLTF6ZbMcfdh40Lmta5418BLhp1oJtyc2lBt7abXCzFbs5F/pFieu9skQ6OFsbHt1DuEdZ8JKCdIKZ5ifPltH8lW/SZkFzICDQcwfkLuD932fgnII1yE+buv8Yn+7QSXf8Ak5sXsrNXoSWzRVZBE8dbXvHA1w8hdqghnq9YSCps6XKcI9JyVh/E/t7qDzGN9h3GfZQWkgICAgICAgICAgICAg5u9ZjD+j7qx2Ua3SO/V7tx8Mld/SftJGLQ1VfeiXc8r529k2p+G3p/lKnlqumdVcgM5+s+Xlau92s2LlkqP16+HXvI/Y4ZA32FZaa2NPE885hyPl6mZ6rxE+r1LIWdRiAgICAgICAgICAgICAgICAgICAgICAgrnn5jJbvL+SaMF3oFqGy8Dr4dHQk+x3uqDf8ssxBltiYaxE4F0VaOtMO0SV2iJ2vl4dfZQSdAQEBBTPrJf8AscB+Xn+5Ygtr9S4f/oK/5pn+hA/UuH/6Cv8Ammf6EGW1rWtDWgNa0aADoAAQUz6yv93YL8tP9yxBcsf4tvkH0kFL792rldiZ9u+dps4aJd//AClBv4toefO1aP8AZPP2jukeIMXnJurF7n5eYbK45+scl4NmhPu4pBC/ijePCPojpQXZjf7uq/kY/uQgyEFMbv8A/wAgdvfkYf8AnILnQEFC7N2zhNxc0N7UstWbZh7y4YyfdMc60W8bD2OAPQUGDgMTh9jb8k2/u/HVb2MuuBx+TswseGgnRj/OBHCfcvB9yenq6w6ErVq1aBkFaJkMDBoyKNoYwDxNboAg9EFM+sr/AHVg/wAvN9w1BbX6lw//AEFf80z/AEIH6lw//QV/zTP9CDLa1rWhrQGtaNGtHQAB2BB+oCDR77+RG4f3Zc/R3oIj6v3zfj45P9JqCykFL+rl7vc/5at/zkFh792Njd34R1GzpHbj1fRt6auik0+i13U4fy6IINyv3xksPkzsLdusN+q7usbZkPQ4fUxFx6wR+Ld2jo8CDx5G/K3enxhvw06C5EEZ5m/N/nvicn0kGk5EfNxS/LWPhSgsFBUnrIfJbGfHh8C9BYuKw+IOLpk0a5JgjJJiZ9YPEgyv1Lh/+gr/AJpn+hBlsYyNjWRtDGNADWtGgAHUAAgpXn1FYxm49s7nYwvjqyBrtOx9eUTsH2WrvaQXLSu1r1OC5VeJa1mNssMg6nMeOJp9ooPZBWe6+Vu68zuC5k6W658fVsOaY6bO+4Yw1jWkDhlaOkt16kFe8xNrbr2Xjqtqbd1u5LbmMUddsk8Z4WtLnP1Mruhvmj2UF9bVgtV9s4mG45z7cdOBtl8hLnmQRt4y4npJ4tUEN5+/N7N8Zg+6KCHZ3lRUyfLXC5zA1Wx5iChBPahjH/umuia5507ZAekeHq8CCXcncjs3N4htmniaVHPUgGXxFDG1+vZKx2nFwv8AL0HoQWSgIKc59Z+5clxuycU0zXb72TWYWdbvO4YIz2dLtXHXq0BQYODm58YTE1cVj8BWZUqM4IgRCSenUuce/wCkuJJKDS7/AMfzfz+OZZ3Bg4o4MWJJxYg7sPYzh1k9zK8lujQegdiC3+V+7BubZ9O7I/ivQD0a94e+jAHEfft0d7KCWINZuj5M5f4lY+Ccgr71cvkRe/ecv6PAgtRAQEBBQ/KPbeBze6N2DL0Ybwr2AYRM3iDS6abi018OgQWxDy+2NC4OjwFDiHUTXjd90Cg30UUUUbYomNjjYNGMaA1oHgACD6QU1zcGnNHZJPV39fp8ltqC5UGu3I4N29lHHqbUnJ9iJyCvPVyYRsm64/VZKXT2IIUFqIKS2Jjcdf5y7vivVYbcTfSHNjnjbI0O9JYNQHAjXQoLLyPLrY2QgdDYwdMBw044YWQyDySRBjh7aCr9rx3eXvNlu1orD58FlwHQxvOpHeB3dP06uNr2cBI6x7GgXkgpnmJ8+W0fyVb9JmQXMgINBzB+Qu4P3fZ+CcgjXIT5u6/xif7tBJd/4yXJ7KzVGFpdNLUkMTB1uewcbWjyluiCH+r5mILeyn44OHpGNsPa9nbwTHvGO8hJcPYQWegICAgICAgICAgICAgqv1jcJ6bsWPIMbrJi7McjneCKb8E4fbuYtbVVxrj2Oh5az9zUbv4488dPtcwqvd8ub1Z8/wCjbhyWEkdozIQCeEH/AHtc9IHlZIT9itrS26Zhy/NGn3squZH3Zw8kujFvuIEBAQYWazOOwuLs5TJTCClVYXzSHwdQAHaSegDtKi1oiMZZcjItm3ilIxtKlI/WcL8/G12JbHgTIGPkLy60GE6d5oPM6Ovg9jiWp9X07Oh1U8rYZfx/uebxfb5l6wzRTwsmheJIpWh8b2nUOa4agg+AhbjkbVmJwna+0QICAgICCtuZnOrGbOt/qqrW/WOY4Q+WMv4IoQ4at7xwBJcR08I7O1a+bnxXo617wvgd9TXfmd2nnk5Rc2Lu958hVu0Y6k9JjJWSQucWOa8lpBDtSCNPD0pk52/tOMcIrpIrNbTMW7VkrYUQgICAgICAgIPC9Sq3qU9K3GJa1mN0U0Z6nMeOFw9ooKIrWdx8ndxTQTwyZDaV+TiZI3t8Dmn3LZmt6HNPQ4ewQFr4XmZsXLwNkrZivG5w6YLLxBKD4OGQt19jUIPXK8xNkYuB0tvNVega93DI2aQ+SOLjd9BBAsTzH3rvPeVZm1K3ou3ab/7dNaYHNew+6MhHuXae4Yx2vaTp1Bb6CmfWTIFHAE9Qnn+5Ygm/8XeXH7ch+0l+8QP4u8uP25D9pL94glleeGxBHYhdxwzNbJG8dRa4ag9PhCCm/WV/u7Bflp/uWILmj/Ft8gQfk0MU0T4ZmNkikaWSRuALXNcNCCD1ghBzRza5b29qWXWcdxu21dlD2M1JEEwB0Y/2HHgcezo8odI43+7qv5GP7kIMhBTG7/8A8gdvfkYf+cgudAQUzys+d/ev5W1+mIJ9zE2LS3fgX0pOGO/DrJj7RHuJNOo9vA/qd7fWEER5Qb6u97JsncfFDm8brFVMp86SOPrjJ7XMHuT9U3ydIWsgpn1lf7qwf5eb7hqCb/xd5cftyH7SX7xA/i7y4/bkP2kv3iCV1rENmvFYgcHwzMbJE8dTmvGrT0+EFB6ICDR77+RG4f3Zc/R3oIj6v3zfj45P9JqCykFL+rl7vc/5at/zkF0IIPzQ5cV924wT1dIc7TaTSse54wOnunnwE+5P1J9lBCvV5hvQZndEV9r2XWGAWWy68Yk45eLi17dUF2oIzzN+b/PfE5PpINJyI+bil+WsfClBYKCpPWQ+S2M+PD4F6CR47mxy7ix9WKTNQteyGNr28EvQQ0Aj3CDJ/i7y4/bkP2kv3iCU0rla9TguVZBLVsxtlglGoDmPAc1w10PSCg1e8NrUN0YCziLnmtlHFDMBq6KVvuJB5O3wjUIKf2vvbcHLK8dsbsqSS4gOcadmPzuBpOpdEToJIyTqW9bT7SC2cZzC2RkoWy1c3UIcNeCWVsMg8scpY/6CDFz3NPYuFruknysNmVo82tUe2xK4+DRhIb9kQgrTA0M5zU3nDuHK1zW2vjXf2aB3S1/C7URNJ04y5w1kd4OjwIL2QVzz9+b2b4zB90UEn5ffIXb/AO763wTUFZ8xNu5LYu5ot+7aZpSkk0ytNvQwGQ+dqB/s5T9q/wBjQLY21uLG7iw1fLY5/HXsN1LT7pjx7qN47HNKDLyF+rj6Fi/bf3darG6aZ57GMBcfpIKd5P0LW6d5ZffuSZ5rZHRUWu6Q1726aNP/AKUOjPZQXUg/HsY9jmPaHMcCHNI1BB6CCEFI7Mc/YHNe7teZxbh80QaDndWriXVzqfsoj4XILvQazdHyZy/xKx8E5BX3q5fIi9+85f0eBBaiAgICCmeRPyp3l+XZ8NMguZAQEFU8+cDkpKeK3PjWF8+DlL5g0alrC5r2yaDsY9nT5UEl2pzW2dn6Mcpvw0LvCO/pWpGxOa/tDS8tDx4C32dEEd5rc08FBgbWDwtpmRyuSYa39mIlZGyUcLyXt1BcWkta0HXVBJeVW2LO3NlUqNtvBdl4rNpna18p1DT42s4WnxoJcgojau5cHt/nBu21mLbadeV1iKOR4cQX+kMdp5od2NKCwLvOnlxVhdIMr6Q8DVsMEUrnOPgGrWtHskIILslmV3/zNO856zq2Fxvm1Q7qJY0tijDu1wLjI/Tq6u0ILxQUlzTv1Mfzl2xduSiGrXgryTSu10a1tmYknTVBYH8WuXX7cg9qT71BtcDvDbW4JJo8NfjuPrhrpgwOHCHaga8QHXog8OYPyF3B+77PwTkEa5CfN3X+MT/doLEQUXurA7g5absk3Zt2Ez4C24+m1RrwRh51dE8D3LOLpjf9T1e+CwNt83tjZuux36wjx9oj8JVuuELmnwB7iGO8WhQbm7vjZ1KEy2c3SYwDXQTxucfetaS4+wEFa53m5n9yZiDB8u4HveJGvmyEkY0c1p+tePMi+uc7pPVoO0LhqiyK0QtFjrIY3v3RAhhfp5xYHEkN16tSg9EBAQEBAQEBAQardmFbnNs5PEuA1u1pIoyeyQtPA77F+hXzeuMTDZ0ef8rNrf8ADMOI3scx7mPBa9pIc09BBHQQVUPVonFu9j7gO393YrMa6R1bDTPp19y/zJR7MbnL7y7btolqa/T/ADsm1O2PP1ed2q1zXNDmkFpGoI6QQVbPK36gICCkfWdzM0WLw2HjcRHbllszgdvcBrWA+LWUn2Fqau3REOr5WyIm97z1REd/8nPYBcQ1o1J6AB1krRdo7b2fjrGM2nhsdY19IqUq8MwPY9kTWuHsEK3pGFYh5Trc2MzOvaNk2mfO26+msICAgIPK5Zjq1J7UuvdwRulfp18LGlx+komcH1Ss2tER1uIM5l7eZzFzK23cVi7M+aTt0LzqGjxNHQPEqi1sZxesZGTXKpFK7Kxgv31ZsC+vgcpm5G6frCZkEBPbHXB4nDxF8hH2K3dJXomXHc0ajezK5cfdjHv/AJLnW25YQEBAQEBAQEBB426dS5WfWuQx2K0o0khlaHscPAWu1BQQXJci+Xl2UyMpy03O6SK0zmt18TX8bR7CD8x/Inl5UlEklWa4W9IbYmcW6+MR92D7KCdUaFGhVZVo146taMaRwwtDGDyNaAEHug0+49obc3JHBHm6YuMrFzoQXyM4S4AO/FuZ4O1Bo/4M8tP2K38/Z/rED+DPLT9it/P2f6xBMK1eGtXirwN4IYWNjiZqTo1g0aNT09QQavce0NubkjgjzdMXGVi50IL5GcJcAHfi3M8Hag3AAA0HUEBBjZLG0cnRmoX4W2KdhpZNC/qcD9LxEdSD3jjZHG2Ng0YwBrR4ABoEH0g09vaG3Leer5+xTEmXqgNgtccgLQ3XTzQ4MPuj1hBuEBBp8XtHbuLy1zL0KYhyOQLnXJw+RxeXv7x3mucWjV3T0BBuEGiymxdq5TMRZm7QD8pBwGK2ySWJ4MZ1YfwbmalvhKDeoNPuPaO3dyRQxZqmLkddxdC0vkZwlwAJ/BuZ4EGj/gzy0/Yrfz9n+sQP4M8tP2K38/Z/rEEwrVoataKtA3gggY2OJmpOjGDhaNTqegBB6ICDxvUq16lYpWmd7VtRvhnj1I4o5Glrm6ggjUHsQYmB29hsBQ9AxFYVanG6Tug57/OdpqdXlx7PCg2KDT7e2htzbpsnDUxUNwtdZ0fI/iLNeH8Y52mnGepBuEBBiQ4nGwZKzkoa7Y71xkcdqduoMjYteDi7CW8R6etBloMbJY2lk6E9C9F31SywxzxElvE09Y1aQfaKDxweCxOCxzMdiq4rUoy5zIQ5z9C88Tul5c7pPjQZ6DVbi2tgNx1YquaqC3BC/vY2F72aP0LddY3NPUUGg/gzy0/Yrfz9n+sQP4M8tP2K38/Z/rEEto0atClXo1I+6q1Y2QwR6k8McbQ1rdXEk6AdqD3QYmUw+Ky1R1TJ1IrlZ3SYpmB418I16j4wgg13kLy8sSF8dexUB6eCGdxb/wATvEGRiuSPLzHytlNF917Tq30qR0jfZYOFh9kIJzDDDBEyGFjYoowGxxsAa1rR1AAdACD7Qa/O7fxGex5x+Wri1Tc5rzEXPZ5zeo6sLT9FBk0KNTH0a9GnH3VWrG2GCLUnhYwcLRq4knQDtQfVupWuVZqlqJs1adjo5onjVrmOGhBCDWbc2jt7bcc0WFqmpFYcHSxiSV7S5o0B0kc8A6eBBmZjD47M46bG5KLv6U+gmi4ns4g1wcASwtd1jwoPnC4PFYTHR47FV21aURcWRNLndLiXOJc4ucdSe0oM5AQaXO7N21nrVW3laQsWaX/tpg+SN7OkO6DG5nURqNepBukHnZrQ2q0tadvHBOx0crNSNWPHC4ajQ9IKDA29tnB7dpPpYaqKlWSQzPjDnv1kc1rS7WRzj1MCDZoCAgINPg9o7dwVq5axVMVp77g628PkfxkFzgdHucB0vPUg3CAgIBAcC1w1B6CD1EIIJmeSfL/KWHWPQn0pXnV/okhjaSf5hDmN+xAQZu2OVWytuWW3KNIy3Wfi7VlxlezxsB0a0+MN1QS5AQRPI8qdgZG9Pfu4ls1uy90s8pmnbxPcdSdGyAD2Ag86/KHlxBIJGYOIuHSBI+aRvste9zT7SCWVq1etAyvWiZBBGOGOKNoYxoHY1rdAEHogj+4dgbR3Fcju5nHi3ZijELJDJKzSMOLg3SN7R1uKDV/wZ5afsVv5+z/WINxtzZG1ttyTyYSiKb7Ia2YiSV/EGklv4xz/AA9iDa36NTIUbFG5H3tW1G6GeLUjiY8cLhq0gjUHsQY2CwGIwOPbj8TXFWm1zntiDnv0c46uOry4/RQbBB+Oa17Sx4DmuBDmkagg9YIQQnM8meXuUldM7HeiTPOrn1HuhH5saxj2GoMCryC5ewyB8kVqy0f7OWchp/NiM/RQTfDYDC4Sr6LiaUVKDrc2JoaXEdrndbj4yUGegICAgICAgICAgIOP+cG3/wBScwstXa3hgsyemV+wcFjzzp4mvLm+wqvPrhaXpfBtR83TUnriMJ8iGrEtHXvJ3cgz3L/GTvdxWabfQrXaeOABrSfG6Phd7KtMi29WHmvGtN8nU2jqt70eX7cU1WVVCAggvNLlZX31BSIumhcod4IpeDvWObLw8TXN4mHrYNCCsOdk7634VxadJM+7vVt5NiP7I9XvDYHKQZTK3nZWzWcJK8AjEULXtOrXOBc9z+E9I6QPEvjL00ROM9Ld13MeZnUmlK7kTt6cZW0tlzYgICAgIPmSOOSN0cjQ+N4LXscNQQRoQQUTE4TjChs56tFmbcDpMRkoa+DmfxujmD3TwgnpYwAcMgHZxOb4/CtK2l6eieh2GRzREZWF6zOZHZsn2LswOEoYPDVMRQZwVKcYiiB6zp0lzv5znauPjW3WsRGEOU1GfbNvN7bbM9fTCICAgICAgICAgICAgICAgICAgICAgICAgICAgICAgICAgICAgICAgICAgICAgICAgICAgICAgICAgICAgICAgICAgICAgICAgICAgICAgICAgICAgICAgICAgICAgICAgICAgICAgICAgICAgo31m9ucdTFbiib50LnUbLh9a/WSI+QOD/bWnq67JdbytqcLWyp6/ej0T6nP60nZLn9Wrc4q52/t6Z+keRj9Iqg/76AecB76M6/Yrb0t+nBy/M+l3suubH3eifFP2+l0Wt5xAgICAgICAgICAgICAgICAgICAgICAgICAgICAgICAgICAgICAgICAgICAgICAgICAgICAgICAgICAgICAgICCv8AmFzRk27lKWDw9IZXN2yC+rqfMa7oYPN6eN56h4OntCCa4l+Ukx0D8rHFDfe3inhgJdGxx+pDj7rTtKDLQEBAQEBAQEBAQEBAQEBAQEBAQEBAQEBAQEBAQEBAQEBAQEBAQEBAQEBAQEBAQEBAQEBAQEBAQEBBH9/7cG49n5TEBodNPCTW17J4/Pi/ptGviXxmV3qzDd4fqfkZ9b9UT0+LrcXOa5ri1wLXNOhB6CCFUvUolsNt5uzgs9QzFfplozsmDddOJrT5zD4nN1aV9VthOLBqciM7LtSdlowdtY+9WyFCveqv7ytaiZNA8drJGhzT7RVtE4xi8qzMuaWms7YnB7qXwICAgICAgICAgICAgICAgICAgICAgxMtlKeKxtjJXXmOpVYZZngFxDW9Z0GpKCFjnpy3/aEg/wC3m+9QZNbnPy1sODW5gRuPZLDOwfbOj4fooJZjcti8pWFnG24blc9HewPbI3XwEtJ6UGUgje6eYW1tr2YK2ZsvglsMMkQbFJJq0HTrYD2oNJ/HTlv+0Jf/AB5vvUH63nny4c4NF+XUnQf2ebt+xQT5AQR3dW/9sbWlrxZqw+B9prnQhsb5NQwgH3AOnWg0X8dOW/7Ql/8AHm+9QbPbvNHZu4sm3GYq2+a49rntY6GRg4WDU+c5oCCWINFubfG19tRh2YvsgkcNY641fM4eERs1dp4z0IITJ6xeyGy8LaeRewHTvBFCB7AMwKCS7Z5q7J3FM2tSviG4/oZUstMMjiexuvmOPia4lBLkGNkshVxuPs5C24sq1InzTvALiGRgucdB0noCCEjnpy3/AGhIP+3m+9QZVTnNy2tStibmGxvd0DvoZ42+y9zA0eyUEygsQWIWT15GzQSAOjljcHMc09Ra4aghB9oMXFZSjlcdXyNCUT07LA+GUdoPiPUQeghBlICDFu5ShRlqRWpRHJemFeq09b5C1z9Bp/NYUGUgIPK1agqVprVh4jrwMdLNI7qaxg4nE+QBB5YrKUcrja+SoSianaYJIZACNWnwg9II6iCgykBB43b1KjVkt3Z461aIayTSuDGNHjc7QIK+ynP3YFKV0cD7WQLToX1ogGa+WZ0WvsIPLH+sHsKzKGTtuUgeuSaFrmD8y+V30EFg4rMYvLU23MZaiuVX9UsTg4a+A6dR8RQMtlKeKxtjJXXmOpVYZZngFxDW9Z0GpKDx29uHF7gxceUxchlpylzWPc1zCSxxa7zXAHrCDYoIrufmdszbcjoMhfD7jeunXBllHicG+aw++IQVbt3mPysxG4rmc9HzN3KXXEvv3W1pHR8Xuu7Eb2cIPV1dXQOhBbm2N/bT3MC3EX2SzgauqvBjmAHWeB+hIHhbqEEgQEBBGN0cydpbYvx0MxafBZliE7GNikkBjc5zAdWAjrYUGpbzy5au68k9vlrz/wAjCgkO3977T3C4sw+TitStHEYfOZLp4e7kDH6ePRBvEEFs87OXlazLWmvSNlhe6OQCvMdHMOh6Q3whAi53ctJHBpypYT2vr2APbEZQS/FZjF5ao25jLcVys7oEsLg8ajrB06j4igy0GNkclj8bUfcyFmOrVj93NM4MaPZPagr3JesDsKpKY4BbvgdHeQRNaw/nnxO+gg9sTz62BflbFNJYxznHQOtRDg199E6UDylBYFW1Wt147NWVk9eUcUU0bg9jge1rm6goPVBC8vzf2JiclYxt67JHbqvMczBBK4Bw8YaQUGJ/HTlv+0Jf/Hm+9QSXa28MDuipNaw0zp4YJO6kc5j49HaB2mjwOwoNLl+b+xMTkrGNvXZI7dV5jmYIJXAOHjDSCgxP46ct/wBoS/8AjzfeoNjt/mrsrP5WHFYy2+W7OHGNjoZWA8DS93nOaB7lpQbvcW5sJt3HOyGXstrVweFuupc93Y1jRqXHyIIJX9YbYktoQyRXoIidPSZImFg8ZDJHv0+xQWNj8hSyNOK7RnZZqTt4opozxNcPEQg8c1m8VhMdJkcpZZVpxe6kfr1nqa0DUucewAaoK+b6w+xTa7kwXhFrp6SYo+Dy6CTj0+x1QWHiMzi8zQiyGMsstU5h5krD0dHWCD0gjtB6UGFund+C2vTit5mZ0EE8ndRuax8hL+Eu00YD2NQbaGVk0Mc0Z1jkaHsPV0OGoQfTnNa0ucQGgaknoAAQQTPc7Ng4iZ0Hpb8hMw6PZRYJQD+UcWRn2HINXU9YfYs0oZNBeqtJ/GyRRuaPL3cj3fQQT/B7iwedqel4i7Fcg6nOjPS0nse06OafE4INigwZc5i4cxBh5ZwzI2YnT14XajjYw6O4T1EjwdeiDOQEGj3HvTb+3bNGtlZ3Qy5JzmVA2N7+JzS0HUtB06ZB1oN4gIMDM57E4aKvLkrDa8dqeOrA52vnSynRo6PJ0nsQZ6Ag026d34La9OK3mZnQQTyd1G5rHyEv4S7TRgPY1BtoZWTQxzRnWORoew9XQ4ahB9oCAgICAgICAgICAg5J517W/UG/bojZw08l/bq2nV+FJ7xv2Mgd0eDRVmfTds9I4Hq/naauPxV92fJs8yBrCt3TPq67sGT2pLg53628O/SIHrNaUlzPtXcTfENFYaW+NcOxwfMmj+XnRmRsv6YWytlzggICAgICAgICAgICAgICAgICAgICCM8zfm/z3xOT6SCIcpNj7RynL/GXcjiK1q3KZ+8nkjDnu4bEjW6nxAAIJJc5QcubbC1+GiiJ6nQvkiI8nA4BBW+6uXmf5dT/AOKNn3pZKEJBuVpPOcxmv+0DdGyxeHo1b1+MBbmyN2U91bdrZeuO7c/VlmDXUxTM92zX6I8RCCsuctaC1zK2dWsRtlrzyQRzROGrXMfaa1zSPAQUFi/w12D+wKX5pqD9HLbYQIIwNIEdIPdNQSRAQUtz0hin3js+CZgkhll4JGO6Q5rp4gQfKEFifw12D+wKX5pqDMxey9qYm2LmNxVapaaC1s0UYa4B3QRqPCg0fNXfw2hgBJW4XZa8XRUGO6Q0gefK4doZqOjwkIInsPk2y80bi3uZL+Su6TClK52jQ7pBnOvE5383qHUfEFoQ7a27DB3EWLqRwAad02CMN08gboghW9eSe2M1XknxMLMRlQC6KSAcMD3DqbJE3zQP5zQD5epBruUm+8wclY2TuguGZo8Tas0p1fI2P3UbnfVFrfOa76pv0QnHMH5C7g/d9n4JyCv+S+zNqZbY8VzJYqtbtGxM0zSxhzuFpGg1PgQS7J8ouXt+s+E4iKs54IbPW1iew9jhwnTo8YIQQnktcyWE3fndj2ZzPVp97LWcepropGsJaPqRI14cR4QgtXc970DbeVva6GtTnlB8bI3OH0kFRervvDVtra1p/Vrax2p7P9tGPuwPfILvQEHP2/8AfvpvNrDxQSa47A3YYug9DpDK30h30OD2EHQKAgq3n1uiWngq+3KJLshmnhr2M6Xdw1w6NB0/hH6NHhGqDA5DZ23TkyeycqDFdx0j5a8Tj0gB3DNGOzzX6OGnXqSguFB43blalTnuWpBFWrRulmkd1NYwcTifIAgoaCHcXOLcs0ks0lDamPfo1g7AfcgD3LpnjpJPQ0ewCFt4LlzsrCQNipYmu57R02J2CaZx8JfIHHp8A0CDJyuyNoZWF0V7D1ZQ4acYiayQe9kYGvb7BQVvFyy3ds7eFS7sqfv8RceG3a1l/CyNg6S2b65umvA5reIH6IT3mb83+e+JyfSQabkX82+P/K2PhnINfzg39k8c+rtbbvEc9lOEOki/GRxyHgY1ngfIe36kdPaCg9Nj8kdv4muy3n4mZbMSefL33n143HpLWsPQ/wAbn66+AIJ1JtvbskHcSYuo+DTTunQRFunveHRBWu+uSlQMOa2Zx47L1fwzKkTi1khb0/gjrrG/waHh8nWg3vKPmHJuvEy1sho3OY7RlsacPeMPQ2UN7DqNHDsPl0QT5AQUnzNpVL3OzbFS3E2etPWrsmheNWuabE+oIQWO7lnsAjQ4Gn7EQH0kFY82+XuN2rWqbr2txY2erYY2WKN7i0F2vBIziJLTqNC3qIPthcO2cs7L7dxmUc0NfdrRTyNHUHPYC4DyFBTfKHbeBze5d3DLUIbwgstMImYH8PHLNxaa+HhCCzZ+VvL2eMsfgqoDhoTG0xn2HMLSEFY42hLy65xU8Pj53vwubEY9HedfMmc6Ngd4XRyt6HdfD5Sgu/JZCpjcfYv3HiOrVjdNM89jWDUoKLxWKz/N/cE2Uyk0lLa1GQsr12H2e7j183j4dC95HiHiC38NsTaGHgbDQxNaPhGhlfG2SV3vpH8Tz7aDHz/LjZecgdFdxcDJHDzbNdjYZmnwh7ACdPA7UeJBVMMuf5P7ohq2Jn3toZJ5IJHuRqA5wb9TLHqNdOh4/ohfMMsU0TJonB8UjQ+N7TqHNcNQQfGEFHbbwmIzHPDc9XK1Irtdsc8jYpmhzQ8SwgO0Pbo4oLO/hrsH9gUvzTUG2w+AwuGhfBiqUVKGV3HIyFoYHO001OniCCm9t4TEZjnhuerlakV2u2OeRsUzQ5oeJYQHaHt0cUFnfw12D+wKX5pqDKxuydo4u4y7jsRWq249RHPFGGvbxAtOhHhB0QVVzOhjzfOLAYLKvc3E8EIbHqWh3eucXaHwyOY1moQWdkOXuy7+MdjpcPVjrlvCx0MTI5GdHumPaA4H/wCCg1vLTl/c2bWvVpcm67WsTF9avw8LI2jUB3T08b26cWnR5etBB+ebnX957WwdyV0OInewzPB0AM04ikd4NWMHR4NUFmP5f7KfjP1acLU9E4eANETQ8dGnEJAOPi/ncWqDS8u+Ws+zsjlHx5N9jG23f2WiR0NaNCHyE/7Qe583QEdJ8ACPesh8lsZ8eHwL0Fo4n+6qf5CL7gIKb31uDP783c7Y225TDjKzi3J2gTwvMZ0kc8jrjjPmhv1TvYQT3a3KbZe367A2jHeuAfhLttrZXl3ha1wLWfYj20G7yG0drZGAw3cTUmjI086Fmo964AOb7BQVBvLYOW5eXG7u2ZPI2jC4em0nkv4GE9Tv95Eeo69LevXtAW3s3dNLdG3quYqjgEw4Z4SdTHK3oew+Q9XhGhQVH6wM1+Dde3pce57LzIiarote87zvRw8Onbqgn/K/mPW3dizFY4Yc5TaBdr9XEOrvWD60nrH1J6PBqE3QU3z7/v8A2Z8Ym+EroLkQEHPPOnM5Dc+7JMJiWOsVdvwSzWQzq7xjeOd5/JgBnl18KC2eVu7P8TbPqXJX8V6uPRb3h72MDzj79ujvZQS1BUnrIfJbGfHh8C9BaOJ/uqn+Qi+4CDKQEBAQEBAQEBAQEBBVfrDbT/W2z25eBnFcwrzK7QdJryaNlH2JDX+QFa2ppjXHsdDy5rPl5+5Pw39PV7HMKr3fJdyq3d/hbelK/K/hozH0W/4O5lIBcfeODX+wsuTfdtireLaP6jItWPijpjxx7djsQEEAg6g9RVo8yEBAQEBAQEBAQEBAQEBAQEBAQEBAQRnmb83+e+JyfSQavkj82eI8tn9KlQTpB52a0FmvLWsMEkE7HRyxu6Q5jxo4HygoKb5CPlx2f3Tt1zi6KrMCzXsdDI+F5+yHD7SDG56ZFuM35tfJOYZW0gyw6MHQuEVgP4QfHwoM3/Mjjv2FY/PN+9QfcPrG46WaOIYKwDI4N171vRqdPrUFwoCCkef9wUdzbWuuYZG1S+YsHQXCOWN2g8uiDK/zI479hWPzzfvUG/2Rzlp7qz0eIixU1R8kb5O+fI1wHANdNA0daCMbsjbuDn5icRZ8+pj2RuMR6Wnu4nWzqP5x0BQXYgICCkub8TcLzL2vuGt5k1h7BPw9HH6PK1p199HLw+RBZ3MH5C7g/d9n4JyCpeVfNnam2dpx4rJ+kelNmlkJijD28LyCOniCCRZT1idqRVn/AKsp27lsjSJj2tij4uzidxOd7TUHzyY2pnhk8pvPPxOgu5bibBC9pa4tleJZJCw9LQS1oYPB4tEEm5xXvQ+XGZeDo6WOOBo8PeysYf6JKCqspty5tvZ2zd84lnDboRsN4DoDmTyOljc7Tsd3pjd4nBBfmFy1PMYmplKbuKtcibLGe0Bw9yfG09B8aDR8yt2t2vtK3kGOAuyD0eg3wzyAhp+wGr/YQUfuHY8mE5VYvNztIy16+yxYefdtilieYmkn3ocfG5B0hjbbbuOq3G+5swxzN8kjQ7+VB7SSMjjdJI4MjYC57idAABqSSgpDZEcm/uat7dVhpdicQQKLXDo1bq2uND5HSnwOQe/NylZ2pvbEb9xzD3ckjYr7W9Ac9jeEg/lYdW/YoLko3a16lBdqvElazG2aGQdTmPAc0+0UED57ZGWny8tRxktNyaGu4jr4S7vCPZ7vRBtOU2IgxnL/AA7ImgOtQi5M7tc+x+E1PkaQ3yBBLkBAQRnmb83+e+JyfSQabkX82+P/ACtj4ZyCJbAibnudm48va/CHGunbW16dC14rRn2ImlBdiAgIKSqRNwHrEPgq+ZWyzHulY3o/HQGV3/Gj4kF2oCCjObWXqYfnDt3KW+L0anUryzcA4ncLbE+ug1CCUH1gtgcOul0n63uW6/doIZu7eOY5p2K23NsY6aPGslbLaszgDpAIDpSwuaxjQSdOIlxQXlhcZDisRSxkJLoqUEddjj1kRtDdT4zogoPl3v8AwO0Nybodl++0u2dIe5YH/ipZuLi1LfrwgnNn1htixxF0UV2d+nmsbExup8Zc8II9syluDf3MSLeuRqOp4ahp6E12uju717pkbiBx6PcXucBpr0IJL6wOTlqbDFeM6en24oJNPrGh0x/pRBBKuX2IgxOysPTiaG6VY5ZdO2WZveSH7ZxQSFAQQfnPiIMjy9yTntBlpBluBx+pdG4B3tsc4IPvk1kZb3LnEvlPFJA2SvqfrYZHMYPYYGhBVT96w7P5wbkyc1R9xspmriKNwYQXPjfxakH/AHaCTf5kcd+wrH55v3qCd8vt+Qbyx1m7DTfSbWm7kskcHknhDtegDwoKefvWHZ/ODcmTmqPuNlM1cRRuDCC58b+LUg/7tBJv8yOO/YVj88371BvNl86Ke6NwQYaLFTVXztkcJnyNc0d2wv6g0deiDK5rctn7rqQXsbIIM9jwfRXk8IkZrxd2XD3JDuljuw+XUBoNi84rEF0bb3zGaGVgIibelHA1zuwTjqaT2PHmnxdZC3QQRqOkHqKCG8z+XkG8sOyON4gylMufRnd7nVwHFG/Tp4XaDp7D7SCFbM5sZTb95u1t/RPrzwaRw5J41Ib1N74jXjaeyVvs9pQXLHJHLG2SNwfG8BzHtILXNI1BBHWCgqb1kPktjPjw+Begn9/IvxuyLGRj/GU8a+dnvo4C4fRCCA+rpioo9uZHLvHFbu2jEZD0nu4WtI6T4XyO1QW0gIPG5Ur3Kk9SywSV7Ebopoz1OY8Frh7IKCnvV8mmp39y4F7i6OpMx7B/Pa58Uh+y4G+0g+ec/wA4uzfysX6U1Bk8z9kZLB5Ub+2iDDbrOMuTrRjocPq5eEdbXD8a37LwoJ7sTe+N3fhGX6pEdlmjLtQnV0UmnV42u62nt8uqCvuff9/7M+MTfCV0FyINDvnc8W2dr3su8gyxM4arD9XO/wA2Nunvuk+LVBCOQ+1Xw4S3uPIt727nHO4XSDUmuHHUnX/ev1J8IAQaTZznbA5s3dszEsw+aINEu6gXEurnp8fFEfCUF4IKk9ZD5LYz48PgXoLRxP8AdVP8hF9wEGUgICAgICAgICAgICDzs1oLVaWtYYJIJ2Ojmjd1OY8cLmnygpMYvqtprMTG2HFu99sWNsbov4WXUtrSH0eQ/Vwv86J/ssI18aqcym7bB6lodVGfk1zI69vj62jXw23V3I3eY3FsyGtO/iyWI4alnU+c6MD8DJ7LBw+VpVlp771fE8749ovk58zHw36Y9cfx2rEWdSCAgICAgICAgICAgICAgICAgICAgjPM35v898Tk+kg1fJH5s8R5bP6VKgnSDzs2YK1eWzYeI4IGOklkd0BrGDVxPkAQU7yFZLkc7uncZYWw25+GPXtdLI+Z4+xBb7aBzc+dPZP5ev8ApbUFzICAgIKZ52/LfZf5cfpESC5kBBSW95htnnjh8/Z8yheYwSTHoa3WM1ZNT/MaWuKC7UBAQUjzPmbuPmxtzblT8J6C9htFvTwmR4llH2MMYcgs/mD8hdwfu+z8E5BVew+XeI3ZymdGYYoct6RM6rkAwCQPYfNa94HE5h6iPZ60GfyYzlCrem2jm8dXp7ix7nNrWDFGyWVrOlzHPA1c9o6QdfOb5OkLkQVZ6xN7udl1arT51q7GCPCyON7j/S4UE6Zt2nY2jFt64ziqmkynK3tAbGGajxt01HjQV3yXytvC5bLbAyr9LNCV8tAnoDma/hA3XscC2RvlKDE3ITzB5sVdvxnvMDt7WS+R7l72kd6D5XcMX2xQS7nZRFnlvk+EedWMMzB4OGZod/RcUGz5YXvTeX+Cm114ajISfHBrD/qII9z03YcPtT9V1naX80TA0N90IBp3x+y1DPZQQ3a+1Oem3cZ6Hhoq9WtK8zvY41XPL3AAlxeHO10ACD3z+3OfefxcuMyratinMWl7NajTqxwc0hzQHA6jsKDe8hNyzTYq5ta/qzIYWR3dxv8Addy55Dm//Tk1B8oCDdc7sTLkeXl4xNLpKT47fCPrY3aPPsMc4oMnlBnIMtsDFmNwMtGMUrDO1roPNbr5WcLvZQTNAQEEZ5m/N/nvicn0kGm5F/Nvj/ytj4ZyCI7LmbtrnhncVcPdx5d0xquPQC6V4sxDXxtLm+XoQXagICCkcHM3c/P61kqv4ShiGPHeDpaRFF6P0HxyvJHiQXcgIKV5k1q9nnhtavZiZPBLXrNkikaHsc02J+hzXaghBarNpbVZ7jDUW6dWlaEfSag2MFevXjEUETIYh1MjaGtHsBB6IKH5U7Zwm4MvvellasdhjpWsjkc1pki45Z9XRPIJY7oHSEHls8VeX+95dsbop1pqFx4fjstLCwlpcdGP43AkMdpwuGvmu8WpQX6AANB0AdSCt+fuJmvbCdPE0uOOsxWXgdfBo6J3td6CgkXLbOQZrZGJtxODnx12V7AHW2WBojeD4NS3UeIoJMgIIDzvzkGM2DcrucBYyRZVrs7Tq4OkOngDGn6CDP5SYmbF8vcRBM0tmljdZe09BHfvdI3Ue8cEEI2J8/W6fyFj4aBBcyAgpnYnz9bp/IWPhoEFzICAgiPMLlziN4Y1zZWtgysLT6FfA85p6wx+numE9nZ1hBEuRu6sq6XIbNzJLrmH4jXLzq5scb+6kiJ7RG8jh8R8ACC20Ec3vsXC7uxbql9gZZYCad1oHeQvPg8LT9U3t8vSgrzk1nszhtx3+X+Zfxmp3jqR1JDXRnVzGE/UPYeNvg9lBl+sh8lsZ8eHwL0Fg28c7J7Mmxreh13HOrtJ8MsHAPpoK79XbLs/U+T2/P8Ag71KyZ+6d0O4JA1juj+Y9nT5Qgt5AQYuVyVTF421kbb+CtUidNK7+awa6DxnsQVL6vNOzYO4NwTt0F6dscZ7C4F0sun5xqDy5z/OLs38rF+lNQXSQCCCNQesIKQ3jtzK8t9xt3jtiPiwk7uHJY8a8DA89LCB1RuPuD9S7xaBBjc1tx4vcc+xcrjZO8rzTzatPu43iSvxRvHY5v8A8dCC+EFFc5b+U3ZvClsnBt799MGWdgcGtNhzC7znHzQI4u3wuIQZtSh6xFOrDUrGrFXrsbFDG0U9GsYOFoHR2AIIzv7bXN+1UZndxxxSNxDS9liAwNkY0uaddIdHENPT4ukoLu2FuiPc21aOVBHfvZ3dxg+pnj82Qadmp84eIhBBPWQ+S2M+PD4F6C0cT/dVP8hF9wEGUgICAgICAgICAgICAgpr1jdlG/hoNz1I9bWN/A3dB0urPd5rv/pvPtOPgWrqsvGMXUcta7cvOTbZbpjx/bHoc5LQdumnKPev+FN4VrM7+HGXP7LkB2CN582T/wCm7R3k18Ky5OZu2VfGND9RkTEfHXpj2eV18CCAQdQekEK0eaCAgICAgjm/t7Y/Z23Zctab3spIip1gdDLM4Etbr2DQEuPgWPMzIrGLe4fobanNikdHbPZDn7G+sDvqPccWQyFhk2MMg9IxjImNjERPSIzpxhwHuSXHx9C0o1NscZ2OzzeXdPOVNaxhfqtj1+h1BVswWq0VmB4fBOxskTx1OY8cTT7IKsYnFwF6zWZidsPRHyICAgICAgICAgICCM8zfm/z3xOT6SCAcreaWxsFsbHYvKZEwXoDP3sXcTv0453vb5zGOb7lw7UEks89+XMLC6O5NYI6mx15QT+cDAgg24N+br5mSnbm1MfJVxUjgLtmQ9JZrr+Ge3VsbPC0El30EFv7N2rS2vt6tiKh4+6BdPMRoZJXdL3ny9ngGgQVbzru1qHMTaN607grVXRTzvALtGR2Q5x0GpPQEEw/jly1/aUn/jz/AHiD6j538uJJGxsyLy55DWj0efrJ0H1CCdoCCmedvy32X+XH6REguZAQRbmLsWpvDAupPcIb0BMtCyR7iTTQtdp08D+p3t9iCu9pc08rs6Ru1991Zo/RQGVr4bxuEY6G8Wn4xg+pezU9mhQWJFzR5eyQ983PVQzTXRzix32jgHfQQQ/dnPfGtacdtCKTK5Wc93DOI3d01x6PMYQHyO8A4dPGepBsOU3Lm7hHWNxbgcZdxZHUuDzxuhbIeJ3E7tkefdeDq8KCVcwfkLuD932fgnIIxyC+b2H4zP8AdBB4c4OX9nJwx7nwIdFuHF6SHuuh80cfnDh0/wBpH1t8I6PAg3fLDmBX3fgxJIWx5eoAzIQDo6eyVo+tfp7B6EEQ54n0/dGzcGOnv7JMjfCJZYo2/ScguFBT/PDDX8Texu/MKe5u0nNgtyNGvQdRE9w7R0mN3lAQb7kptN+G2qMjcaTlM0RasPf0vEZ1MTST4nF58bkEn3vS9O2dm6oGrpaNgMH88Rkt/pAIIlyBvekcvmQk/wDsrU8PkDiJv+agiuFB5ic4J8q78JgcBp6P2scInEQ/nJOKTyDRBeSAgpHmDDJsXmdjd41WkYzJu4Mgxo6OLQNnGg+uZpI3wuBQXSRWuVdDwz1bEficx8bx9EOBQUTfxu6OUe45spioXX9p3XDvYiSWtbr5rJCNeB7NdGP6j7YQWJg+cuwMrA17si2hOR59e4DEWn3/AExn2HIMnJ82uXuPhdI/Mw2CB5sVUmd7j4BwageyQgg+N3tzA37uqrJtlj8Rt2jJrPYmaHte3qcJvqXuLfcxtPR16/VALA5m/N/nvicn0kGm5F/Nvj/ytj4ZyDz5s8uJ9y14Mth3dzuHHDWu4HgMrGniDOPo4Xtd0sPh9sBpto88a0I/VG9oZcblq34OW0Y3cDyOjWSNo443eRunb0IJnJzR5fRw987PVSzTXRri532jQXfQQV/uzm/f3I87b2FVnns2wY5L/CWODD0O7pp6WDQ9Mj9NPooJzyy5f19nYMwPc2bKWyJL9hvVxAebGzX6lmp8p1PiQTBAQUzzA+ffaf5Ct+kToLmQEBBTfIj5Tb0+MR/CzoJzzH2HT3hgXVXcMeRr6yY+yfqZNOlrj9Y/TR3t9iCL8n9+XJnSbN3FxQ53GcUdcy+6ljj6CwntfGB9k3p7CUFnW6te3Vmq2YxLXnY6KaJ3SHMeNHNPlBQUXJBujlBnprFWF+S2ddeC4dPm9jeIgHglb1a9Tx/RCxcRzi5fZKBsgyjKchHnQWwYXtPgJPmH7FxQY+e517BxcDnQ3v1lZA8yvUaXanxyECMD2fYQQnA4DcnNDckO5NyQmptqodaVI6hsjddeBmuhc1xH4STt6h/NC8gAAABoB0ADq0QUzsT5+t0/kLHw0CC5kBBQeK3VhNs86tzX8xOYKsjZ4Gvax8hL3SROA0YHHqYUE/8A45ctf2lJ/wCPP94g2O3+aWytwZSPF4u6+a7KHOZGYZWAhjS53nPaB1BBB7W+90bH5g3IN2TS3dvZI607LW+bFGCeB0bGgDzA7hkaOk+66ejUJjk+cHL+jj3XG5WO27h1irV9XyvPY3h0HD9loghfJDGZPKblze+LkJggyBljrN7HOmlEknBr1tj4A3X/AEIMjdO8t27I5hm7mZJb208iOCuxgAbE3r0aBoO9jPh9036AS+xzd5eQ4/039cRSs4eJsEYc6Yn63utA4H32iCAcrK+Q3XzJye+pYHV8ezvG1y7te5giYwHqJbEPOI7dPCg2nrIfJbGfHh8C9BaOJ/uqn+Qi+4CCqOYmx9wYHcf+O9mtLpwTJkqLAXEk+7eGD3bJPq2jpB84eIN1tjnrs3KV2NycpxF8DSSKYOdEXdvBK0Eae+0Qbm/zZ5eUoTLJmoJtBqGV+KZx8WkYd9FBWua3HujmzkG4Pb9aSjtuKRrrluXt0OodKW+b0dbY2k6npPiC5tuYDH7fwtXEUG8NaqzhBPunOPS57v5znEkoKo5z/OLs38rF+lNQXSg87Navary1rMbZq8zTHLE8atc1w0IIPYQg5u3xy3t7S3ZjZavHLt+1cjdTeST3T3PaXRP8ejeg/VAeIoOgN1bgrbe29ezFjQsqRFzGHo45D5sbPsnkBBXHIbb9maPI7zyesl7LSPZBI7rLOPimePfydH2KC3EHnZrQWq0tawwSQTsdHLG7qcx44XNPlBQUvywsT7L5iZXY9159DuPMmOe7qL2t4o3eD8JF0H+c0BBsfWQ+S2M+PD4F6DcY/nXy3hoVoZMm4SRxMY8ej2DoWtAPVGg2+C5qbHzuVgxWMvunvWOLuYjBMzXgYZHec9jWjzWntQSxAQEBAQEBAQEBAQEHlcqVrlSapajEtawx0U0TupzHjhc0+UFRMYvql5raLR0TDjPf20bO090XMPNq6Fju8pzH/aV39MbvL2O8YKqsym7bB6hw/WRqMmLxt6/Gjy+G66k5C76Gf2uMTbk4sphmtidxHzpK/VE/x8OnAfIPCrHT5m9XDrh5/wAwaD5Odv1+C/p6/as5bCgEBAQEHPnrP5CZ2UweP1IhjglsadhdI8M+gI/orR1c9MQ7TlXLjcvbrxiP471NYrGXMpkquOpMMlq3K2GFg7XPOg18XhWrEYzg6fNza5dJtbZEYu38ZRjoY2pQjOsdSGOBh8IjaGD6St4jCMHlGbmTe82nrnFkqWMQEBAQEBAQEBAQEHjdpVL1SWncibPVnaWTQvGrXNPWCEEf/hly/wD2DT/NhB9w8udhwuDmYCiSOrigY8e04FBvq1WrVhbBVhZBC33MUTQxo8jWgBB6oNTmdp7bzcsc2Wx0F2WJvBG+ZvEWtJ10HsoNf/DLl/8AsGn+bCD9Zy02Cxwe3BVA5pBaRGOghBJUBBrsntzBZSzWtZCjFasUzxVZZG6ujOodq09nS0INigICDBy+Cw2YrejZWlDdg62smYH8JPa0npafGEESk5IctXycf6rcwHpLG2LAb92gkOA2Ztbb+pw+MhqSEaGZoLpSPAZHlz9PZQbpB5W6la5VmqWo2zVp2OjmieNWuY4aOaR4CEHhisPi8RUFPGVo6lUOLhDEOFvE7rOnjQZiDU4/ae28dkZclQx0FW9Nxd7PE3gc7jPE7XTwnpQetzbuDu5Ktk7dKKfIVNPRrL26vj4SXDhPZoTqg2KDwvUKWQqS07sLLFWYcMsMgDmuGuuhBQe4AaAANAOgAdQCD8exj2OY8BzHAtc09RB6CEGuxm2sDi6U9HHUYqtSySZ4YhwtcXN4STp4W9CD6w23sHhIpIsTSipRyuD5WwtDeJwGgJQbBAQYWXwmIzNUVMrUiuVg8SCKZoc0PAIDh49CUGRUqVqdWKpVjEVaBgjhib7lrGjRrR4gEHo9jHscx7Q5jgQ5rhqCD1ggoIhk+UXLvIymWbDRRSO6Sa7pIB9pE5jPoIPOhyb5cUpRKzDtmeOkd/JLK37R7iw+0gmFevXrQsgrxMhgjGkcUbQxjR4A0aAIPm7SqXqktO5E2erO0smheNWuaesEIPLF4nG4qmylja7KtSMkshiHC0Fx1Og8ZKDLQajPbR21n2BuYx0NwtGjZHt0kaPA2Rujx7BQRtvI/lq2Tj/VbiOvgNixw/Ca/RQSvDbeweErmDE0YaUR92ImBpdp2ud7px8pQbBAQEGut7cwVzKV8taoxTZKqGtr23N1kYGkuaGnxFxKDYoCAg12L27g8TPZnxtKKpNcIdafE3hMhBJBd4elxQbFBqrO1Nt2sszLz46B+UjLXMuFukoMfuTxDp6EG1QfMkccsbo5WB8bwWvY4AtIPWCCgh+R5Pcur8pmlw7IZHHUmu+SBv2kbms+gg9MTym5fYuZs1bDxPmadWvsOfY0I7Q2Vz2j2kEuAAAAGgHQAEBBrqu3MFUys+WrUYoslZBbYttbpI8OIJDj4y0INigINBe2Bsu/bluXMNVntTu45pnsBc5x7SUHh/DLl/8AsGn+bCDKxex9o4q4y7jcTXq24wQyaJnC4Bw0Oh8YKDPy+ExOZpupZSpHcrOOvdytDgD4WnrafGEEVrcluW0FkTtxIeWnVsck072D7FzyD7OqCaQwwwQshgjbFDG0NjjYA1rWjoAAHQAEHjkcZj8nTfTyFaO1Vk93DK0PafHoe0dhQRBnJTlq2x34xOvTqIzPOWa+9L/oIJlTp1KVaOrThZXrQjhihiaGMaPAGjQBBjZnAYXNQMr5anFdhjd3kcczeIB2hGo9goM6ONkcbY2ANYwBrWjqAHQAg/UEbzvLjZGcldPksTDJYf0vnj4oZHHwudEWFx8qDV1OSvLetKJRie9cDqBLNM9v2pfwn2QgmVKjSo1mVaUEdatGNI4YWNYxo8TWgBB7INbktt4HJ3K13IUYrNqoQa00jdXRkO4hwn3w1QbJAQeF2jTvVzXuQssQEtcY5AHN4mODmnQ9ocNQg8cvhcVmKgqZSrHbrBwf3Mo1bxN1AOnsoPelSqUakVSnE2CrA0MhhYNGtaOoAIPZAQay9tnAX8lXydyhDPkKvD6Pac38Izgdxt4XdfQ46hB6ZnAYXNQMr5anFdhjd3kcczeIB2hGo9goNR/DLl/+waf5sIMnGbF2fi7sd7H4itVuQ8XdTxsAc3iaWu0Pja4hBvUBAQEBAQEBAQEBAQEFbc8eX53Ptr0+lHxZjEh0sAaPOlh65IvGejib4xp2rX1GXvRjG2F7wLiPyM3dtPuX809UuVlXPQkg2Hu63tPc9TMwaujjPBbhB07yB/RIzy6dI8YC+8u+7OLT4ho66jKnLnyeCXZWOyFPI0K9+nIJqlqNssErepzHjUFWsTjGLy/My7UtNbRhMMhS+BAQEEZ3py52xvFkAzELzNV4hBYheY5GtdpxN7WkHTtCx5mVFtrf0PEs7TY7k9E9UvDaHKzZm1J/SsXTLr2haLlhxllAPQQ0nRrde3hAUUya12PvWcWz9RGF593sjohLVlVogICAgICAgICAgICAgICAgICAgICAgICAgICAgICAgICAgICAgICAgICAgICAgICAgICAgICAgICAgICAgICAgICAgICAgICAgICAgICAgICAgICAgICAgICAgICAgICAgICAgICAgICAgICAgICAgICAgIOYOe3Lk7ezZzmOi0w2UeS5rR5sFk9LmeJr+lzfZHYq7UZW7OMbJd/wDiXzsv5dp9+nnj7FWLXdAvX1duYQjednZGTRjy6XEPcepx86SD2el7fHr4QtzTZv3ZcjzJw7H9+sfq9U+pfq3XHCAgICAgICAgICAgICAgICAgICAgICAgICAgICAgICAgICAgICAgICAgICAgICAgICAgICAgICAgICAgICAgICAgICAgICAgICAgICAgICAgICAgICAgICAgICAgICAgICAgICAgICAgICAgICAgICAgICAgICAgICAg1+fwWNz2HtYnJR97TtsLJB2g9bXNPY5p6QfCvm1YtGEs2n1Fsm8Xp8UOPN77Oye0twT4m8OIN8+rYA0bNCT5r2/SI7D0KrzKTWcJem6DW01OVF6+WOyWkq2rFSzFarSOisQPbJDKw6Oa9h1a4HwghfETg2r0i0TE9MS6/5Yb9rby21HcJazJ1tIclAOjhl06HgfWSDpHsjsVplZm/DzXivD50ubu/dnpr4vsS9ZVYICAgICAgICAgICAgICAgICAgICAgICAgICAgICAgICAgICAgICAgICAgICAgICAgICAgICAgICAgICAgICAgICAgICAgICAgICAgICAgICAgICAgICAgICAgICAgICAgICAgICAgICAgICAgICAgICAgICAgICAgICCI8y+X1DemBdUk4YsjX1kx1sj3EmnS12nTwP00d7fYsWblReFlwviNtLmb22s/FH8dbkXK4q/icjYx2QhdXuVXmOaJ3WHD6YPWD2hVkxMThL0nJza5lYvWcay3vLvfN7Z244cnDrJUf+Cv1QeiWEnp0/nN62nw+LVfeVmTWcWpxLQV1OVNJ29U9kuwcXlKOVx1fI0Jmz07TBJBK3qLT9IjqI7FaRMTGMPM83Ktl2mtowtDKUsYgICAgICAgICAgICAgICAgICAgICAgICAgICAgICAgICAgICAgICAgICAgICAgICAgICAgICAgICAgICAgICAgICAgICAgICAgICAgICAgICAgICAgICAgICAgICAgICAgICAgICAgICAgICAgICAgICAgICAgICAgIK35wcqod3Y/9Y45rY9w1GaRO6GixGOnunnw/WOPkPR1a+fk70YxtXnBuLTprbtv6c+bw+1yzYrz1p5K9iN0U8LiyWJ4LXNc06FrgekEFV0w9CraLRjHTErP5J81P8M3hhMvL/8AwNx+rJXHorTO6OP8m76vwdfh12MjO3ZwnYoOOcJ+fX5lI/cr/wAo9vZ3Onmua5oc0hzXDVrh0ggqxcBMP1AQEBAQEBAQEBAQEBAQEBAQEBAQEBAQEBAQEBAQEBAQEBAQEBAQEBAQEBAQEBAQEBAQEBAQEBAQEBAQEBAQEBAQEBAQEBAQEBAQEBAQEBAQEBAQEBAQEBAQEBAQEBAQEBAQEBAQEBAQEBAQEBAQEBAQEBAQEBAQEBAQEFWc4eT8O54X5rCsbFuCJv4SPoa201o6GuPUJAPcu7eo9hGtn5G90xtdDwbjM5E/LzP6f/T9jmSxXnrTyV7EboZ4XFksTwWua5p0LXA9IIKr5h3tbRaMY6YldHJXnI3HiHbO459KHQzHX5D+J16BFKT/ALP6131PV7nq28jPw6Jctxzgu/jm5Ue996O3wx4fT49vQwII1HSD1FbzihAQEBAQEBAQEBAQEBAQEBAQEBAQEBAQEBAQEBAQEBAQEBAQEBAQEBAQEBAQEBAQEBAQEBAQEBAQEBAQEBAQEBAQEBAQEBAQEBAQEBAQEBAQEBAQEBAQEBAQEBAQEBAQEBAQEBAQEBAQEBAQEBAQEBAQEBAQEBAQEBAQEFc80+T2N3fE7IUeCluBjfNn00jnAHQybTt7A/rHjCwZ2RFumNq84Txm+mndt72X6PF7HMOawmVwmRlxuVrPqXITo+J47OxzSOhzT2EdBVdasxOEu+yM+mbWL0nGsrP5Uc8LGBbDhdxufZww0ZXt9L5aw6g0jrfGPB1t7NepbOTqMOidig4vwKM7HMyui/XHVPsl0dRv0r9SK5SnZZqzt44p4nBzHNPaCFvROOxw+Zl2paa2jCYe6l8CAgICAgICAgICAgICAgICAgICAgICAgICAgICAgICAgICAgICAgICAgICAgICAgICAgICAgICAgICAgICAgICAgICAgICAgICAgICAgICAgICAgICAgICAgICAgICAgICAgICAgICAgICAgICAgICAgICAgICAgICAgj+8di7c3dQ9Ey9fjewH0e3Ho2eIntY/Q+yDqD4F8Xy4tHS3dFr83TW3qT446pc5755Hbt246SzSjOXxQ1IsV2kysb/AOrCNXDyt1HkWhmae1fDDt9Bx7Jz+i3uX7J2eSWg2XzF3Ts+yXYuxrVc7WehNq+B57dW6jhd/OboV8Zebauxua7huTqY9+OntjavzaXrA7MzDGQ5VzsLePQ5s/nQE/zZmjo+zDVu01NZ29DjtZy7n5XTT36+Db3ezFY9HI4+/CJ6NqK3AeqWB7ZGn7JpIWeJidijzMu1JwtExPhZCl8CAgICAgICAgICAgICAgICAgICAgICAgICAgICAgICAgICAgICAgICAgICAgICAgICAgICAgICAgICAgICAgICAgICAgICAgICAgICAgICAgICAgICAgICAgICAgICAgICAgICAgICAgICAgICAgICAgICAgICAgICAgjW4uW+yNwudJlMTDJYd7qzGDDMT4TJEWOd9lqsdsqttsN/TcT1GT0UvOHZtjulDp/Vs2BJJxMsZGFv+7ZNEW/04nn6KxfS18KzrzNqYjZSfJPtb3bfJfYGAnbZgout2me5muPMun2Hmx/0V91yK1aep43qc6MJthHg6PtTkAAAAaAdAAWZUiAgICAgICAgICAgICAgICAgICAgICAgICAgICAgICAgICAgICAgICAgICAgICAgICAgICAgICAgICAgICAgICAgICAgICAgICAgICAgICAgICAgICAgICAgICAgICAgICAgICAgICAgICAgICAgICAgICAgICAgICAgICAgICAgICAgICAgICAgICAgICAgICAgICAgICAgICAgICAgICAgICAgICAgICAgICAgICAgICAgICAgICAgICAgICAgICAgICAgICAgICAgICAgICAgICAgICAgICAgICAgICAgICAgICAgICAgICAgICAgICAgICAgICAgICAgICAgICAgICAgICAgICAgICAgICAgICAgICAgICAgICAgICAgICAgICAgICAgICAgICAgICAgICAgICAgICAgICAgICAgICAgICAgICAgICAgICAgICAgICAgICAgICAgICAgICAgICAgICAgICAgICAgICAgICAgICAgICAgICAgICAgICAgICAgICAgICAgICAgICAgICAgICAgICAgICAgICAgICAgICAgICAgICAgICAgICAgICAgICAgICAgICAgICAgICAgICAgICAgICAgICAgICAgICAgICAgICAgICAgICAgICAgICAgICAgICAgICAgICAgICAgICAgICAgICAgICAgICAgICAgICAgICAgICAgICAgICAgICAgICAgICAgICAgICAgICAgICAgICAgICAgICAgICAgICAgICAgICAgICAgICAgICAgICAgICAgICAgICAgICAgICAgICAgIP/Z;" parent="8962rQQDY3VNNf6We3Pp-1" vertex="1">
          <mxGeometry x="50" y="150" width="294" height="122.11" as="geometry" />
        </mxCell>
        <mxCell id="4RBUmOmcRaL9wjGuKmJW-3" value="" style="shape=image;verticalLabelPosition=bottom;labelBackgroundColor=#ffffff;verticalAlign=top;aspect=fixed;imageAspect=0;image=data:image/png,iVBORw0KGgoAAAANSUhEUgAAAcUAAAHFCAYAAACDweKEAAAABmJLR0QA/wD/AP+gvaeTAAAACXBIWXMAAAsTAAALEwEAmpwYAAAAB3RJTUUH5AodCRUchaflAwAAIABJREFUeNrs3Xl4ZFd9Jv73PbeqpCpJvXdLqpK623Z7wytgjMkEYgwYZyEsAYInw5YQCAmZhKyTEMJk5sc8TIaEQIawE5ZMMIQtGIJZDbYxiwEHYxvv7m6pSupFre6WVCpV1T3v7w/JhJ3WrV5U0vt5HjCP6aoufe9RvfecexbAzMzMzMzMzMzMzMzMzMzMzMzMzMzMzMzMzOxH++g//iNdBTP7SXIuga0VC72Lzf3Wb9/Rc86WzReD6GNkPqZpHxKIwEIa46EQQo1if2/PwPjszLQGThudcfXM1gbfOduqpgmFhfTgBiWt/hj1HILnSrqQ5JmAZgX0EAyCShAKAA4TJIiahKOgbiF4G4g9AfwOEOu95cqUK2vmUDTrKo3a5NZWO/3ZEPhcAOcAOjfD27Ql5UIItRhjD4iPAXgwl8tfF9N4sFQZftCVNnMomq1YzX0HtjQazYtC0O+SfBSA8vH+KwAcAfgFALcwF/45bbcwMDJadfXNHIpmK4KOHO6tz81tB/A7iHgqgB0n5ZeIfEDStxjC9W3q47moQ6VK5YiviJlD0eyUSKcODjYaC78E4A8hbCfQp5P7EaKkQPKbBD9N8rpiZfiLM2NjuYHR0bavkJlD0eykaO0/UGy2Wq8m8AxJO1bAR6pLmiN5HcBPpml6y7odo/f5Spk5FM1OuLmx8beT/EUBQyvw402CmCD4npDkPpS22of7Rste4mHmUDQ7vhaq47tShL+E9Fyt9F80EpK+SoYvt9P2RwZGR25sTk4mPcPDHlo1cyiadaY+Pv6fwPBCSb/RZR+9sZiR/Jeo+IkY403rtm8f9xU1cyiaZeshTux7VDttvwzA87r8R9kL4E4mybsQczdGLUz3j1TmfYXNHIpmxxiIE6e30/hykr8uqbQKfqQUQALgCyC+LOHDfZXyN+fHayiNVqKvuJlD0exH0uGj6xuzc38cEV8EYHAV/ohzS/98L6BPIfDmvnJlv6+8mUPR7IfUq7U/APBiSWevgR/3Xkl3BoR/zKeFLzYKzfmBcnnBrcDMoWiGufHx5wJ8GclLJa2VH7uNxZNs/g3A12KM/zKwffROtwYzh6KtYfPjtScJ+mMBT1rDZTgKIBD4WxKfn63Xv7X1zDMPu3WYORRtDWlO7D+rnbZfDeIpAHrWUC/xJ7md5IMA3h6QfhnMTfeWvd7RzKFoq9pCbXJ9GuMfCvotklsdiN9HWFrvqKjrG82FazefcbrXO5o5FG1VfuNLnB+v/WeQfyLoQlfkJ6pJGCf5xiQfvqq29hYrw17vaOZQtNVidm/t0SHgTwU9/ZT9cixuzfbdX5QVv5UcCEE3Efx3ku8sVoZvrVcnWKoMu4tt5lC0blWv7R+Jsf1bgXjFUq/xVP6KHAFEAPsFNEgkEOoANpNsxBi3hxBSSQMrqIQNLG4I8AYJNwC8uX+0fNAty8yhaN0WiNXxPiH8EoG3A+g/WYG41Cs8CuAQgKqE6wjuBVkLZKvZSh8olQpstxbQaLTzPTm20kIeIWIHpHMAPBpEAeDPQyoC6FshJb1XQDVJkjeGEL6WttKJ0shwyy3NzKFoK5wkat++8xtp/IAWg+aEhiAACSCi9pC4LUZ9FErvzBUK9/YOD08d63u1xqZy+dHN7ak9D/RvWLcp36jPXQ1gmMLztdhjK6+MX3ReC+CLrVbrg+tP27HHLc7MoWgr2G1f/0pu1/D2ayT9ygkOw4dCeDfILwXgo73l4Q+RPK7d0un7HthWKPQ8hoGXAvgNQT0ANpziMu+HsC8k4R0txC8m4n19lfKsW5+ZQ9FWmJnx6q8H4B0nuoeoqH0M/CQDP1ocHv7XA/fcndt61tknZJ1fY88ke3cMaXZs/Nwkl1wZU10uxSeTDAB6TnHJvxbIO9IY39w/OvK1+ng1lEa8Cbk5FM1OuXpt4ixI75V0CYBw3INQEhe7iR8l8Yne4eF3Lv1/Jy0EZsdqhb5Nw6gfrj2OwrNAPkaKFwCMx/tnXoYUQELyjYq6qZW2rt+wc+c+t0hzKJqdImo2e+cOHPhTCr8LYPMJ6R1Kewlc0wp49fpy5eip/plnx8Y2hRBOg/QkIFwp6GE49Sd/7AWwj+CbkU9uQoy7S8PDTbdQcyianUSNWu1RadTfkHzsiZhtSvDmiPiB/pGR16+om4GpKXLzZs3ure4KSXi0EJ9J4Re0uCTylA2tLj13/bQUvxTI9xUrlXvdSs2haHaSzNcm/lAxvvYELb64KYTcnxRyuVuTbZsbK7UG6dRUPtm8uVWv1n4BwuMEPRnAxVjazu0UfaxpAIdJvCWm8SsMya19I+WjbrHmUDQ7QZr7DuxstVtfJbDtOPcSI4A788Xep0zm23u2rxvsml1dju4ZW5/P5yTFF0u6CuD5OOVDq7wNxF0B+Mec0lua4OG+kZHULdgcimbHiaTc/MTkqxTj7wDYeHwaNAGiLuC2Qi65Oj84uLubazQ3Vj0T4iiDXgLgiVrcFOBUDa2mJBNJ1xC4Pk3Tjw3s2D7plmwORbPj0Uscn3xEC+lrATz+OL5tS9BnkyT5H8Xh4a+spnrNjVefTPBSQM8AcKEWf39P1e/wOIA9QHhfAG9KY3p3//ZKw63aHIpmGc1Xa78r6A0Aj9v+pgQ+APKtpUr5c6uxZjMP7O3vyUWloeeFgi4H8XhJm07xx7oB4Jej0ncNjI7eNb+nyuKOijchN4ei2TH3Evcf2NxsNm8g8LDj0pAJKOKDBN5YGq18YS3UcG6semaSC2e10/jbBC7E4nPH/Cn6OEcBNAi+Q0pvbDSbX918xhmH3NLNoWh2TL3Eyf8Wlf4hyS2d9hJJAOKXJb6itG7dF7m+b83syrK0J4FmxseuIsMFEH6dwE4AvafkC2VxTejdJMai9MZib+/XmwsLk8VKpe1Wbw5Fsx8ZiLWHRek1BJ5yPMbYSI4r1V+UNmz8INeV5tZqXdvjUz1Jz0CoLxx8kRAfR/DJAE7pkVYE/hXEF6Tw4b6R4b1u/eZQNPsBc+MTVwPxn7/3EN8ONBj4mkLS87bc4Oaaq7tUlIl9ZyrqdCl9IcmHRelhWDyx41TYB2CS5FsU218WeE//6GjdV8kcirbmxUOH+ubn5q8FO59xuhiq8b0k/65UqXzT1f1+Dw2tzo3XngzgElK/KWHHKf5UXyHC7SHwLb3l4a/PVavsq3hSjjkUbY2q16ovRMQrQZzWSSdxqZd5Q0j42uJw+VpX9ic7OrZ33UCxlGssNH9bwoUgfl5S/yn6OC2QeUBvIPnFZrN544adOw/4KplD0dZWz2VfozjfmnqdgJd03kPEgwD+vlQZfv3JPOliNZirVs8AuYHCH0g6D8BFp/DjPEByDMDfpO3mjSGXn+3zpBxzKNqa6CWOT5wvxNtIsrNniZwH8OFib+/vhS2bplzZ7OarE0+Oio8E8Dskt0o6VUs6QPJDgm5qt9ofW79zxwO+OuZQtFVrdqyaZ+A/QHo+OlhLR1JRmkqS5KnF4aGbXdnjcLNSGyvlcj2lNE1/I6bxfABX49RNyjkIYFbk60JMv4iQu69UGZ7zVTKHoq0qc+PjlxPhNSAe3UkvkYvB+GfFSvk1ruoJCMjd1WEkcZsQ/orkDkEXn6JeIwB8RcJtIZe8vTg0eEujVmNvuexJOeZQtO4mKTRqEy+P0ms7WYax9EV5Q7G/+FSu33jYlT2x5muTl8eYngPgpQCGAGw7BR9jQVIhBP4dhM+12unX1u/c7kk55lC0Lv5yrda2ROlGAOd00nMQsA8pXlRav+HTXF/yifAnyf777h8o9fS8kOSlJH/tRBwEfYzuBfkAxXcmyt2YhvRgqTLU8hUyh6J1lXqt9nsQ/pukocyBKKUk35Dkc3/Ts21b1VU9+ebGJ7YnSdjRTtt/SHA7oIefmoEHMYTwrwI+B+HavpHybl8dcyhaV5gZm9yehPjXAH61o2eJxHcI/GmxUvGaxFNs7PY78hs3bLgskOcoxt8HuRmn5hDkfRD2Cnp7jrkvRMRqaaTsSTnmULSVa7ZauzwAn4JUUGct9T19lcrzXdGVpXVganOz0fgvIfDRUbr61H2R8WaSX2u30/cN7Bj52vxYjcVRT8oxh6KtpC/MiX09zTR9C4irIRU6eKtpJuGJpeFhb+W2Um9+arXREMMuMP5XSdsBPOIUfIz5pe+0/xsQriP5rd7K0EFfHXMo2opQr45fDvH/gLwky9DpQzNVCb5W1Gv7KpV9rurKtue2bxW3bNjyKAZcJOAVIHogbDgFPce7ANwVAt+pwwev0/otKFWGPSnHHIp2CnsP1eqfUfhfmRvnYijeE0L482J5+EOuaHeZ2TtWyeVzz1EaLxHwzKV/nTuJHyElmUj6IBA+B8TP9I1U7veVMYeinXSN2uTWdkw/ww731aR4TWm0fLUr2p3mxscDWs31ud7iOa00fRnB8wFceAo+yn4IUyTflTBc10b6QF+lMusrZA5FO+EksVHb95Ko9C8JDCtTwyQEtZLAp/SWy59yVbvf1P0PDJQKpccg6HFCfKmEAJzcodWl0YevkOELaUw/MDA6cquq02RloyflmEPRTozZvbXNIcHfK+NsxKWdaxCl9yf55JXFwaF7XdXVpTkxsaud4hlCfBTJZ0qKAMJJ/Agzko4Ghvcj4hNR8fb+HSP7fWXMoWjH3Xx18mej0k8QWNfBysTDAP6qb6T8d67oar15quYilMvnkselMf42gdMBXHAKPsrdAO4MIbwrie0vtYSZvtFR75jkUDQ7Dj2AfZOldrv9v4Hw65JKHbzVHT19pctzGzd6Sv0aMDM2tiEJ4WySPxtjfC7AYZzcvVZTLJ4M8nESnxDwmb6KJ+U4FM06tDA58Yh2O76R5GUdLMOIIP6rAt/eP1xecFXXWEDuGduVJMlVAq4E9BQALXRw3FgGkwy8TxEfyCeFz7fV3Fsql2d8ZRyKZstWr9ZeJunvO2mQAr6JgD/pK1c+54quTbNj1UKaNtfl8oXLSD4TwkUALj6Jm5FHkgHAV0h8Pk3TD/ePjn6jPnWQpc1bPCnHoWj207UOHBhuLrTeS+LxkkK2BkkIelffSOWFrqgBwPzExMaYhmEyfRqA50LaLHIrTl5AzgA4RPL9MeFHYju9f93IiI+vciia/XiSQr028VRIryO5o4MzEw8nxFN6yuWbXFX7oZGI8eq5MaaXMsn9vKSrCPQA6D2JH+EuEN8k+S/5/tKn09n5dm952JNyVpHgEthxubsiI4QnANiR9VkiF8P1o/nenjFX1H6U0kjlO4jp/+urlJ+jGJ8p4a0k73jo3uwkfIRzIDwb0kdaM3P/HKOunhmvnu4r456i2feZG68+guQHAJwuiRlb40EAf95XqbzNFbVjMTM2vjlfyJXTdvxVRF0JYieArSfxI9QE3ZGE5L2h1Pux5nyjOTA8PO8r41C0NUxHDhfnZ+ZeJuDPSW7oYNbpv09MHbhk10UXp66qHau22swxp9nx6jkizkqEXxNwGRaXdJyModXF5RzkFwX9WyA/VyqXv+Er41C0tfqlVDuysam5awBc2UEgNiH8dmmk/E6Snt1n2W7QxpuBI4U4X6s9QdLlEp4O4CwsbkR+Mr7vjpCYIfnupuI/BXL/QLlyyFfGoWhrSL068RRA75a0sYO3uTmAf1IcKX/JFbXjobFvcmNI40A76ukgHivh5wBsOVlfrAK+zcAbIH28VKlcNz89FYobN0dfGYeireY786npTfX5+itJ/haA3szryIQ39I1Wfs8VtRNz41bdRfIMSS8ScDGEUSzOXD3RFkgEgO9rQ/8vCeHuvuHhPb4iDkVbpeZqE2dR+qCkTHtWLm3+PSXiSX3l8q2uqJ0os5PV0D9UiXPV6uOJcA4Unwdgl05S7xHAGIhvQfpIqVJ599HJidx679i04nhJhnXYVYxXATov88sXfSCX5PatprIs7H4wXHfNNcmnPvJPAQBuvvFLiRvLqdU/VIkA0FepXJ+w7+2lkcpjBP0RgDeBnDoJH2EUwi+QfMd8beI6pvH5c7XqRb4y7inaKtGePLhzod3834CeSTIsd+iUJBR1ANLL+7aP/L9V0XMer61H4EbE+EwCW0BGAWUIU4BuTQK/mca4t29kxAfcrhDztf3DuULY3Go0f0vS2SQvF5Q7CX/1NMkxQB8KPT1vazYX6uvKlSO+Ig5F68YOosSFicnHRukaAMMd7El5S2+x94nJ5s1HuzoMx6obEbgNwutJ7JJ0Bhb3z+TSus2Hzgv8BogPROCfBiqVmlvSyjI7NnFukAaR4C8ljZA88yTtt/otAdcSuL5vpPJ5XwmHonVlr2j8dWT4/Q6+NBpQ/OPSyMg7SHbtgmfVG33zh6b/DNQzl3oa+Ck1GVPgX/SXy+9xK1rB7btavQoK5xDxjwWsA9B/ojutJOoAPopc7k1p2p4YKPvGyaFoXfKFMf5win8r4PJMDY8EoG9L+u2+kZGu3ue0Xq29TsKzAFWO/efHvWq3fqZvx06fF7nS2/rExHqk8UUgzofwgpP01+5m4I0xxk/3j4z808LRw0nPug3e1MKhaCuyZySF+WrtWQLeQbBPyLxg/z19I5Xnd3dvufq7JP9Y0ujyfn4cSMgn9JTL33aL6g5HxvZsKIT8iIA/knQ6gMee4L+yTSIH8JNtxXcG8I7+kcp3fCVOLM8+tSyBFgU+B0AngTgVmHxYM3NdOytzbnz8chIvkDSSoYpbWzFeAQA6etQ3p11g/eiOw8VK+fax8fEXxTT+loBnQfgSgHtO0F+ZkwBJP5+Abybw97Pj1T/xlTixci6BLTsMqtUrIZzRwVtECLeEhN/hQF9XDgnVx8dHAbwQ4DnA8jdAlwQylAGA69Z5W7sucvajL20DuBPAnUd27/lMoSf/SEU8UtLTAIwu/ed42wzgCgJPqI9XL4f0jNLoSMNXwz1FWxk9xRES5y0tvF8+KYD8fM/w4D3d+PMv7DvYExGeBvDxkkoZawiCw7rjLq9f7Obe484dR4rD5c+XKuX/Q/DZgeGPQghvJbgbwPHe85QAIOBJYHjD7Hhto6+AQ9FOsbu//o28ol4qKWSddSriXubCZ572X1/ancOGwg4CTwWZuUcgCali/VCpUHKrWh1KI+Uqc/xQsTz8EkX9cozxtwG8H+A4ybmHboaOgxyIx5M6x1V3KNopVh7c9mwsHsmTrXdELpD8bG+hMP7RN7ypK4cN03ThsYCe0On6tUBObD7t9Bm3qtWjd3AoBYC+7ZVvx0LyL30jlee0YvqrkXiepI9B+gqASQAHl34n2ssNy6U/u4vgM+dq1aDpaT+TPo78TNGOvXdzqNHXmJ++KCpuz9o70mJP65Nh06auXIqwsG//cKvV+rPw09ci/jR35Rdyb3CrWr3WD5UjAGzYPnrz0r/6cH1s7858Lq9UuiwKQxJ6AZwhYj3BMxeH47mLxOzS0Hz+oXWvD/1zqd3dz8CJvnLFp244FO2U4UI+Kj6THQQCyZt7qK925U3B4i4+jyJQzFzCxdrVSfxlvpSfc6NaW0qj23cv/c89APCBt304PPs3nxFnquPD+SSXT1utwcBkCORBCBeDHFCMpwmahzBPsiVpIlC39g77IGOHop1S9Xr9VwEUsx4kDOAwpE8lm7d25ZAhSdXHaiMkBzs4TBkA3pgk4esc2th0q1rbnv2bz4gAMFAZmVj6V3u/5//+MgBovp5jsdSe+M59+eFzd7VctRPLzxTt2HpJM0fWAbqE5FDGXpakOJ2E8Cn2FrpyS7dvXH9tYNARQGmWCRNLgfh+tfWhnqHhB92q7JhupoqlNgA4EB2KtoKk8wubFeNTMg+bggT46UJ96PZurcEjH/+UqBDuEdDM2FP8LCP/oW9H5WtuUWYORevWXmKa5trt9jNI5rJOKRe0NyS8HmegqycGlIaHbwkKV2KZu5iQvD2Xz72iuGnDV0l6sb6ZQ9G61dyhqXVRuIzk5ow9pBTAAxBuItn1s+UKPflvkHguiE9g8Sah/RO6yNOCPgvpFxpH9t3C/pJPWjdzKFo3S1rpGZCuyLxYX0pAfLBYLldXRT22bWlS8da+SuWXAvlrJD9G8nYAB4jFVSdLPeoJAG8uFAovKY1UxtadeYF7iGYrnGef2k8OtCOHi/XZuStJ5ghkXYpxq5Zm0q0WxZHRFgAUy8P/PDs+/gWSdQiPFbCVgRdK+nZIkptCwsnCtm0+Td3MoWirQbPRGIBwOaCsu1a3Id3ft2HTPau1Rv0jIw8dBHvtUs84rIZhYjOHotkPSFM9HMAlWQJxaQgxR4YPsL80u1Zq5kA0615+pmg/vpe4f996SI8l2ZN1XZ6kG1PE+11NM3MoWleLSa4o4InIvotNE8BdifAtV9PMuoGHT+3Has/NX87AszJPmZTIwGuK5XLqapqZe4rWteaq4xsYeCmAdR0s2P90PoSaq2lmDkXraqV8YQ7A0wEkmYZOgQVJd+SHhu5yNc3MoWhdrd5qvxDA9swnhZP1pFC4xpU0M4eidbVGbXwTgYtIhg6OifoEiWlX08wcitbVkp6SJD2ng23dIOmu3m2Du11NM3MoWldrNxeeD2Agy2tJgsBYqZB/qytpZg5F62qze/Ztimm8gGQ+41ukkj7ZUkxcTTNzKFpXK5RCP4hf6OAt5kMIXykMDk26mmbmULSuJSmkC62nQchlnmAj3JuE8BlX08wcitbV6nse7Bf0CABbMr5FA8Rn8/neWVfTzByK1t3yPSMCrsi6NjHG2BB0E7dsOOximplD0bqWGu08Iq8A0Jd16JTkV0oD/V9yNc3MoWjdrUeBAZcB2JQpVKVZEDcuzDfmXEwzcyhaV2uM779I0qUAlt1NXJxgIwTw5t7BwYaraSeb2m26CuZQtOPicHUsp8AzAQwCWPaXiySQ/ALSxIcJ2ylxaO8DvWq1k7nx6ukz42Mb7/3aLXlXxbLw3ZUBAObGq9cA+NWsLwfw+lKl/CqSbVfTTpaF6r5BAme11H42gEeRrAC4A8AB5HKvjYjj/YNDU66UHSsfMmxoTEw8JqY6W8i8+XcxSXLXOhDtZJnf/UAvcz272mq/CsCjAFbI766vHQEAtNv/BdK767XaZwF8uFQu1105cyjaTyQpqU9MnEHibILIMvNU0HUxynfjdlLUq7XtUfGXCfwZyfJimxV+qOlKIPB8SRdIGpyrVq/pq1SqrqA5FO0n9fTSufHaL4IoZjwVYwHC3cXK4L2upp3oG7jW5MGRVmy9D+AuAVtxLG1WeATBLYjYNrd34u/7tg+Pu5r243iizVq/656YOB9AJWOgQlKKJPyrK2knNBBnjva2JycvbaetT0B6DICty3yL7SBegqDHuJrmULQfL8btgH4269mJAG9QTA+4kHYCe4hsHp19QjvqNSDO6+Ct1hP6x9lq9WJX1RyK9sNfNgvtXIx4GpFtgkyMEYDu6a+M3Olq2omyMLnvgnbUc6P0uOw3b0ttHiiBPN9VNYei/ZD21PQuErtALXtN19K2blMJ+UlJXtpjJ0xUfDiJX826J+8Pvl2QHnBVzaFoPxyKaG8H8Pgsy1UlScBtacReknI17URQjL2Keq4W21zm93koUEl+OuSSo66sORTt+79sms1SVLySRKa1WyQZiK/3jZY9dGonzOz99wSSseP2vhiodwP4eO/g0O2urDkU7ft99YYGhEdIKC33Dnxp1ulkID+hZt1Dp3bC9K7bWhTQ38l7LA31HwFxfbE8/GZX1RyK9kPmTzv3CgCPz3jXLYJjSchVWSh56NROmPzg5ilCHa6n1gyAr5V6i391PHqd5lC0VUaN+SKIiwDMZ5m8wMUX3Zgb3OoNwO0kNFhMdDDJpgHg35Ik/Ak3b5p0Mc2haD/kc5+6thGFJwEZd7GRxiV905W0E+2r134iAZhptuhSjL6dIfxtz9DQv7uatox2Y2tJY3LysjSNb4KUaREzyQdzSfKzhaHBmqtpJ1pam9q+EBc+JeicY/pCIxWlNICvR8TbS9vLd7mKdqy89+kaFGPcSeACkFmnub/PgWgnLRSb6aTyeiWEFwD4xR99owZIiydkE7id5AeK6wZez4GBGVfQHIr2Y914/fVBwhMABGSZdQrsh7B3LdRqfnJiY0+hV0ebjbhhaPhoc/e+XGHnoI/HOskKO7c1Z8bGru3p6bm+1Ww9DcLTQWwHcAHJFgDFqKOB3Afyk2rHT/btqHzelTOHov1Uj3rYuWfHdtyZZReapV7lfEyTz6zmGtWrk1cJ6UVK4+Mb9Xo+D6T18WozZfzibLW2t79Sfr9b0sk1MDq6AGABwDum73/go8XefNIWH5NTrhpDWklyyZQC9pcGh+75H3/+Sj8WsszceNaY+YnJJ8Q0/RiAUsa3eE++kP/TwrZtq24m33xt8kopXgHgZQB6ASWL43GLw8wkW5JaBN5XGqm8yK3JbPXx7NM1RFKSpvHnSCrjFPcUwh2rMRDnqrVnpDF9laQ/BdAnKXnoGdVDz10l5QGUBPzGXLX2ubnqRJ9bldnq4uHTNaRxcN9AIC6WlOnLnOR0LuRuXIW958sV078lWQaOcY9NaTuZ3wJgzi3LzKFoXYhp2B4VL2K2WacC9K2QaNWcnaiJmZ6F9uwlMcZPSuglAOGn12Wpj11O6Dk3ZquNh0/XCEn5drt5GaB1WZZhcHEbm2/mBgfvWw31aB080DMfZy+JQe+W1ItjDMTvuUO4GQFORTOHonWjO++5PYV4KYANGQIRkg6I+Lqkrm8zkkKj0Thbiv8fgDMy3CEgkPt7hoarbllmDkXrQmes33IOiXOznH0oCRL2hSR/y2rYUDmdPLwxIPkdAJdn6TVLmhbxNrcqM4eidWsQpNoB4rws6xOXOkf/Prl/bHw11GIhrf88iRdn7WiS/Eyhp+BeoplD0bqVoMcCXJ/x5YeI8PUdD7so7fo6TB/eJODVGZ+rAsCYoE/mNm+5163KbPXx7NM1YLZa3UmqmKyLAAAgAElEQVTgbGQOArUk3MAk1/VDp/X5uUsI9GYKVAkEbipVKu9yqzJzT9G6FEPoA/DYrEEg6abA5OCqaPDMTQHM1O4JHiyE8Cq3KDOHonWzGK+EkMu4p18Twj3Fyrax1VCKnnz+QUDLDvjFHjP/IFcevs8NysyhaF1q/sD+dQTPAbBR2d4iilg1G4DvOzI1D2BZJygsLkmJfwcmPnnBzKFo3SwPbkLGoVOSIHkzyP2rpR7DZ5w5H4B/JHnoGH9+AHg3c8lflyrbPOPUzKFo3UpSaMf0UgDrs2wALgBR2NtfqdyxmuoSlYxB+Djw43ekWdqw4G4AbyxVyi8oDQ1PuEWZORSti5GMMdXFkMrKcKAwpCMBul4t5VdTXfpGh/aBej2J2R/qGS7ubDoN6d8kvqq4fsMfuSWZrR1ekrGKzY9P7IiKFwGIy70BkiSCk0C8i3m2VlttSpXKN+vV2nmA3sjAkqLOk/RNkndKuqlvZOTjbkFmDkVbVbSB4gUgQoaeIiHdhYT3rNbqlCrlGoCnL1TH+pqttDBw2s5ptxkzh6Kt1kgELhO0HtmmndZB3FNgMr/a69RTGZ3Df5yLuHiClJmtSX6muErVx8b6I7CT5LrlTrJZ+vMlhnBjbmhoYe3dS5iZQ9FWlUKhkCfx2KUdaZaXCot//lYAU66kmTkUreulihcQyrQUYzEYcei6Q3NfdiXNzKFoXU9ROyWcl+W1BETo5if2h15X0swcitbVFg7sL6bSIwG0Mh2iC9QZkjsHdpw+72qamUPRulqz1e4jeCHJwrJ7iYvDrZNIcYcraWYORet6OfA0SadhmTMpl7Y2iwBvF7HflTQzh6J1tYXv7A4QzwWwVdKyZtksDbUGIn6nNDK0z9U0M4eidbWec3dGIV4CoLTc1y4Nne5jCHcsN1DNzByKtuLM7t1zBqDTsy7FgNCIKW8l6UXsZrbmeJu31XaXk8v3KOrSrBuzhMCvUYn3ADUz9xSt+wn6OS7u37n810qtGONY78i2mitpZg5F6+5AlHKIOA3kliyvJxkZeIMraWYORet6jdrkNgCPwuL5iRl6mbibIUy6kmbmULSuNr3nQTJwO8kKpEzXlUCtt9j7TVfTzByK1tU27jhNaZpeKGlHxmmj85K+iSYKrqaZORStq7X2H14fyDMBJJl6iWQRwFe5beOcq2kn0sufc7XXwJpD0U6sg4cOIQqPI5kpFCV9R8HnJ9qJdWR6Prz6b/9mq47MrKuP1x6m9lyhXp3w6IStGF6nuEqsGyg+XIrrMp8bTx7pGx7280Q7Ieb3jG1SEh4XZ6euQgiPmZ852gdwoD55+BYifKdenfiHUmX4QVfKHIp2nMTtBM5Z2tR7mXlICLj1aG08cR3tuPYMq2OlAnNPlfSfJf1SCEEAlrZLEgD8ohAvJcJsY9/Ea3sHhz18b6eUh09XgaV9Sh8NIGY6P1FoS7pvfWV01tW046Wxb/Jn8kz+e4zxrZCueqit/og2uhXQbwYkQ66aORStY+39+7YBOIvksq/n4h6pWgBxuytpxy0Qa5OXxHZ8uaJeTrJfP2VUSlK5naZXunLmULSOpW0MU3xMxl4mAnlvInhrNzsuFiYmR1KlrwDwZAC5Yxy9IGJ8kiQP4ZtD0bKb3nNfiEjPR8ZdbBafJ+pg68jU/a6mdRyItX2FNI0vhXAZgIFl3aARzNqOzRyKBgDYuGNXBHgxiIEszxMBLBDh9oHTz3QxrWMp0mcAuIrk0HLa49JRZ1uPzM+6p2gORctO04e2QtiFjIkoqYfEN1kszrua1on5Wu0iRT1F0COytUVsX9/b1+tKmkPRsusfmAd1ljIeFwXgfhAHXEjrxHduu7vQTvVYks/Ksixo8cuIH2YIngFtDkXLrnng4GUAO7mOaU+SfNmVtE5sO7OCQPyBpHymQQvpMKQxV9IcitaRKG0BcPbSM5llI/lV5JIeV9I60XvwyEsAbM/UBhfb8YN59r7NlTSHomW2MLG/l+DFABpZ7s5JAsID3LR5v6tpWR2d3JsDMUQyyXRzRoLkX+RHNh91Nc2haNlDcb4d2zG9QFKmyQmSDkel987vfcDtwDIbGBwVycskZZvvFfGKUqX8KVfSHIrWkVyBO8mwLctrF+/oOVvIFb5d3H6614ZZZiRTQQ8sp5f40J8l+M9k71tJpq6kORStMzGWAZ2R7cUCid1S28dFWUfmD+xLJN0k6VvH3PqkuqTPFnO9f9Bb2eg2aA5F65wCzgVQyvRaARDqheHypCtpnShuHUwDwnspvonAFwAsfH+v8Ie6iWMA3te3fv2vcGjTPpJyFW2l8NFRXWr6/ntLJE6XsOyZow8NXQn6hIet7HgojZQjgLc0atV7U+EcgC+AtJPkRkkLAPoATACoEXpbLp//V64b8MQaW3HoEnRpL3G+Xpibmv4kySuQZeYp2CD54mJl+L2uph1Ph/dN5DYMDrfr47UrJDUkbU4C0yTw22Iy3TM86AX65p6iHV8L04fPI7CBWDqqdfmpeLDZbHzelbTjbcPgcHup9+j2ZV3HzxS7VDvGLQDOy5SHZJR0T6FQKLiSZmYOxa5WH9vbI+lhAFpZXi8pkNxTywWfoWhm9j08fNqFSqPbF+bGqxeR7M94OEYD0MTp24Zbq7VGD379/mSwUjwPYl8IYaParcNRuL1vdMSTO8zMobiqeorj+3aC6ZaMgQiSIcZ4B8lVtWhfUtI6sH9Lq9l+KcALFHUZpA1pjCWAe0kcnhuvvqBvpHKrW5GZORRXCUK9Ah6R5YiepddMSDi0asLw6JFC2mptq9dqvwPgcSR/RtIPzkDaLmAUwrvnxqvP6xup/Ltbkpk5FFdDCEAXAghZeoqLr2FdSO9bLfWYn6m/QIrPAvDEn7LVGBm4a+kQXIeimf0QT7Tpzp7iTknDmV5LAsS9uXy+vhpqMTde/SNAf0jyiQ+F/k+6WZBUpPjS2T3jW92SzMyh2OVakwdKAh5JINNONIvDipoqDQ93/czTerX2eIL/WdJZy+k1C9oREmxwazIzh2K3a2OjoGEBSdbOFYB72/v3d/UaxebBA/0gfg7EORlevhXMXezGZGYOxS6X5tIKidEsr1163tYH8vbctm3Nbq5DLsZ+CE+RVMzWY07Pc2syM4di9/cUCxK2ZAsCgcDdgOa6vQyNVvqspQ0MstwcNElOHx7b7fZvZg7Fru4pMl4Fsr+DnmKjFMK3u7kGCwcP9Ei6kEBhOQfbPlQDSYUQwh0bRnf6cGUzcyh2K9XnSoBKyLhoX5IE3NNG0tXXPU0jRD5a5LKXpUgCyHf3Dg991i3KzByKXSw2FopLQ4ZZD2UlpPHc3MT+bq5Du9EaodRe7rlnS73KO0m+T5Lbvpk5FLu7qxgHCG7jcscM/yMUZhm4G2dc2NXXPcknOQLnZti8YFrQBwPC11fbFndm5lBcc5rt9hDIDVl2siEJAREMD5JMu7kORaVVABPLuTcgmUr6YAjh/b3lwSm3JjNzKHa5tJ0OQ9pKMNsbSHsZsL/b63CwsZAImDmWmwOSD02u+Tcy/EupXL7TLcnMHIqr42LtAFBUlkeKi8sxWjnk7un2Omw744wjAeGvANxzLD+3pM8h4F2lyvBn3IrMzKG4CujwdAnANmTcyWYxRvlgEvKrYhP4GOMXCbwFwJ0/2DP83n+K/Ewu5F9VGhq+1q3IzH4an5LRJdqttqL0sIAQhYwzJ4nJsG3DgdVQj77tlalGtfoWiYci9LMEnicAkvIAjki6B8K3S5XhF5GUW5CZORRXEbaTzYFhfQdLCeYIPajGdGDvxlUx87K3UpkD8K765MS1Ev+BMe4CMACh3lb768VCb82BaGYOxVVooTVfFlRmoIBMM22CFPaslkD8XqWh4SkAUwlwa5p9DaeZmZ8pdg8NhCQMZ1mjuPSSKSyekLFqORDNzD3FNXP7wl2SMq3FWNoIPOZy3ONCmpm5p9jVxm/bnRAcJtGfcTMbCNgdUzVdTTMzh2JXq1ywI0o6C1ra0HqZloJ0vied3+1qmpk5FLvbV0GQG5G9l9gSUMWWwbyLaWbmUOxq9UrtHBAPV8YjoyDlCTyYzhzy8KmZmUOxuxFhPQFlfZ5IsA7hSG5wtO1qmpn9eJ592h2peK6kQqaXLm6GHRkw5kKambmn2PVSpZsAbMrSU1xcjsGDSUgOuZJmZg7FrqZD0wUCZy6dB5jtPaCFGOOEq2lm5lDsarNH5/sJVpDxdAwCgnAQDHVX08zModjVCr25fhBDyLiFmUiSeJCF0HA17VhNf+0Gugq2FnmizcpGxfYgyY3Itgn44iG70Fzvlm1TLqf9+GYiktTs2PiGXC45m8Lm+dqkGLAhjboXAUf6hobvdaXMoWin9LsqTXUGiPWZl2OQLYgPqK0cc/SSDPvBMExIpo3axJPr49UnA7goTeMjSCaQFKPyAHoh3Fav1r5M4BXFStk3WOZQtFMjBIYobUbWSTZRMZD7HIj2o8xXa0+cG68+X8J/Arn9u6MLP9jehAsBjYDkbK365/3lioPRVud3rkuwsu/iI3AVyUwPFEmCgXNIsN/VtB80V61eJeDlAK4WtF0/Kgy/LxexScCVISQjrp45FO2kI5lCUualGBJijBvVxrirad8XiLXqwwlcDeDJy2xUO9Vq//f5yck+V9EcinZStfYf3Aiwoy8fkt/oyfd64b59V3PywGYyPFXAr2RoUAA5yhAciuZQtJMcirHVK2BLh6GYb/XlZ11NWxo9CGm7tUtpvJoZbriWRi12oBUvcDXNoWgn9wusrc0E+rIuGCMZEeNkrl4vupr2UJsQ8TKSZ3VwNueWtlK5muZQtJOqEDBPamcH3z5BwOHpudkFV9MAoD5evSrG+F86eU4NYrcoH0NmDkU7udrA6RI62Z5NJGe3bN/pLd4MOnqkV8ClIYT57MeQARD27Pif//NLrqg5FO3kfokJmwFsyP56UcTU3jtubSNJvG3XGsd16xsAngCgmHnolDyKwDdMvenNbk+2Knnx/gr1gie/h4rsA9W3dCZilq/BFoTGjosuSV1Rq1cnHi7oUVmHTpdu1D4O6U6S0RU19xTtpHnXp54nIR1c6vFl6xkQzRBYU2z55sfAlDOKMZ+tLREAxgjc2DdSucvVNIeinVQz+yd6SQ6QTLK+h4RegAcY8t7izdC7bnCc4DXLfZ64NFJxCMDHSyPlN7uS5lC0k66/tySSFQCZhj5JCtAcJA+dGgCgcaTWjGq/W9KHABzzjZKkOYJfLvb1vcJVtNXOw2or1FyrFSitz9pTlEQAvWjjDlfTAKC4oxIBfHa2Ot6muBuL27yVf8rL5gXdnMvl/hs3rJ92Fc09RTslCm0OS+rrZFIEyXuVU97VtO8bhaiMfCFGvDYIVxD4Jwh3AZj5nnYDLC7nAYjXkfjLnqHB2105c0/RTplmswkSowSQNRYlMUIzrqb9oIHtlUkAkwCeO7u3dmG+p9BqLSw8JZAFCdsCw10kv10YHvxyoI8dM4einWL5QtiWtpe6idnWlClKR4rFoqfO20/uOW4v37b0P78DALvvuz/s3HWG242tSR4+XaHarXaPpM0dvAUJTDaaC96j0pbFgWgORVtRNCsSYWixk5g90wLZ6BsaPuCKmpk5FLsW+ylBm0luytZFXNwBJwoHp/eMFVxRMzOHYvf2FGOaJ1HKen303UeRsbFp53ZvBm5m5lDs5q5iEKjtklodvEs9hHBQkidTmZk5FLvXzJ4HE4kbAXSyxrBEYIKeTm9m5lDsZknS2wtpPcjMs2wIzMYoX18zM4dit4disQRyPRa3alt+IJIQEEPCeVfTzMyh2NVySXMroP6sr5cEkk1l3EzczMyhaCsIGxB2dfIOklogGq6lmZlDsau1Wu31AI5mjtTFDZ3XIcoL983MHIrdLUJDAEY66CUCwLQUe11NMzOHYncjWgDayz0h/Qc0KbRcTDOzY+eF3SsxE6XTBOa02OVbdjIuhWmLIWm6mmZm7il2+VUJgYtZmKmrKAkSGgDdUzQzcyh2r8ZELQ9pm6DMM0cXD0xHf2+STLqiZmbHzsOnK0zvcLk1N15dB6CDSTKUpOmFdtoPYH831mFhcn95YaE1mCRhVGoPBvImke2+SuVetxIzcyiuDdTsTKFxdIYx6rtHQC2XJIKYZxq66oBhTaXFhcaBRwl6ervdem6SoADEgRACAO6jcPPcWPXtfaOVf3NTMTOH4uon9PU3cWRm3VK4ZUvWxfHTdgS7ZqLN3Hjt4fX65K+B+D0ACb7neepiGTRI8pcBTANwKJrZCeFniivNwYMbopR0shxDEiDM5XK5Fb/NW3P/TE+9NvGfBL0HxEt+0o2apETSr89Vq1e4oZiZQ3EtSJJEwGZJscN36n3X0QP7VnS3eG622GrOPF4xfiQA5wN4aL9X/qResKQz3FDMzKG4Bhw+eKARyE2dXBuSUdLR55RKAys2EA8cShpHZy4A9GqSW5czUBxCeEz1rjt6NDNDtxgzcyiuYr0DGzZJ6PRZYCAx25PLrdzQKGzMxTT+DoBHLPvZqbBzet9RcWBAbjFm5lBcxdrtZgC0vtOOmISIfH7FTrSZn6m9iOTzsv102Hz22bvybi1m5lBc5Uql4izIjnpAkkhQ+SSXrMSfsV6beJiA12aZXbt4gLLua7Ld49ZiZg7FVW6h0SwDOL2T2adLr53nhg2zK+3n09R0AdJrAPRm+RmXZtZO9Q0OH3JrMTOH4iqXMMwqxoWsaxSXtGOMMyvx52ssLDwOwmnfDbjlO4iAN7ulmJlDcQ1IETeQPNxRb0zKIbBQ3z9ZXHE9RcVzBZ2fpZdIMjLwPSQn3FLMzKG4FkgCO9tpiGQk2XukPr+iFu8vHDxYEvD8LNvXkQSkr0m6vlQuOxTNzKG4JnqKMfZA6CjMJIUAtIaGyytqhuaRo9OAdCTjfq53Cnx/X6XycbcSM3MorhH5kDQJdnxdJERMJivrPMXWQBPiV0m2l/nKMQifLpVKb3ELMTOH4hoSFVuCRjt5j8VlC7HIHbkVtU5x29lDbUBflHQTgPmf9jMs2Qfg7wr5wl9z04Z5txAzcyiuIUTYhMWTIDrvLO6b6HnUFVesqF1t+kYrnwLxFyS/AmD3DwTg93x4zZOs5ULuxblC7j35oa1+jmhmJ5yPjlphFEIbMe0oyBbn6oTiA82jzVs+//kVtxVaX6Xypblq9dci4vkJk8dK+kUAJQB1AAOSJkj8C8Av9ZQHb3WrMDOH4hoV03aOZEoAHaRZFKXTK2cVACysxJ+zr1KZmB4bmxwYKX/myN69b1g3uG1uenJyw0Bv30JjvpH27xw94tZgZg7FNY4J10Fod7J2n0AQOD83WetdqaEIABtHRwUA67dvP7j0r/zM0MxOKT9TXGmhKKSKGujokGEAkgoLc2y5omZmDsWuJSKQDB1u8waKYdO6Xo8EmJk5FLtXomQBQEenW5AEAxJs3ejhSDOzZXBPYoVJEZvoaI7N4uxTCSXSw6dmZu4pdrVYJHG0wzcRifnZsT0DrqeZmUOxaykidrr3KQACyOcKPofXzMyh2NWhGJrqcPgUi69PeopFX18zM4diF0siQbQ7eQsurudoHJ2Z9TNjM7Nl8JfmCpNPcvU0TfuznDn43W6iBJI967ZunHNFV5ePf+i94QmPvqIk8sKodGMIyTbEWEql/UmpdENM2+jfNrjPlTJzKK4KaTttgoidrFNcPJAX69AKHglYRXR4ZtPC/NzlMcYXA7iICAmEzQJDICfVWJiHdHO9OvEFRb27b7Ts2cdmDsUuvyD5ENvtWO/oy3MxUHVw/97oiq6SQJydK9UPH/6/BB8jaOcPXGsAGIKEAJwmxUsCWWhUx9/eWxlpunpmx849iRWGIV8n2PlxT8SmLTt3yRXt8jCUQuvAgZH64cPvB3D19wbij/zziyMFZ0foV3qGh+kKmjkUu1qz0SoC6uhZIAFQUKM6ucUV7W7zExO7mgvN1wD4pWWOFCQLBw5scwXNlsfDpyvuNiUugEg7WZShxWAsSC0v3u/mQBybOE9RLwbwaxlevq93cGjMVTRzT7GrJYX8AQhbO+0pRmk9kx7f9HSp+t7ajlTpswX97nKvPYAjIQn/4CqaORS7v3cw06KAA528hwCEEBRjus4V7T6NyYmNSvSLDHzZf+TcMQQi+dAzxXeCuM+VNHModr2+vlwvoP6Oeork4kREyvu8dRnNzuZiO72Q4EsBbFreiwWCt0C4vjg0XHU1zRyK3d9LaNTnCU4eh2mDxRBCryvaZdd/Zhpg+C1J52cYIagJuq40Ur7WlTRzKK4KvaWSBEx1sirjodmHEDx82mUYei6V9JwML50jeVNpoP9vXUUzh+Lq+VJE31GBzU52tFl8HxSVpr6+XabdauYBNJd5S9QCcEcI4dVcv/6wq2jmUFw1Ctv6UwKz7HD9vqCeSHr4tMsoDRMCZpd1S0TsJfma3uGh21xBM4fiqnL7l24okDrUeU+RCsLmr3z4w77GXSQS0ySPHNM1XrxxqgaGt5Yq5Y+4emYOxVXnvJ95bAtiHaDQwbmKiz1FFR799Kf7GneR9dvLB0i8nuTCTwtESXsC+JFiefivXTkzh+KqRFKSpgERy1ij9qO+NANDH8m2q9p1jeCrkpKfeNMjPQjg7b39/X/ugpk5FFctSQFkHUDa2dsIEja4ot2nNDz8FQG/T2Dmx/yR/YJeSYa3csO6GVfMzKG4mnuKEYwpiNlO3gYAQkBxrrq7R2nq0xK67/bosxF6E4kHli5pG0CV5LUhSX7uhmbtn0uV4f2uk9nx5b0xV6JUhxkYO5lqs7SrzeYHHzyUnl/Z6SOkukz/yMjd9fGx1zEk/6SIRwaxphBvb7difd2OspddmDkU11AfgZgDsNDRe0gA0bN9dLAE4Kir2n1KI6OTACYBfNvVMDs5PHy6Ei/K4uSYjk5MX5quX+wt5nx8lJmZQ7GLL0oIh0HOd97lxNDsTKvuipqZORS7lmI8AmCqo/dYXPxfKRSSza6omZlDsZt7irOSjnY6ZZTgJOTnxmZmDsUuVujpmSM51+nsU1D9ZPtMV9TMzKHYtQ5PHWxLmkAn27xJAFhiCIOuqJmZQ7FrbTzr7FkG3obOdrWBpDwEP1M0M3ModrkYh9DhOlKSCYiBI/ff2+OCmpk5FLsWyfsBHDoOPcXRnt6iJ9uYmTkUu5fS9CDJ2Y7fiNjW01ssuKJmZg7F7g1FckZARwvvl3a16W00Gj4tw8zModi9Cvn8YQD1pWDLmKyAhE2Q1ruiZmYOxa61MD8/h053tVlc0bGZITgUzcwcit1r4LTT9gLYjY4PfVJBkpdlmJk5FLuX6vUCFLehg9HTxaFXFqLkZ4pmZg7F7nX3nf+ekrwJQOYZqEubgvdJqriiZmYOxa51ziU/k1LhPgCtDt8qYQjbXFEzM4diV2sjTkma6fR9JA3EQ4f6XVEzM4di18oxTBGc7OhNCJLcOjcz41A0M3Modq/eYmEc1IHO1yqqwhB6XVEzM4di1/rGRz86A7C2NGEme2eR7MkliWegmpk5FLtXc8tmSnGso0Bc/Me6CGxyRc3MHIpd62d++WkRwIMkF7K+hxb/q5x6raKZmUOx+3EMnS7LEBSEYdfSzMyh2NViGqclTXY02YYQgbNcTTMzh2J3X6BC2APgvg4n2wSAp8/uHh9wRc3MHIpdqzRUnkUHW739B+3s6y/2uKJmZg7FrkUyJTHeyegpAAgYmGss7HRFzcwcil3rmr/5SxK4WersbEUAAzmG0//77/8ZXVUzsx/TEXEJVr658erDAXwQwOkd9DgB8JXF8tD/IhldVTMz9xS7U8L9AHZ3+jZS7Hcgmpk5FLta33C5+v+3d28xcpb3Hcd//3dm9jC79u7a6117d3a9tmFDUjvIByChQDAkNiEHJcgBKS1RG7VS20hJpao3TXPRQKuqaS8iqNpeND04pKgRIqFEWJS4UE4lYONwSMA2XpOd3Vmz4MOyu3PY933/vVhXqiLAM7OVyjz+fq64eJ8R85tH/u3zHp7XLDq+kscy3F3y9LJ4ZobXSAEApdjazP2YVrwJarQhTlN2tgEASrHFS9EyR1Op6Yf4z4/rjeWsFAGAUmxtS2nthElTWsFi0WT9kaxwsWWXnDidYQYBqEeWCFpDLopmU1nR3Xc1M97dZWa9cm0MOaf7v7vfPv/rt3v11KnxOI6vSN03VFVZvzg1tdrNHkg9La4aLhxhRgGgFFtYe3vbXKVce1WRpe5uauJxGnc3uYJeKe7ZfcMNi1PTn03i5NNybY5kcvny60JcvxaZ3Vc5NfPHHYPrf8GsAvDLOH3aIqx/XVkZe+H8b9bsbahmkY3UZmZ7QstncWp6aL5YvFPS3e7+Vbm/wzOdnpfr9jROb2ZGAaAUW1ySpifd/cxKPsOlSxdq1aD2QF0oFj8m150m+7rJPmBm8nf9q8Ak07756WInMwoApdjC2jraX5H8hZU8r2hST3e+c304hTh9tbt+x+W/KS2fIn6vJ1fcXZ76VUvVeBMzCgCl2MJyfX0LJptZyeOK7t4Z16of+PLu3S2/xV95urRR5l8ws881+rdBrr2tixkFgFJsYceeP5RIdlDS2yv4mDXu/uG/P3iwpUsxmZ3NJ3Fys1y3mllHg8O7MmabmVEAKMUWNr7rqjij6GlJb67kc1zKt/IeqO5ulaWlD1tkXzRpqJmVc5omH2JGAaAUW1wlqU66dGJlpaLrkjdOtezpQzNzc+2TdI03PlaSyu76L2YTAEqxxVnVq+Z6QlJlBR/Tt5RopGX/MJguXenuf9DMDUfLmxgoNrNFZhMASrHFrR4fK3sm86CkctM/ulm/p+m2Vvz+1dKpfJykX5OUNHfDkUnSga7h4ceYTQAoxRBWi0k6Z7Kmryu6e48r3epzrbcnaDbyXjONmVnD/+9mJjNNZMz+4vyuQABAKba6/H8Jlx0AAAkuSURBVNoNx2R6eiWf4a7LlOtsa7XvXllKN0n6SJOPpVSU6u44jk+YmTOTAFCKIawU8+aS/9RsRdcVNy6ePTvWct89iipq8pEUd7/blT7YNTp6mlkEgFIMxKFHf2zu9ry7JpsuF1PB3MdbbsJmtGiRHZIUX/g72v/+7/1KdF/XSOEoMwgApRiQndff6F1fvPlRk000u+Wbu/rTJL2k1b57x+D6n8v1bUlTktILrAzl0qKke6T0T/KjQ88wewBQigE68w8/zLr7K81u+WZmGTMbn5+Y7Gi1754fHnpAZl+Q9IiZnl/+Qu+4OvxpZHb3v933/S/lhwuvcR0RwAX/bSSC1lUulXZ6kj7iUm9zq0U/XKnW9vZfsvnNVvz+i9PT3ZJvlusKd99jMrk0m7pnzexkRy77PbPsbGZgbZnZAqAevGS4lX88z52tqXpWTZaima3Ld7SPaoXbxv2/rRiHhuYlvSDphROHD+3fvGNnrTx/Jnv9DZ9Inv3Jc6wKATSM06ct7O3TlUnJ/1VSrcnzBN0ybT9w772ZVs9i846dNUnq7O6LKUQAlOJFaM3WQi2yzDNmttDUB7j63H333ttu4zQ6AFCKrc9cP5P8SDN3oS7v8GJZLcxnSBIAKMWW11HY8Iq7/2czd6Euj7Ht1XNzvEYJACjFQFaLspebHux+aSINkiIAUIpBSDL2nMweb7JRE0mXe2WOO5EBUIpE0PpWbRiakPRsc3fLWFZul9dOV3pIEgCliDCYnnRpptFhy9cVfXs2itYQIgBKEUGYn58/KLNXGu7S5btWB6txmZUiAEqRCMIwMXHybZO91NxKUX2u6FpSBEApIggf2bsnkeshqfF3LJqZXLq8Vqt2kiQAShFByGazP5fpYDOrRTN9KH7r9DgpAqAUEYS29esmzPVwU69Icu1Kk3QrKQKgFBHOD2qZZ911vLnRPkSCAChFBKNjeP1TkdmBJvZCtciiz88eO95LigAoRYTkpUb3Qj1fogPt7W0dxAeAUkQ4P6rlHjOzxxoZ4+5y94FMlLlt9tjRHCkCoBQRhPah/lclf7rRcWa2ysx+dd2l40ukCIBSRDA8tcfN7ESjq0W5NleK09tIEACliGC8dfzowyYdarhM5TsTpTeSIABKEcEY3X19nHj6hKSkkXEmpZL1kyAAShFByWSzP5ap1NhKUZG7f2b+9SIP8gOgFBGOcqU8GUXRPZKqDU2KKNqUyWQuJ0EAlCKCsWZs05xL+2XW0HsW3b3T5XvnThY5jQqAUkQ4lpbiSXM91eCwrEw3ZrJt60kQAKWIYPSMjsxJut/dG3r20N0HpJi7UAFQighLHKeHZdFDDQ0yZSW/qVwqdZEgAEoRwVg9VngtMjsgqf4NUV2SaVzSR93dSBEApYhgJEvxM5I1dm3RNeaeflzVKvMEAKWIcKwaGzlspvsbfKVU5KmuKp87N0CCAChFBCX19Al3/0WDw671eOmTpAeAUkRQuguFZyKzHzSyWjQpkmwL6QGgFBGUpTdmLE3TH7r78/WOccnkunW+OHUtCQKgFBGM3MB67xopHJT0o4ZWi2YbI7OPkSAAShHBcdl97v5y3ce75zz1z8xNvM4m4QAoRYSluzB0xKXH1cidqKZtmVz2OtIDQCkivNViGt8l9yMNDOk0s9sXJqcLpAeAUkRQurq6XzWzw/UvFCVJW6JsZpD0AFCKCOuHX7s2STy5U9Kzda0sJbl7f5okX5t/fZKH+QFQighLnKbTLn9adV5aNDOTfHcul7mE9ACEiI2eL3JeLneXT5/5gbvX/ZooM/ve/EL5dwfGt8yRIABWigjGuTdOVSPz+yUtNjBsx6qujn7SA0ApIii9G8eW2tva/9ms/jdouPtlieubM0ePriFBAJQiwtKRW0jN75JU9wP9kdlHe7t62PoNAKWIsFh3T1qpVA546v/RwGpxc6L4y/7mbA8JAqAUEZT+zVtqbUnbHZIeq3tfVNf2cmXplurp0zkSBEApIihJLj7nSh909zN1Dhlx+Vci97WkB4BSRFA6C0PV7sLIX0o60MCwrbVy9bfOTU7mSRAApYjgWBr/kaRH6jy8Xea35LvyPKIBgFJEeFJZUe4PS6rVNcC1vbZQ+dPyVKmX9ABQighK9+ho3DVS+Jabfafum25M15hsX3my1EmCAChFBCeJ07+T+4/q6kSzscST3/co5S0aAChFhKdnY+GI5N83WelCx7q7JP2Ku/7q7cmpdaQHgFJEcPKFwj9J+vMGhuy0SLtIDgCliCB1DnT/tUzfVH033mw097+tlWY2kRwAShHBsbbViSl6QMuPaSzVMWK0liT/uDhV+iDpAaAUEZz88IZDZvqW3GfrKlJpm0m3zk8Uub4IgFJEiMU4/KhF0U2SSnUc3pd6+odRW3Q1yQGgFBFoMQ69qMRukXSkjsO7JO1fmJr6HMkBoBQRJI/0Yqr0Dkk/ueCx7nlJX1+cntpHcgAoRQSne2RowVwPmUXfley5CxyekWuXu35jvjT98bliMUuCAN6v+AcKTRbjSFnSXQuTU2fc/Csm2yGp7d2XjPqUpR5H0uuSjpEggPcjIwKs1EJx6lOSviFpq5avI76Xg2257Kdzg4NlkgNAKSLUYtwm6c8kXS1pzXtOOrOTkvbmh4eOkhyA9xOuKeL/RFdh+EUz+5Kke0322nsd6+5jLv37/GRxD8kBYKWIsFeNk1O/bWa3uPw6Sfl360ZJpyXd0VUY/japAaAUEaxysXR1onSPSbea2QfPv0XjnYqxIvk9U9PTvzd+5ZVLJAeAUkSQzhWLa7LKFcySr7r77ZJSSR3vcvixbFtuX1vHup/ZaotJDwCliOAszJ61rnW9vjBZ/EQUZW5Kle6W+3bJEkmZXzo8NkXfiJPk4WwmejlfGKqSIABKEUGqlEo9ykSdca32WbNoh1zXS+qVNGhm/j/z0d2fjCw6HGWiv2kbHDhuZpxWBUApIuAVZGl6VVtHZ1KdX7wqkidumStkyrj7KvN0i6LoKck7olzuX8q53Ftr+voqpAYAuChcs/uTJknJm7Pt7p6VpJeefCJHMgAAAAAAAAAAAAAAAAAAAAAAAAAAAAAAAAAAAAAAAAAAAAAAAAAAAAAAAAAAAAAAAAAAAAAAAAAAXOT+GzSC0jDE3vY5AAAAAElFTkSuQmCC;" vertex="1" parent="8962rQQDY3VNNf6We3Pp-1">
          <mxGeometry x="550" y="417" width="853" height="853" as="geometry" />
        </mxCell>
        <mxCell id="4RBUmOmcRaL9wjGuKmJW-4" value="Encarregat&lt;br&gt;&amp;nbsp;del Magatzem" style="shape=umlActor;verticalLabelPosition=bottom;verticalAlign=top;html=1;aspect=fixed;" vertex="1" parent="8962rQQDY3VNNf6We3Pp-1">
          <mxGeometry x="285" y="360" width="119" height="238" as="geometry" />
        </mxCell>
        <mxCell id="4RBUmOmcRaL9wjGuKmJW-5" value="&lt;font style=&quot;font-size: 22px&quot; face=&quot;Verdana&quot;&gt;Use Case&lt;br&gt;STORE&lt;/font&gt;" style="ellipse;whiteSpace=wrap;html=1;" vertex="1" parent="8962rQQDY3VNNf6We3Pp-1">
          <mxGeometry x="540" y="540" width="250" height="140" as="geometry" />
        </mxCell>
        <mxCell id="4RBUmOmcRaL9wjGuKmJW-6" value="Encarregat de Tenda" style="shape=umlActor;verticalLabelPosition=bottom;verticalAlign=top;html=1;fontFamily=Verdana;aspect=fixed;" vertex="1" parent="8962rQQDY3VNNf6We3Pp-1">
          <mxGeometry x="590" y="780" width="130" height="260" as="geometry" />
        </mxCell>
        <mxCell id="4RBUmOmcRaL9wjGuKmJW-7" value="Personal al Punt de Venda" style="shape=umlActor;verticalLabelPosition=bottom;verticalAlign=top;html=1;fontFamily=Verdana;aspect=fixed;" vertex="1" parent="8962rQQDY3VNNf6We3Pp-1">
          <mxGeometry x="950" y="349" width="130" height="260" as="geometry" />
        </mxCell>
      </root>
    </mxGraphModel>
  </diagram>
</mxfile>
